<svg xmlns="http://www.w3.org/2000/svg" viewBox="0 0 224.25 264.76"><defs><style>.cls-1{fill:#ffdb54;}.cls-2{fill:#d2a546;}.cls-3{fill:none;stroke:#1d1d1b;stroke-miterlimit:10;stroke-width:2px;}</style></defs><title>bulb</title><g id="Layer_8" data-name="Layer 8"><path class="cls-1" d="M132.41,111c-4.14-16.24-20.53-28.37-40.12-28.37-20.11,0-36.84,12.78-40.42,29.67h0v0A32.4,32.4,0,0,0,53,130c1.17,5.68,3.32,11.65,7.25,16.07,10.29,11.57,15,20.14,15.43,42.43,0,0,16.29,8.14,33,0,0,0-5.14-18.86,12.86-39S132.41,111,132.41,111Z"/><path class="cls-2" d="M111.71,194.24c0-.77-2.17-1.47-5.67-2,3.5-.5,5.67-1.2,5.67-2,0-1.54-8.63-2.78-19.29-2.78s-19.29,1.24-19.29,2.78c0,.77,2.17,1.47,5.68,2-3.51.5-5.68,1.2-5.68,2s2.14,1.45,5.58,1.95a.1.1,0,0,1,0,0c-3.41.5-5.53,1.19-5.53,2,0,.59,1.32,1.14,3.54,1.6.1,3.86,7,7,15.47,7s15.22-3.05,15.45-6.86c2.58-.47,4.12-1.07,4.12-1.71s-2.17-1.47-5.67-2C109.54,195.7,111.71,195,111.71,194.24Z"/><line class="cls-3" x1="149.14" y1="122.93" x2="167.79" y2="122.93"/><line class="cls-3" x1="142.71" y1="144.52" x2="158.46" y2="151.59"/><line class="cls-3" x1="27.89" y1="90.3" x2="43.64" y2="97.37"/><line class="cls-3" x1="20.4" y1="122.93" x2="39.04" y2="122.93"/><line class="cls-3" x1="44.04" y1="144.52" x2="28.29" y2="151.59"/><line class="cls-3" x1="158.46" y1="90.3" x2="142.71" y2="97.37"/><line class="cls-3" x1="131.97" y1="64.18" x2="123.91" y2="79.44"/><line class="cls-3" x1="52.18" y1="64.47" x2="60.24" y2="79.74"/><line class="cls-3" x1="92.08" y1="72.86" x2="92.08" y2="54.21"/></g></svg>
