<svg xmlns="http://www.w3.org/2000/svg" viewBox="0 0 489.86 476.93"><defs><style>.cls-1{fill:#d8d8d8;}.cls-2{fill:#8c8c8b;}</style></defs><title>bulb</title><g id="Layer_9" data-name="Layer 9"><path class="cls-1" d="M300.19,165.88c-7.54-28.26-37.34-49.38-73-49.38-36.58,0-67,22.25-73.52,51.65h0v.07a54,54,0,0,0,2.16,30.72c2.12,9.9,6,20.28,13.18,28,18.7,20.14,27.28,35.06,28.06,73.85,0,0,29.62,14.18,60,0,0,0-9.36-32.82,23.38-67.89S300.19,165.89,300.19,165.88Z"/><path class="cls-2" d="M260.22,312.51c0-1.34-3.72-2.55-9.72-3.43,6-.88,9.72-2.09,9.72-3.43,0-2.67-14.78-4.84-33-4.84s-33,2.17-33,4.84c0,1.34,3.72,2.55,9.72,3.43-6,.88-9.72,2.09-9.72,3.43s3.65,2.52,9.55,3.4l-.09.07c-5.84.87-9.46,2.06-9.46,3.38,0,1,2.25,2,6.05,2.79.17,6.72,11.95,12.14,26.47,12.14s26.06-5.32,26.45-11.94c4.41-.83,7.06-1.86,7.06-3,0-1.34-3.72-2.55-9.72-3.42C256.5,315.06,260.22,313.85,260.22,312.51Z"/></g></svg>
