<svg xmlns="http://www.w3.org/2000/svg" viewBox="0 0 477.86 473.29"><defs><style>.cls-1{fill:#ffdb54;}.cls-2{fill:#d2a546;}.cls-3{fill:none;stroke:#1d1d1b;stroke-miterlimit:10;stroke-width:2px;}</style></defs><title>bulb2</title><g id="Layer_8" data-name="Layer 8"><path class="cls-1" d="M295,181.5c-6.51-25.52-32.26-44.58-63-44.58-31.61,0-57.9,20.09-63.53,46.63h0v.06a50.72,50.72,0,0,0,1.86,27.73c1.83,8.94,5.22,18.31,11.39,25.26,16.16,18.18,23.57,31.65,24.25,66.67,0,0,25.59,12.8,51.85,0,0,0-8.08-29.63,20.21-61.29S295,181.51,295,181.5Z"/><path class="cls-2" d="M262.46,312.29c0-1.21-3.41-2.3-8.92-3.09,5.51-.79,8.92-1.89,8.92-3.1,0-2.41-13.57-4.37-30.32-4.37s-30.31,2-30.31,4.37c0,1.21,3.41,2.31,8.92,3.1-5.51.79-8.92,1.88-8.92,3.09s3.35,2.28,8.77,3.07l-.09.06c-5.36.79-8.68,1.87-8.68,3.06,0,.94,2.07,1.8,5.55,2.52.16,6.06,11,11,24.31,11s23.93-4.81,24.29-10.79c4-.74,6.48-1.67,6.48-2.69,0-1.21-3.41-2.3-8.92-3.09C259.05,314.6,262.46,313.5,262.46,312.29Z"/><line class="cls-3" x1="321.28" y1="200.23" x2="350.57" y2="200.23"/><line class="cls-3" x1="311.17" y1="234.16" x2="335.92" y2="245.27"/><line class="cls-3" x1="130.73" y1="148.96" x2="155.49" y2="160.07"/><line class="cls-3" x1="118.96" y1="200.23" x2="148.25" y2="200.23"/><line class="cls-3" x1="156.11" y1="234.16" x2="131.36" y2="245.27"/><line class="cls-3" x1="335.92" y1="148.96" x2="311.17" y2="160.07"/><line class="cls-3" x1="294.3" y1="107.91" x2="281.63" y2="131.9"/><line class="cls-3" x1="168.9" y1="108.37" x2="181.57" y2="132.37"/><line class="cls-3" x1="231.6" y1="121.55" x2="231.6" y2="92.25"/></g></svg>
