<svg xmlns="http://www.w3.org/2000/svg" viewBox="0 0 241.07 264.76"><defs><style>.cls-1{fill:#d8d8d8;}.cls-2{fill:#8c8c8b;}</style></defs><title>bulb2</title><g id="Layer_9" data-name="Layer 9"><path class="cls-1" d="M175.83,107.65c-4.14-16.24-20.52-28.36-40.12-28.36-20.11,0-36.84,12.78-40.42,29.66h0v0a32.26,32.26,0,0,0,1.19,17.64c1.16,5.69,3.32,11.66,7.24,16.07,10.29,11.58,15,20.15,15.43,42.43,0,0,16.29,8.15,33,0,0,0-5.14-18.85,12.86-39S175.84,107.66,175.83,107.65Z"/><path class="cls-2" d="M153.86,191.88c0-.77-2.05-1.46-5.34-2,3.29-.5,5.34-1.2,5.34-2,0-1.54-8.13-2.78-18.15-2.78s-18.15,1.24-18.15,2.78c0,.76,2,1.46,5.34,2-3.3.51-5.34,1.2-5.34,2s2,1.45,5.25,2a.1.1,0,0,0,0,0c-3.22.5-5.2,1.18-5.2,1.94,0,.6,1.23,1.15,3.32,1.6.09,3.86,6.57,7,14.56,7s14.32-3.06,14.54-6.87c2.42-.47,3.88-1.06,3.88-1.71s-2.05-1.46-5.34-2C151.81,193.35,153.86,192.65,153.86,191.88Z"/></g></svg>
