<svg xmlns="http://www.w3.org/2000/svg" viewBox="0 0 523.28 478.29"><defs><style>.cls-1{fill:#db78ab;}.cls-2{fill:#f49acc;}.cls-3{fill:#ffebb5;}.cls-4{fill:#ffdb54;}.cls-5{fill:#f094be;}</style><style>
            #drip {
                animation: drip 1.5s ease-in-out alternate infinite;
                transform-origin: center;
                animation-delay: 1s;
            }
            @keyframes drip {
                from {
                    transform: translate(0px, 0px);
                }
                to {
                    transform: translate(0px, 15px);
                }
            }
        </style></defs><title>cakedrip</title><g id="cake"><path class="cls-1" d="M308.61,243.53c-6.24.44-13.75,4.55-18.73.47-.15-.13-.16-.36-.24-.54s-.07-.18-.11-.26A158.72,158.72,0,0,0,272,209.77c-1.5-2.18-3.14-4.27-4.59-6.49a15.12,15.12,0,0,0-4.72-4.42c-6.4-5-14.05-17.87-19.16-24-12.67-15.3-30.64-14.68-30-18.53.78-4.59,26.24-4.5,47.24-4.42,1.25,0,7.11,0,15.61.3,7,.25,23.07,1,40.39,2.47,31.89,2.77,63.37,8,93.84,19.39a81.85,81.85,0,0,1,23.07,12.72c6.16,5,9.54,10.9,9.42,19.27q-.07,5.52-.1,11"/><path class="cls-1" d="M401.05,228.39c-.67-2.48-4.69-.1-7.06.6"/><path class="cls-1" d="M443,217.07c-.13,20.07.11,40.16.14,60.23,0,.16,0,.48,0,.65,0,3.83-.12,7.65-.17,11.48,0,3.65-1.55,6.35-5.42,6.4s-5.37-2.84-5.54-6.35c-.13-2.82.06-5.66-.05-8.49a12.1,12.1,0,0,0-24.05-1.77,40.2,40.2,0,0,0-.6,6.93c-.06,16.65,0,33.29,0,49.94,0,6.54-1.47,9.13-5.34,8.75-5.72-.56-5.24-5-5.25-9.06,0-21.14.06-42.28,0-63.42a30.61,30.61,0,0,0-.22-5c-1.07-6.68-6.65-11.44-12.73-11-6.82.46-11.59,5.36-11.69,12.52-.15,12,0,24,0,35.95,0,4.16,0,8.33,0,12.49,0,3.82-1.21,6.77-5.55,6.64s-5.47-3.1-5.46-6.88c0-4.16.08-8.32,0-12.48-.15-6.53-4.45-11.24-10.6-11.76-6.88-.6-12.2,3.17-13.48,9.82-1.33,6.92-.37,13.95-.56,20.92-.13,5.32,0,10.65-.05,16,0,3.36-1.64,5.44-5.07,5.51-3.7.07-5.34-2-5.34-5.69,0-15.31.07-30.62,0-45.94,0-7.94-3.91-12.76-10.86-13.89-5.89-1-6.06,7.45-13.86,9.6-.45.12-.66-.6-.87-.95a7.12,7.12,0,0,1-.66-2.57A190.13,190.13,0,0,0,293.26,255c-.48-1.6-1.09-3.24-.46-5a1.3,1.3,0,0,0,.08-.17c0-.06,0-.14.07-.18,2.9-2.94,7.74-1.85,11.65-2.1,30.63-2,60.83-6.44,90.28-15.23,2.44-.73,7.08-.7,6.17-4"/><path class="cls-2" d="M237.32,244.18c1.44,1.39,3.35,1.37,5.18,1.38,13.56.08,27.11.11,40.67,0,2.35,0,4.78-.1,6.47-2.09a2.51,2.51,0,0,0,.26-.31h0a10.93,10.93,0,0,0-.35-2.9,191.41,191.41,0,0,0-19.39-35.62c-.62-.92-1.25-1.55-2.16-2.66-5-6.1-9.18-10.89-13.24-15.47-12-13.46-10.22-10.78-17.49-19.08A64.31,64.31,0,0,0,224.61,156c-.93-.64-1.72-1.14-2.24-1.46l-1-1.38c-2.49.13-5.88.34-9.9.64-6,.45-10.55.91-14.14,1.28-3.12.32-7.84.81-13.87,1.58-9.15,1.16-16.17,2.31-18.56,2.71-9.17,1.53-15.82,2.64-24.57,4.91-5.13,1.34-9.35,2.65-12.32,3.63h0c-10.39,2.53-20.46,5.89-29.81,11.17-2.06,1.06-4.17,2-6.17,3.19C81,188.66,75.31,197.4,75.81,211.12c.88,24.31.17,48.66.09,73V285c.11,1.15.29,2.31.31,3.46,0,4,1,7.58,5.89,7.44,4.74-.13,5.85-3.51,5.81-7.62-.06-6.31,0-12.62,0-18.92,0-9.51,3.75-13.62,13.14-14.51,8.5,2.36,11.14,5.78,11.14,14.57q0,33.42,0,66.83a17.81,17.81,0,0,0,.48,4.91,4.78,4.78,0,0,0,5.19,3.77,5.23,5.23,0,0,0,5.15-4.54,19.51,19.51,0,0,0,.15-4q0-22.19,0-44.38c0-5.92,2.33-10.5,7.84-13.15h0c10.89-2,16.81,2.94,16.85,14.11,0,1.33,0,2.66,0,4-.11,3.74,1,6.89,5.26,6.9,4.47,0,5.75-3.19,5.74-7.13,0-3.16-.11-6.32,0-9.47.21-5.09-.89-10.3,1.2-15.25,6.66-6.85,10.06-7.39,18.91-3,3.3,3.25,4.27,7.2,4.22,11.78-.18,14-.11,28,0,41.94,0,3.77,1.71,6.68,5.87,6.52,3.9-.15,5.19-2.94,5.12-6.61-.09-4.83,0-9.65,0-14.48,0-11.84,4.92-16.2,16.79-14.91,6,3.17,8,8.35,8,14.85-.12,13.12,0,26.24-.07,39.36,0,3.49,1.33,6,4.86,6.36,3.89.36,5.58-2.36,6.06-5.85a33.4,33.4,0,0,0,.1-4.48c0-17.93.22-35.87-.1-53.8-.13-7.27,2.41-12.12,9.27-14.61h0c10.82-.21,15.46,4.28,15.6,15.22.09,6.64,0,13.29.08,19.94.05,3.36,2.13,5.41,5.33,5.37a5,5,0,0,0,5.14-5.07c.16-2.48.06-5,.2-7.47.42-7.7,5.37-12.39,12.81-12.21,7.27.17,11.8,4.82,11.92,12.47s.09,15.29,0,22.94c-.05,4,.55,7.51,5.41,8h0c.4.81,2.62-.38,3-.6,3.73-1.92,2.42-30.91,2-44.67-.13-4.31-.08-4.11-.17-5.79A104.43,104.43,0,0,0,293,250.05c-2-2.09-4.59-1.92-7-1.63"/><path class="cls-2" d="M133.49,237.6c-.06,0-.13.06-.2.13-.25-1.46-1.77-1.85-3.12-2.36-2.3-.85-4.74-1.3-7-2.26-1-.45-2.26-1.08-1.85-2.48.34-1.18,1.56-1,2.52-.94,1.54.07,3.15.36,4.28-.53a4.43,4.43,0,0,0,3.22,2.49,208.1,208.1,0,0,0,22.08,5c1.29.23,2.87.56,3.64-.84,5.58,3.85,11.95,3.9,18.34,3.76a1.35,1.35,0,0,0,1-.56c4.73,2.76,9.65,3.88,14.95,2l.08.09c6.7,3.17,14,2,21,2.89a2.6,2.6,0,0,0,1.71-.41,4.63,4.63,0,0,0,.56.21c5.84,1,11.75,1,17.61,1.58a6.8,6.8,0,0,0,5-1.27"/><path class="cls-2" d="M245.84,249.3c-2.45.06-5-.21-7.11,1.46a27.32,27.32,0,0,0-21.64-.84H217c0-2-1.72-2.2-3-2.27-10-.54-20-2-30.06-2.11-.14,0-.25,0-.38.06-.83-1.08-2.41-.89-3.67-1.12-3.89-.68-7.82-1.14-11.74-1.52-3.28-.32-6.6-1.63-9.88-.07"/><path class="cls-2" d="M99.67,219c1.2,2.42,3.92,2.95,6.13,4.12,1.29.67,3.14,1.16,2.84,2.92-.34,1.94-2.27,1.41-3.67,1.41a13.22,13.22,0,0,0-2.88,0c-.37-2.11-2.47-2.43-4-3.27-3.31-1.86-6.9-3.19-10-5.39-1.3-.93-3.15-2-1.87-3.91,1.14-1.67,2.64-.21,3.94.35"/><path class="cls-2" d="M90.17,215.21c3.13,1.35,5.69,4.22,9.5,3.78"/><path class="cls-3" d="M128,229c9.41,3.36,19.2,5.14,29,6.88"/><path class="cls-1" d="M442.7,291.7c.71.28.38,1.67.53,6,.09,2.69.29,4.5-.81,5.23a2.37,2.37,0,0,1-.57.24,13.64,13.64,0,0,1-3.81.7,13.37,13.37,0,0,1-7.89-1.85c-5.15-3.19-6.18-9.26-6.3-9.86-.58-3-.27-6-.51-9-.18-2.22-.54-4.7-3.27-4.88-2.92-.19-3.78,2.25-4.25,4.66a34.21,34.21,0,0,0-.31,6.48q0,24.48,0,49c0,6-2,10.76-7.65,13.46a13.51,13.51,0,0,1-19.2-10.46,48.48,48.48,0,0,1-.19-6.49q0-29.47,0-58.95a36.3,36.3,0,0,0-.22-6c-.37-2.23-1.1-4.47-3.81-4.48s-3.48,2.14-3.75,4.46a43.71,43.71,0,0,0-.15,5v39a46.07,46.07,0,0,1-.21,6,13.91,13.91,0,0,1-12.45,12.36c-6.67.62-12.2-3.17-14.4-9.89C352,318,352.7,313.42,352.4,309c-.18-2.77.85-6.88-3.65-6.81-4,.06-4.09,3.84-4.15,6.82-.22,10.16.13,20.32-.16,30.47-.27,9.19-6.74,14.89-15.25,13.8-7-.9-11.5-6-11.65-13.93-.24-12.82-.05-25.65-.08-38.47,0-2,.11-4-.07-6-.26-2.8-.22-6.35-4.08-6.26-3.48.07-3.57,3.43-3.71,6.09-.2,3.82-.06,7.66-.07,11.49,0,7,0,14,0,21-.06,5.69-2,10.42-7,13.57l-.57.22c-.3.11-.59.22-.88.3-10.25,3.39-18.52-2-19.41-13.23-.51-6.47-.1-13-.17-19.45a36,36,0,0,0-.19-5c-.29-2-1.07-3.55-3.35-3.64s-3.67,1.3-4.13,3.5-.23,4.64-.39,7c-.6,8.22-6,13.36-13.88,13.23-7.36-.12-12.76-5.67-13-13.54-.17-5.81,0-11.63-.05-17.45a17.09,17.09,0,0,0-.45-4.95c-.61-2-1.63-3.71-4.07-3.7-2.24,0-3.15,1.62-3.77,3.42-.82,2.4-.68,4.92-.69,7.41,0,17.12-.1,34.25,0,51.37.05,5.34-1.34,9.76-5.42,13.13l-.51.42c-.2.11-.39.21-.59.3-9.89,5-20-.59-20.4-11.81-.48-12.29-.09-24.61-.15-36.91a31.35,31.35,0,0,0-.25-5.48c-.39-2.16-1.42-3.78-3.83-3.88-2.63-.11-3.35,1.82-3.65,3.89-.47,3.31-.19,6.64-.23,10,0,2.16,0,4.32,0,6.48-.45,11.38-7.92,17-18.5,14.15h0c-.32-.07-.63-.17-1-.27l-.19-.06c-6.34-3.21-8.05-9-8.18-15.41-.26-12.46-.06-24.93-.1-37.39a18.09,18.09,0,0,0-.45-5.44c-.48-1.55-1.42-2.72-3.14-2.73-2,0-3,1.27-3.23,3.13-.49,4.3-.17,8.63-.22,12.95,0,3.65.06,7.31-1.06,10.87-2.07,6.57-7.7,10.56-14.3,10.07-6.3-.47-11.53-5.67-12.39-12.35-.31-2.48-.1-5-.28-7.47-.16-2.26-.67-4.55-3.21-5s-3.78,1.53-4.54,3.69c-.68,15.64-.14,31.27-.26,46.91,0,.68,0,1.34-.1,2v0a16.39,16.39,0,0,1-.88,4.22h0a12.8,12.8,0,0,1-4.8,6.3c-7.53,5.37-16.56,3-20.37-5.45-1.62-3.57-1.83-7.38-1.83-11.24v-58.4a41.82,41.82,0,0,0,0-4.48c-.29-2.63.8-6.51-3.31-6.64-4.26-.14-3.36,3.79-3.47,6.4-.22,5,0,10-.08,15a30.58,30.58,0,0,1-.65,6.94c-2.07,8.81-9.19,13.09-18.07,10.86-.23-.08-.47-.16-.69-.25l-1.05-.44h0c0-.69-.11-1.75-.25-3.05-.23-2.19-.41-2.66-.53-4.05a29.73,29.73,0,0,1,.1-5c.08-1.3.24-3,.53-5a9.15,9.15,0,0,1,2.44,3.74c.59,1.81.35,3.25,1.47,4a3.39,3.39,0,0,0,1.84.47c2.54,0,3.9-1.59,4.47-3.9s.37-4.95.39-7.43c0-4.8-.08-9.61,0-14.42.22-9.14,4.73-13.94,13.52-14.48l.89,0h.58c8.37,1.92,11.9,6.26,11.94,15.25.11,21.14,0,42.29,0,63.44a23.84,23.84,0,0,0,.51,6.95c.55,1.82,1.43,3.59,3.69,3.4s3-1.84,3.37-3.79a30.32,30.32,0,0,0,.3-5.47c0-13.33-.08-26.65,0-40,.06-6.67,1.79-12.56,8.54-15.65l1-.22.95-.18c10.32-1.7,17,3.89,17.47,14.95.08,1.83,0,3.66.21,5.47.3,2.13,1.09,4,3.59,4,2.35,0,3.49-1.7,4-3.8.56-2.45.21-5,.38-7.44.43-6.23-1.25-12.63,1.48-18.68.12-.16.24-.32.38-.48a7.23,7.23,0,0,1,.55-.69c5.55-6.8,11.27-7.69,18.8-3,.27.17.54.34.81.53l.48.32c3.46,2.93,4.46,6.78,4.44,11.15,0,12.62,0,25.25,0,37.87,0,2.16-.12,4.35.7,6.4.71,1.79,1.78,3.33,4,3.1s2.94-2,3.1-3.91c.44-5.3.12-10.62.21-15.94.07-3.72.65-7.25,3.08-10.28,4.08-5,9.25-6.43,15.34-4.94l.28.07.46.22c6.88,3.36,8.7,9.57,8.81,16.6.18,11.29,0,22.58.07,33.88a27,27,0,0,0,.29,5.46c.36,1.73,1.11,3.26,3.1,3.36s3-1.2,3.65-2.85c.95-2.38.85-4.89.85-7.38,0-17.6-.07-35.21,0-52.81.06-8.13,2.49-11.59,9.76-14.41l.44-.17.32,0c9.12-1.06,14.33,2.49,16.56,11.4,1.65,6.55.55,13.25,1,19.86.19,3.06-1.14,7.88,3.65,7.79,4.3-.08,3.12-4.73,3.31-7.67.64-9.72,5.82-15.73,13.84-15.82,8.31-.09,13.57,4.61,14,12.91.38,7.14.07,14.3.13,21.44a13.59,13.59,0,0,0,.63,5.42,3.9,3.9,0,0,0,3.84,2.66c2.06-.06,2.8-1.56,3.19-3.26a33.22,33.22,0,0,0,.35-6.46c.27-11.12-.61-22.26.5-33.38.08-.22.16-.43.25-.64.22-.56.46-1.08.72-1.59h0c3.12-6.36,8.36-9.5,14.28-8.44,7.54,1.36,12,6.79,12.18,15.4.24,13.81,0,27.63.08,41.45a19.93,19.93,0,0,0,.45,5.45,3,3,0,0,0,3.33,2.38,2.9,2.9,0,0,0,2.76-2.45,18.84,18.84,0,0,0,.4-5q0-12.48,0-25a30.22,30.22,0,0,1,1.26-9.36c2.12-6.56,7.67-10.16,14.62-9.49,6.55.63,11.21,5.24,12,12,.49,4.3,0,8.65.3,13,.13,2.09.65,4.09,2.78,4.92,2.35.93,3.85-.32,4.57-2.5a18.3,18.3,0,0,0,.49-5.95q0-20,0-39.95a47.81,47.81,0,0,1,.15-5.49c.74-6.54,4.94-11.16,11.22-12.39,5.39-1.05,11.2,1.84,14.25,7.08,2.1,3.6,2.43,7.54,2.42,11.58q0,30,0,59.93a21.65,21.65,0,0,0,.42,6c.5,1.76,1.58,3,3.56,2.79,1.7-.2,2.52-1.42,2.76-3.09a34.52,34.52,0,0,0,.2-5q0-23.22,0-46.45a30.92,30.92,0,0,1,1.69-11.29,13.7,13.7,0,0,1,14-9,13.92,13.92,0,0,1,12,11.65c.45,2.64.17,5.32.38,8,.24,2.83.37,6.31,4.17,6.21a5.62,5.62,0,0,0,2.08-.65C442.09,292,442.31,291.55,442.7,291.7Z"/></g><g id="cake-2" data-name="cake"><g id="cake-3" data-name="cake"><path d="M179.58,87.41a21.22,21.22,0,0,1-3.28,10.74,19.84,19.84,0,0,1-8.42,7.23,28.79,28.79,0,0,1-12.39,2.56q-11.48,0-18.08-7.49T130.8,79.32V76.44a35.34,35.34,0,0,1,3-15,22.59,22.59,0,0,1,8.59-9.93,24,24,0,0,1,13-3.5q10.6,0,17,5.58T179.7,69h-14q-.16-5.32-2.68-7.64T155.33,59c-3.49,0-6.05,1.3-7.68,3.92s-2.48,6.79-2.56,12.52V79.6q0,9.33,2.34,13.33t8.06,4q4.84,0,7.41-2.28t2.72-7.24Z"/><path d="M219.32,96.25H200.07l-3.36,10.89h-15l21.37-58.27h13.2l21.53,58.27H222.72ZM203.43,85.41H216L209.68,65.2Z"/><path d="M261.86,85.45l-5.76,6.32v15.37H242.05V48.87H256.1V74.56l4.88-7.4,12.56-18.29h17.37L271.22,74.64l19.69,32.5H274.27Z"/><path d="M330.61,82.41H308.52V96.33h26.09v10.81H294.47V48.87h40.22V59.72H308.52V72h22.09Z"/><path d="M370.39,91.65a5.77,5.77,0,0,0-2.18-4.8,26.91,26.91,0,0,0-7.67-3.56,73.55,73.55,0,0,1-9-3.57q-11.32-5.55-11.33-15.28a13.74,13.74,0,0,1,2.83-8.55,18.34,18.34,0,0,1,8-5.76,31.13,31.13,0,0,1,11.6-2.06,27.25,27.25,0,0,1,11.27,2.24,17.87,17.87,0,0,1,7.74,6.38,16.71,16.71,0,0,1,2.76,9.47h-14a7,7,0,0,0-2.18-5.52,8.5,8.5,0,0,0-5.91-2,9.59,9.59,0,0,0-5.94,1.66,4.89,4.89,0,0,0,.22,8.28q2.4,1.81,8.45,3.76A52.63,52.63,0,0,1,375,76.56q9.45,5.44,9.44,15a14.2,14.2,0,0,1-5.76,12q-5.76,4.37-15.81,4.37A31.41,31.41,0,0,1,350,105.4a19.42,19.42,0,0,1-8.65-7,18.17,18.17,0,0,1-2.9-10.18h14.09q0,4.68,2.42,6.9t7.86,2.22a9.05,9.05,0,0,0,5.51-1.5A5,5,0,0,0,370.39,91.65Z"/><path class="cls-4" d="M442,256.05c.13.17.38.33.38.52,1.09,23.44,1.41,47-.08,70.31-.81,12.58-6.86,20.46-12.56,27.35-14.92,18-31.89,27.3-49.11,35.06a248.86,248.86,0,0,1-72.16,19.93c-2.48.31-4.94.79-7.42,1.19-.78-2.44-.69-5.13-.68-7.78.05-22.43,0-44.87,0-67.3,0-4.15,0-8.32,1.58-11.81,4.49-5.95,6.23-13.85,6.11-23.79-.22-19.19,0-38.41-.1-57.61,0-5.6,2.48-9.06,5.29-13.54,15.95-25.52,57.94-26.69,65.59-26.9a72.14,72.14,0,0,1,11,.34c14.5,1.62,17.09,6.63,30.43,8.47,10.74,1.49,13.61-1.13,17.16,2,4,3.48,2.87,8.94,3.06,21.77A208.36,208.36,0,0,0,442,256.05Z"/><path class="cls-3" d="M302,323.52c1.2-21.71,1.05-39.59.59-52.83-.29-8.08-.67-13.82-5.11-17.74-7-6.17-17.1-1.67-38.47.32-14.09,1.31-8.22-.78-52.37-.87-3.25,0-15.12.07-38.86.23-26.24.17-26.05.19-26.62.14-30.76-2.7-44.29-16.86-55.77-10.14-2.91,1.71-6.48,5.22-8.29,13.35-1.78,2.14-1,5.38-1,8.09-.08,16.78.13,33.56-.1,50.32-.17,12.31,2.12,22.51,7.21,30.64a98.09,98.09,0,0,0,18.7,22.15c5.86,5.11,13.46,10.44,27.12,17a239.1,239.1,0,0,0,55.9,18.45,342.64,342.64,0,0,0,66.33,9.32A344.45,344.45,0,0,0,301,410.41a51.84,51.84,0,0,0,1-8.46Q302,362.74,302,323.52Z"/><path class="cls-1" d="M401.05,226.44c-.27-.26-.16-.47-.44-.75-1.36-1.41-6.05,1.18-6.62,1.35-27.88,8.22-56.44,12.49-85.38,14.54-6.24.44-13.75,4.55-18.73.47-.15-.13-.16-.36-.24-.54l-.11-.26A158.72,158.72,0,0,0,272,207.82c-1.5-2.17-3.14-4.27-4.59-6.49a15,15,0,0,0-4.72-4.41c-6.4-5-14.05-17.87-19.16-24-12.67-15.3-30.64-14.68-30-18.53.78-4.59,26.24-4.5,47.24-4.42,1.25,0,7.11,0,15.61.3,7,.25,23.07,1,40.39,2.47,31.89,2.77,63.37,8,93.84,19.39a81.85,81.85,0,0,1,23.07,12.72,24.92,24.92,0,0,1,7.65,9.62c1.28,3,1.44,5.7,1.77,9.65.52,6.15.78,9.23-.1,11-4.2,8.58-24,8.41-25.86,8.39-2.65,0-4.58-.33-7.53.51C405.7,225.12,402.24,227.59,401.05,226.44Z"/><path class="cls-1" d="M443,215.12c-.13,20.07.11,40.16.14,60.23,0,.16,0,.49,0,.65,0,3.83-.12,7.65-.17,11.48,0,3.65-1.55,6.35-5.42,6.4s-5.37-2.84-5.54-6.35c-.13-2.82.06-5.66-.05-8.49a12.1,12.1,0,0,0-24.05-1.77,40.2,40.2,0,0,0-.6,6.93c-.06,16.65,0,33.29,0,49.94,0,6.54-1.47,9.13-5.34,8.75-5.72-.56-5.24-5.05-5.25-9.06,0-21.14.06-42.28,0-63.42a30.61,30.61,0,0,0-.22-5c-1.07-6.67-6.65-11.44-12.73-11-6.82.46-11.59,5.36-11.69,12.52-.15,12,0,24,0,35.95,0,4.16,0,8.33,0,12.49,0,3.82-1.21,6.77-5.55,6.64s-5.47-3.1-5.46-6.88c0-4.16.08-8.32,0-12.48-.15-6.53-4.45-11.23-10.6-11.76-6.88-.59-12.2,3.17-13.48,9.82-1.33,6.92-.37,14-.56,20.92-.13,5.32,0,10.65-.05,16,0,3.36-1.64,5.44-5.07,5.51-3.7.07-5.34-2-5.34-5.69,0-15.31.07-30.62,0-45.94,0-7.94-3.91-12.75-10.86-13.89-5.89-1-6.06,7.45-13.86,9.6-.45.12-.66-.6-.87-.95a7.06,7.06,0,0,1-.66-2.57,190.13,190.13,0,0,0-6.34-30.61c-.48-1.6-1.09-3.23-.46-5a.89.89,0,0,0,.08-.17c0-.06,0-.13.07-.18,2.9-2.94,7.74-1.85,11.65-2.1,30.63-2,60.83-6.44,90.28-15.23,2.44-.73,7.08-.69,6.17-4"/><path class="cls-2" d="M75.81,209.17c.88,24.31.17,48.66.09,73V283c.11,1.15.29,2.31.31,3.46,0,4,1,7.58,5.89,7.44,4.74-.13,5.85-3.51,5.81-7.62-.06-6.31,0-12.62,0-18.92,0-9.51,3.75-13.62,13.14-14.51,8.5,2.36,11.14,5.78,11.14,14.57q0,33.42,0,66.83a17.81,17.81,0,0,0,.48,4.91,4.78,4.78,0,0,0,5.19,3.77,5.23,5.23,0,0,0,5.15-4.54,19.51,19.51,0,0,0,.15-4q0-22.18,0-44.38c0-5.92,2.33-10.5,7.84-13.15h0c10.89-2,16.81,2.94,16.85,14.11,0,1.33,0,2.66,0,4-.11,3.73,1,6.88,5.26,6.9,4.47,0,5.75-3.2,5.74-7.14,0-3.16-.11-6.32,0-9.47.21-5.09-.89-10.3,1.2-15.25,6.66-6.85,10.06-7.39,18.91-3,3.3,3.25,4.27,7.2,4.22,11.79-.18,14-.11,27.95,0,41.93,0,3.77,1.71,6.68,5.87,6.52,3.9-.15,5.19-2.94,5.12-6.61-.09-4.82,0-9.65,0-14.48,0-11.84,4.92-16.2,16.79-14.91,6,3.18,8,8.35,8,14.85-.12,13.12,0,26.24-.07,39.36,0,3.49,1.33,6,4.86,6.36,3.89.36,5.58-2.35,6.06-5.85a33.29,33.29,0,0,0,.1-4.47c0-17.94.22-35.88-.1-53.81-.13-7.27,2.41-12.12,9.27-14.6h0c10.82-.22,15.46,4.27,15.6,15.21.09,6.65,0,13.3.08,19.94.05,3.36,2.13,5.42,5.33,5.37a5,5,0,0,0,5.14-5.07c.16-2.48.06-5,.2-7.46.42-7.71,5.37-12.4,12.81-12.22,7.27.17,11.8,4.82,11.92,12.48s.09,15.28,0,22.93c-.05,4,.55,7.51,5.41,8h0c.4.81,2.62-.38,3-.6,3.73-1.92,2.42-30.91,2-44.67-.13-4.3-.08-4.11-.17-5.79A104.5,104.5,0,0,0,293,248.1c-2-2.09-4.59-1.92-7-1.63-13.38,1.59-26.81.55-40.21.89-2.45.06-5-.21-7.11,1.45a27.32,27.32,0,0,0-21.64-.84H217c0-2-1.72-2.21-3-2.28-10-.54-20-2-30.06-2.11-.14,0-.25,0-.38.06-.83-1.07-2.41-.89-3.67-1.11-3.89-.69-7.82-1.15-11.74-1.53-3.28-.31-6.6-1.63-9.88-.07-7.72-4.24-16.13-5.28-24.78-5.28-.06,0-.13.06-.2.14-.25-1.47-1.77-1.86-3.12-2.37-2.3-.85-4.74-1.3-7-2.26-1-.45-2.26-1.08-1.85-2.48.34-1.18,1.56-1,2.52-.94,1.54.07,3.15.36,4.28-.53a4.43,4.43,0,0,0,3.22,2.49,208.1,208.1,0,0,0,22.08,5c1.29.23,2.87.56,3.64-.84,5.58,3.85,11.95,3.9,18.34,3.76a1.35,1.35,0,0,0,1-.56c4.73,2.76,9.65,3.88,14.95,2l.08.09c6.7,3.17,14,2,21,2.89a2.6,2.6,0,0,0,1.71-.41,4.63,4.63,0,0,0,.56.21c5.84,1,11.75,1,17.61,1.58a6.8,6.8,0,0,0,5-1.27c1.44,1.39,3.35,1.37,5.18,1.38,13.56.08,27.11.11,40.67,0,2.35,0,4.78-.1,6.47-2.09a2.51,2.51,0,0,0,.26-.31h0a10.93,10.93,0,0,0-.35-2.9,191.41,191.41,0,0,0-19.39-35.62c-.62-.91-1.25-1.55-2.16-2.66-5-6.1-9.18-10.89-13.24-15.46-12-13.47-10.22-10.79-17.49-19.09A64.63,64.63,0,0,0,224.61,154c-.93-.64-1.72-1.14-2.24-1.46l-1-1.38c-2.49.14-5.88.34-9.9.64-6,.45-10.55.92-14.14,1.29-3.12.32-7.84.8-13.87,1.57-9.15,1.16-16.17,2.31-18.56,2.71-9.17,1.53-15.82,2.64-24.57,4.92-5.13,1.33-9.35,2.64-12.32,3.62h0c-10.39,2.53-20.46,5.89-29.81,11.17-2.06,1.06-4.17,2-6.17,3.19C81,186.71,75.31,195.45,75.81,209.17m32.83,14.91c-.34,1.94-2.27,1.41-3.67,1.41a13.22,13.22,0,0,0-2.88,0c-.37-2.11-2.47-2.43-4-3.27-3.31-1.86-6.9-3.19-10-5.39-1.3-.93-3.15-2-1.87-3.91,1.14-1.67,2.64-.21,3.94.35,3.13,1.35,5.69,4.22,9.5,3.78,1.2,2.42,3.92,3,6.13,4.12C107.09,221.83,108.94,222.32,108.64,224.08Zm191.93,61.27c-.13-4.31-.08-4.11-.17-5.79A104.71,104.71,0,0,0,293,246.5c-2-2.09-4.59-1.92-7-1.63-2.89.34-5.79.56-8.69.7a352.13,352.13,0,0,1-55.84,4.33c-66.26,0-122.9-17.37-145.7-41.9.86,24.17.16,48.37.08,72.58v.82c.11,1.15.29,2.31.31,3.46,0,4,1,7.58,5.89,7.44,4.74-.13,5.85-3.51,5.81-7.62-.06-6.31,0-12.62,0-18.92,0-9.51,3.75-13.62,13.14-14.51,8.5,2.36,11.14,5.78,11.14,14.57q0,33.42,0,66.83a17.81,17.81,0,0,0,.48,4.91,4.78,4.78,0,0,0,5.19,3.77,5.23,5.23,0,0,0,5.15-4.54,19.51,19.51,0,0,0,.15-4q0-22.18,0-44.38c0-5.92,2.33-10.5,7.84-13.15h0c10.89-2,16.81,2.94,16.85,14.11,0,1.33,0,2.66,0,4-.11,3.74.95,6.89,5.26,6.9,4.47,0,5.75-3.19,5.74-7.13,0-3.16-.11-6.32,0-9.47.21-5.09-.89-10.3,1.2-15.25,6.66-6.85,10.06-7.39,18.91-3,3.3,3.25,4.27,7.2,4.21,11.79-.17,14-.1,27.95,0,41.93,0,3.77,1.71,6.68,5.87,6.52,3.9-.15,5.19-2.94,5.12-6.61-.09-4.83,0-9.65,0-14.48,0-11.84,4.92-16.2,16.79-14.91,6,3.17,8,8.35,7.95,14.85-.11,13.12,0,26.24-.06,39.36,0,3.49,1.33,6,4.86,6.36,3.89.36,5.58-2.36,6.06-5.85a33.4,33.4,0,0,0,.1-4.48c0-17.93.22-35.87-.1-53.8-.13-7.27,2.41-12.12,9.27-14.61h.71c10.31,0,14.75,4.53,14.89,15.23.09,6.64,0,13.29.08,19.94.05,3.36,2.13,5.41,5.33,5.37a5,5,0,0,0,5.14-5.07c.16-2.48.06-5,.2-7.47.42-7.7,5.37-12.39,12.81-12.21,7.27.17,11.8,4.82,11.92,12.47s.09,15.29,0,22.94c-.05,4,.55,7.51,5.41,8a.59.59,0,0,0,.58.28,7,7,0,0,0,2.46-.88C302.28,328.1,301,299.11,300.57,285.35Z"/><path class="cls-5" d="M210,152.22c-1.93,1.5-4.14.59-6.23.72C205.72,151.9,207.86,152.18,210,152.22Z"/><path class="cls-3" d="M176,236.89l16,2,23,2,22,1c15.83,0,31.65.06,47.48,0a41.66,41.66,0,0,0,5.4-.73c11.73.25,23.38-1.09,35-2.4,20.1-2.26,40.15-5.18,59.69-10.71,4.79-1.35,9.58-2.73,14.33-4.22,2.15-.68,4.13-.84,4.93,1.62s-.53,3.89-3,4.71a326.14,326.14,0,0,1-48.87,11.65c-19.49,3.19-39.17,4.95-58.87,6.26-18,1.14-36,.81-54,.84a151.49,151.49,0,0,0-21.92-1c-4.69-2.16-9.79-.64-14.69-1.62-6-1.18-12.21-1-18.34-1.36-6.28-1.92-12.86-1.86-19.28-2.89-2.23-.36-4.51-.59-6.74-1.06L133.12,236c-3.13-1-6.24-2.05-9.39-3-2.68-.79-5.61-1.68-4.53-5.2,1-3.18,3.75-1.6,5.91-1.25L128,227c9.41,3.37,19.2,5.14,29,6.88Z"/><path class="cls-3" d="M102.15,226c-5.07-2.81-10.11-5.68-15.22-8.41-2.38-1.28-3.88-3.15-2.5-5.6,1.58-2.82,3.82-1.39,6-.13,3.14,1.85,6.43,3.45,9.66,5.16,2.24,1,4.43,2.17,6.72,3.06s4.49,2.07,4,4.83c-.57,3-3.33,2.08-5.33,2.05A12,12,0,0,1,102.15,226Z"/><path class="cls-1" d="M442.7,289.76c.71.27.38,1.66.53,6,.09,2.69.29,4.49-.81,5.22a2.37,2.37,0,0,1-.57.24,13.64,13.64,0,0,1-3.81.7,13.35,13.35,0,0,1-7.89-1.84c-5.15-3.19-6.18-9.27-6.3-9.87-.58-3-.27-6-.51-9-.18-2.22-.54-4.7-3.27-4.88-2.92-.19-3.78,2.25-4.25,4.66a34.21,34.21,0,0,0-.31,6.48q0,24.48,0,49c0,6-2,10.76-7.65,13.46a13.51,13.51,0,0,1-19.2-10.46,48.48,48.48,0,0,1-.19-6.49q0-29.48,0-58.95a36.3,36.3,0,0,0-.22-6c-.37-2.23-1.1-4.47-3.81-4.48s-3.48,2.14-3.75,4.46a43.71,43.71,0,0,0-.15,5v39a46.07,46.07,0,0,1-.21,6,13.91,13.91,0,0,1-12.45,12.36c-6.67.62-12.2-3.17-14.4-9.89C352,316,352.7,311.47,352.4,307c-.18-2.77.85-6.88-3.65-6.81-4,.06-4.09,3.84-4.15,6.82-.22,10.16.13,20.32-.16,30.47-.27,9.19-6.74,14.89-15.25,13.8-7-.9-11.5-6-11.65-13.93-.24-12.82-.05-25.65-.08-38.47,0-2,.11-4-.07-6-.26-2.8-.22-6.35-4.08-6.26-3.48.07-3.57,3.43-3.71,6.09-.2,3.82-.06,7.66-.07,11.49,0,7,0,14,0,21-.06,5.69-2,10.42-7,13.57L302,339c-.3.11-.59.22-.88.3-10.25,3.39-18.52-2-19.41-13.23-.51-6.47-.1-13-.17-19.45a36,36,0,0,0-.19-5c-.29-2-1.07-3.55-3.35-3.64s-3.67,1.3-4.13,3.5-.23,4.64-.39,7c-.6,8.22-6,13.36-13.88,13.23-7.36-.12-12.76-5.67-13-13.54-.17-5.81,0-11.63-.05-17.45a17.09,17.09,0,0,0-.45-4.95c-.61-2-1.63-3.71-4.07-3.7-2.24,0-3.15,1.62-3.77,3.42-.82,2.4-.68,4.92-.69,7.41,0,17.12-.1,34.25,0,51.37.05,5.34-1.34,9.76-5.42,13.13l-.51.42c-.2.11-.39.21-.59.3-9.89,5-20-.59-20.4-11.81-.48-12.29-.09-24.61-.15-36.91a31.35,31.35,0,0,0-.25-5.48c-.39-2.16-1.42-3.78-3.83-3.88-2.63-.11-3.35,1.82-3.65,3.89-.47,3.31-.19,6.64-.23,10,0,2.16,0,4.32,0,6.48-.45,11.38-7.92,17-18.5,14.15h0c-.32-.07-.63-.17-1-.27l-.19-.06c-6.34-3.21-8.05-9-8.18-15.41-.26-12.46-.06-24.93-.1-37.39a18.09,18.09,0,0,0-.45-5.44c-.48-1.55-1.42-2.72-3.14-2.73-2,0-3,1.27-3.23,3.13-.49,4.3-.17,8.63-.22,12.95,0,3.65.06,7.31-1.06,10.87-2.07,6.57-7.7,10.56-14.3,10.07-6.3-.47-11.53-5.67-12.39-12.35-.31-2.48-.1-5-.28-7.47-.16-2.26-.67-4.55-3.21-5s-3.78,1.53-4.54,3.69c-.68,15.64-.14,31.27-.26,46.91,0,.68,0,1.34-.1,2v0a16.39,16.39,0,0,1-.88,4.22h0a12.8,12.8,0,0,1-4.8,6.3c-7.53,5.37-16.56,3-20.37-5.45-1.62-3.57-1.83-7.38-1.83-11.24v-58.4a41.82,41.82,0,0,0,0-4.48c-.29-2.63.8-6.51-3.31-6.64-4.26-.14-3.36,3.79-3.47,6.4-.22,5,0,10-.08,15a30.58,30.58,0,0,1-.65,6.94c-2.07,8.81-9.19,13.09-18.07,10.86-.23-.08-.47-.16-.69-.25l-1.05-.44h0c0-.69-.11-1.75-.25-3-.23-2.19-.41-2.66-.53-4.05a29.61,29.61,0,0,1,.1-5c.08-1.31.24-3,.53-5a9.21,9.21,0,0,1,2.44,3.74c.59,1.82.35,3.25,1.47,4a3.39,3.39,0,0,0,1.84.47c2.54,0,3.9-1.59,4.47-3.9s.37-4.95.39-7.43c0-4.8-.08-9.61,0-14.42.22-9.14,4.73-13.94,13.52-14.48l.89,0h.58c8.37,1.92,11.9,6.26,11.94,15.25.11,21.14,0,42.29,0,63.44a23.84,23.84,0,0,0,.51,6.95c.55,1.82,1.43,3.59,3.69,3.4s3-1.84,3.37-3.79a30.32,30.32,0,0,0,.3-5.47c0-13.33-.08-26.65,0-40,.06-6.67,1.79-12.56,8.54-15.65l1-.22.95-.18c10.32-1.7,17,3.89,17.47,14.95.08,1.83,0,3.66.21,5.47.3,2.13,1.09,4,3.59,4,2.35,0,3.49-1.7,4-3.8.56-2.45.21-5,.38-7.44.43-6.23-1.25-12.63,1.48-18.68.12-.16.24-.32.38-.48a7.23,7.23,0,0,1,.55-.69c5.55-6.8,11.27-7.69,18.8-3,.27.17.54.34.81.53l.48.32c3.46,2.93,4.46,6.78,4.44,11.15,0,12.62,0,25.25,0,37.87,0,2.16-.12,4.35.7,6.4.71,1.79,1.78,3.33,4,3.1s2.94-2,3.1-3.91c.44-5.3.12-10.62.21-15.94.07-3.72.65-7.25,3.08-10.28,4.08-5.05,9.25-6.43,15.34-4.94l.28.07.46.22c6.88,3.36,8.7,9.57,8.81,16.6.18,11.29,0,22.58.07,33.88a27,27,0,0,0,.29,5.46c.36,1.73,1.11,3.26,3.1,3.36s3-1.2,3.65-2.85c.95-2.38.85-4.89.85-7.38,0-17.6-.07-35.21,0-52.81.06-8.13,2.49-11.59,9.76-14.41l.44-.17.32,0c9.12-1.06,14.33,2.49,16.56,11.4,1.65,6.55.55,13.25,1,19.86.19,3.06-1.14,7.88,3.65,7.79,4.3-.08,3.12-4.73,3.31-7.67.64-9.72,5.82-15.73,13.84-15.82,8.31-.09,13.57,4.61,14,12.91.38,7.14.07,14.3.13,21.44a13.59,13.59,0,0,0,.63,5.42A3.9,3.9,0,0,0,296,330c2.06-.06,2.8-1.56,3.19-3.26a33.22,33.22,0,0,0,.35-6.46c.27-11.12-.61-22.26.5-33.38.08-.22.16-.43.25-.64.22-.56.46-1.08.72-1.59h0c3.12-6.36,8.36-9.5,14.28-8.44,7.54,1.36,12,6.79,12.18,15.4.24,13.81,0,27.63.08,41.45a19.93,19.93,0,0,0,.45,5.45,3,3,0,0,0,3.33,2.38,2.9,2.9,0,0,0,2.76-2.45,18.84,18.84,0,0,0,.4-5q0-12.48,0-25a30.22,30.22,0,0,1,1.26-9.36c2.12-6.56,7.67-10.16,14.62-9.49,6.55.63,11.21,5.24,12,12,.49,4.3,0,8.65.3,13,.13,2.09.65,4.09,2.78,4.92,2.35.93,3.85-.32,4.57-2.5a18.3,18.3,0,0,0,.49-5.95q0-20,0-39.95a47.81,47.81,0,0,1,.15-5.49c.74-6.54,4.94-11.16,11.22-12.39,5.39-1.05,11.2,1.84,14.25,7.08,2.1,3.6,2.43,7.54,2.42,11.58q0,30,0,59.93a21.65,21.65,0,0,0,.42,6c.5,1.76,1.58,3,3.56,2.79,1.7-.2,2.52-1.42,2.76-3.09a34.52,34.52,0,0,0,.2-5q0-23.22,0-46.45a30.92,30.92,0,0,1,1.69-11.29,13.7,13.7,0,0,1,14-9,13.92,13.92,0,0,1,12,11.65c.45,2.64.17,5.32.38,8,.24,2.83.37,6.31,4.17,6.21a5.62,5.62,0,0,0,2.08-.65C442.09,290,442.31,289.6,442.7,289.76Z"/></g></g><g id="drip"><path class="cls-1" d="M442.7,291.93c.71.28.38,1.66.53,6,.09,2.69.29,4.5-.81,5.22a2,2,0,0,1-.57.24,13.58,13.58,0,0,1-3.81.71,13.37,13.37,0,0,1-7.89-1.85C425,299,424,293,423.85,292.34c-.58-3-.27-6-.51-9-.18-2.22-.54-4.7-3.27-4.88-2.92-.19-3.78,2.25-4.25,4.66a34.21,34.21,0,0,0-.31,6.48q0,24.48,0,49c0,6-2,10.76-7.65,13.46a13.51,13.51,0,0,1-19.2-10.46,48.48,48.48,0,0,1-.19-6.49q0-29.48,0-59a36.3,36.3,0,0,0-.22-6c-.37-2.23-1.1-4.47-3.81-4.48s-3.48,2.14-3.75,4.46a43.71,43.71,0,0,0-.15,5v39a46.07,46.07,0,0,1-.21,6,13.91,13.91,0,0,1-12.45,12.36c-6.67.62-12.2-3.17-14.4-9.89-1.44-4.38-.75-8.92-1.05-13.39-.18-2.77.85-6.88-3.65-6.81-4,.06-4.09,3.84-4.15,6.82-.22,10.16.13,20.32-.16,30.47-.27,9.19-6.74,14.89-15.25,13.8-7-.9-11.5-6-11.65-13.93-.24-12.82-.05-25.65-.08-38.47,0-2,.11-4-.07-6-.26-2.8-.22-6.35-4.08-6.26-3.48.07-3.57,3.43-3.71,6.09-.2,3.82-.06,7.66-.07,11.49,0,7,0,14,0,21-.06,5.69-2,10.42-7,13.57l-.57.22c-.3.11-.59.22-.88.3-10.25,3.39-18.52-2-19.41-13.23-.51-6.47-.1-13-.17-19.45a36,36,0,0,0-.19-5c-.29-2-1.07-3.55-3.35-3.64s-3.67,1.3-4.13,3.5-.23,4.64-.39,7c-.6,8.22-6,13.36-13.88,13.23-7.36-.12-12.76-5.67-13-13.54-.17-5.81,0-11.63-.05-17.45a17.09,17.09,0,0,0-.45-4.95c-.61-2-1.63-3.71-4.07-3.7-2.24,0-3.15,1.62-3.77,3.42-.82,2.4-.68,4.92-.69,7.41,0,17.12-.1,34.25,0,51.37.05,5.34-1.34,9.76-5.42,13.13q-.26.23-.51.42c-.2.11-.39.21-.59.3-9.89,5-20-.59-20.4-11.81-.48-12.29-.09-24.61-.15-36.91a31.35,31.35,0,0,0-.25-5.48c-.39-2.16-1.42-3.78-3.83-3.88-2.63-.11-3.35,1.82-3.65,3.89-.47,3.31-.19,6.64-.23,10,0,2.16,0,4.32,0,6.48-.45,11.38-7.92,17-18.5,14.15h0c-.32-.07-.63-.17-1-.27l-.19-.06c-6.34-3.21-8.05-9-8.18-15.41-.26-12.46-.06-24.93-.1-37.39a18.09,18.09,0,0,0-.45-5.44c-.48-1.55-1.42-2.72-3.14-2.73-2,0-3,1.27-3.23,3.13-.49,4.3-.17,8.63-.22,12.95,0,3.65.06,7.31-1.06,10.87-2.07,6.57-7.7,10.56-14.3,10.07-6.3-.47-11.53-5.67-12.39-12.35-.31-2.48-.1-5-.28-7.47-.16-2.26-.67-4.55-3.21-5s-3.78,1.53-4.54,3.69c-.68,15.64-.14,31.27-.26,46.91,0,.68,0,1.34-.1,2v0a16.39,16.39,0,0,1-.88,4.22h0a12.8,12.8,0,0,1-4.8,6.3c-7.53,5.37-16.56,3-20.37-5.45-1.62-3.57-1.83-7.38-1.83-11.24v-58.4a41.82,41.82,0,0,0,0-4.48c-.29-2.63.8-6.51-3.31-6.64-4.26-.14-3.36,3.79-3.47,6.4-.22,5,0,10-.08,15a30.58,30.58,0,0,1-.65,6.94c-2.07,8.81-9.19,13.09-18.07,10.86-.23-.08-.47-.16-.69-.25l-1.05-.44h0c0-.68-.11-1.74-.25-3-.23-2.19-.41-2.66-.53-4a29.71,29.71,0,0,1,.1-5c.08-1.3.24-3,.53-5a9.13,9.13,0,0,1,2.44,3.73c.59,1.82.35,3.25,1.47,4a3.28,3.28,0,0,0,1.84.46c2.54,0,3.9-1.59,4.47-3.9s.37-5,.39-7.43c0-4.8-.08-9.61,0-14.42.22-9.14,4.73-13.94,13.52-14.48l.89,0h.58c8.37,1.92,11.9,6.26,11.94,15.25.11,21.14,0,42.29,0,63.44a23.84,23.84,0,0,0,.51,7c.55,1.82,1.43,3.59,3.69,3.4s3-1.84,3.37-3.79a30.32,30.32,0,0,0,.3-5.47c0-13.33-.08-26.65,0-40,.06-6.67,1.79-12.56,8.54-15.65l1-.22.95-.18c10.32-1.7,17,3.89,17.47,14.95.08,1.83,0,3.66.21,5.47.3,2.13,1.09,4,3.59,4,2.35,0,3.49-1.7,4-3.8.56-2.45.21-5,.38-7.44.43-6.23-1.25-12.63,1.48-18.68.12-.16.24-.32.38-.48a7.23,7.23,0,0,1,.55-.69c5.55-6.8,11.27-7.69,18.8-3,.27.17.54.34.81.53l.48.32c3.46,2.93,4.46,6.78,4.44,11.15,0,12.62,0,25.25,0,37.87,0,2.16-.12,4.35.7,6.4.71,1.79,1.78,3.33,4,3.1s2.94-2,3.1-3.91c.44-5.3.12-10.62.21-15.94.07-3.72.65-7.25,3.08-10.28,4.08-5.05,9.25-6.43,15.34-4.94l.28.07.46.22c6.88,3.36,8.7,9.57,8.81,16.6.18,11.29,0,22.58.07,33.88a27,27,0,0,0,.29,5.46c.36,1.73,1.11,3.26,3.1,3.36s3-1.2,3.65-2.85c.95-2.38.85-4.89.85-7.38,0-17.6-.07-35.21,0-52.81.06-8.13,2.49-11.59,9.76-14.41l.44-.17.32,0c9.12-1.06,14.33,2.49,16.56,11.4,1.65,6.55.55,13.25,1,19.86.19,3.06-1.14,7.88,3.65,7.79,4.3-.08,3.12-4.73,3.31-7.67.64-9.72,5.82-15.73,13.84-15.82,8.31-.09,13.57,4.61,14,12.91.38,7.14.07,14.3.13,21.44a13.59,13.59,0,0,0,.63,5.42,3.9,3.9,0,0,0,3.84,2.66c2.06-.06,2.8-1.56,3.19-3.26a33.22,33.22,0,0,0,.35-6.46c.27-11.12-.61-22.26.5-33.38.08-.22.16-.43.25-.64.22-.56.46-1.08.72-1.59h0c3.12-6.36,8.36-9.5,14.28-8.44,7.54,1.36,12,6.79,12.18,15.4.24,13.81,0,27.63.08,41.45a19.93,19.93,0,0,0,.45,5.45,3,3,0,0,0,3.33,2.38,2.9,2.9,0,0,0,2.76-2.45,18.84,18.84,0,0,0,.4-5q0-12.48,0-25a30.22,30.22,0,0,1,1.26-9.36c2.12-6.56,7.67-10.16,14.62-9.49,6.55.63,11.21,5.24,12,12,.49,4.3,0,8.65.3,13,.13,2.09.65,4.09,2.78,4.92,2.35.93,3.85-.32,4.57-2.5a18.3,18.3,0,0,0,.49-5.95q0-20,0-39.95a47.81,47.81,0,0,1,.15-5.49c.74-6.54,4.94-11.16,11.22-12.39,5.39-1.05,11.2,1.84,14.25,7.08,2.1,3.6,2.43,7.54,2.42,11.58q0,30,0,59.93a21.65,21.65,0,0,0,.42,6c.5,1.76,1.58,3,3.56,2.79,1.7-.2,2.52-1.42,2.76-3.09a34.52,34.52,0,0,0,.2-5q0-23.22,0-46.45A30.92,30.92,0,0,1,407.13,277a13.7,13.7,0,0,1,14-9,13.92,13.92,0,0,1,12,11.65c.45,2.64.17,5.32.38,8,.24,2.83.37,6.31,4.17,6.21a5.72,5.72,0,0,0,2.08-.64C442.09,292.18,442.31,291.77,442.7,291.93Z"/><path class="cls-2" d="M300.57,287.3c-.13-4.31-.08-4.11-.17-5.79a100.65,100.65,0,0,0-1.88-14.63,79.75,79.75,0,0,0-5.46-16.11,47.81,47.81,0,0,1-7.54.77,47.27,47.27,0,0,1-8.8-.64c-22.36.91-41.16,1-55.22.95-22.1-.15-33.43-.26-46.78-2.1-18-2.48-13.57-3.92-45.45-10.21-19.57-3.87-28-4.65-37.79-11.75A55.77,55.77,0,0,1,75.8,210c.24,11.88.47,24,.39,36.27-.07,12.1-.27,24.2-.31,36.31v.82c.11,1.15.29,2.31.31,3.46,0,4,1,7.58,5.89,7.44,4.74-.13,5.85-3.51,5.81-7.62-.06-6.31,0-12.62,0-18.92,0-9.51,3.75-13.62,13.14-14.51,8.5,2.36,11.14,5.78,11.14,14.57q0,33.42,0,66.83a17.81,17.81,0,0,0,.48,4.91,4.78,4.78,0,0,0,5.19,3.77,5.23,5.23,0,0,0,5.15-4.54,19.51,19.51,0,0,0,.15-4q0-22.18,0-44.38c0-5.92,2.33-10.5,7.84-13.15h0c10.89-2,16.81,2.94,16.85,14.11,0,1.33,0,2.66,0,4-.11,3.74.95,6.89,5.26,6.9,4.47,0,5.75-3.19,5.74-7.13,0-3.16-.11-6.32,0-9.47.21-5.09-.89-10.3,1.2-15.25,6.66-6.85,10.06-7.39,18.91-3,3.3,3.25,4.27,7.2,4.21,11.79-.17,14-.1,27.95,0,41.93,0,3.77,1.71,6.68,5.87,6.52,3.9-.15,5.19-2.94,5.12-6.61-.09-4.83,0-9.65,0-14.48,0-11.84,4.92-16.2,16.79-14.91,6,3.17,8,8.35,7.95,14.85-.11,13.12,0,26.24-.06,39.36,0,3.49,1.33,6,4.86,6.36,3.89.36,5.58-2.36,6.06-5.85a33.4,33.4,0,0,0,.1-4.48c0-17.93.22-35.87-.1-53.8-.13-7.27,2.41-12.12,9.27-14.61h.71c10.31,0,14.75,4.53,14.89,15.23.09,6.64,0,13.29.08,19.94.05,3.36,2.13,5.41,5.33,5.37a5,5,0,0,0,5.14-5.07c.16-2.48.06-5,.2-7.47.42-7.7,5.37-12.39,12.81-12.21,7.27.17,11.8,4.82,11.92,12.47s.09,15.29,0,22.94c-.05,4,.55,7.51,5.41,8a.59.59,0,0,0,.58.28,7,7,0,0,0,2.46-.88C302.28,330.05,301,301.06,300.57,287.3Z"/><path class="cls-1" d="M441.38,224.18c3.05,2.2.43,6.11.51,22.21.05,10.4,1.24,25.41,1.24,34.49,0,.09,0,.24,0,.65,0,3.83-.12,7.65-.17,11.48,0,3.65-1.55,6.35-5.42,6.4s-5.37-2.84-5.54-6.35c-.13-2.82.06-5.66-.05-8.49a12.1,12.1,0,0,0-24.05-1.77,40.2,40.2,0,0,0-.6,6.93c-.06,16.65,0,33.29,0,49.94,0,6.54-1.47,9.13-5.34,8.75-5.72-.56-5.24-5.05-5.25-9.06,0-21.14.06-42.28,0-63.42a30.61,30.61,0,0,0-.22-5c-1.07-6.67-6.65-11.44-12.73-11-6.82.46-11.59,5.36-11.69,12.52-.15,12,0,24,0,36,0,4.16,0,8.33,0,12.49,0,3.82-1.21,6.77-5.55,6.64s-5.47-3.1-5.46-6.88c0-4.16.08-8.32,0-12.48-.15-6.53-4.45-11.23-10.6-11.76-6.88-.6-12.2,3.17-13.48,9.82-1.33,6.92-.37,13.95-.56,20.92-.13,5.32,0,10.65-.05,16,0,3.36-1.64,5.44-5.07,5.51-3.7.07-5.34-2-5.34-5.69,0-15.31.07-30.62,0-45.94,0-7.94-3.91-12.76-10.86-13.89a4.8,4.8,0,0,0-2.09.08c-6.23,1.72-9.81,10.17-11.77,9.52-.72-.25-.95-1.74-.71-9.62.14-4.52.33-7.66.45-10.16.19-3.8-.77-11.14-1.19-15.66-.11-1.17-.31-3.36,1-4.77a5.36,5.36,0,0,1,3.9-1.33c9.87-.11,58.33-6.4,72.08-9.93,7.72-2,13.38-3.86,18.2-5.3,3.46-1,3.33-1.42,6.14-2.43,8.05-2.92,12.57-3.18,19.94-4.75C436,225.56,438.48,222.09,441.38,224.18Z"/></g></svg>
