<?xml version="1.0" encoding="utf-8"?>
<!-- Generator: Adobe Illustrator 23.1.0, SVG Export Plug-In . SVG Version: 6.00 Build 0)  -->
<svg version="1.1" id="Layer_1" xmlns="http://www.w3.org/2000/svg" xmlns:xlink="http://www.w3.org/1999/xlink" x="0px" y="0px"
	 viewBox="0 0 523.3 478.3" style="enable-background:new 0 0 523.3 478.3;" xml:space="preserve">
		<style>
			#drip {
			animation: drip 1.5s ease-in-out alternate infinite;
			transform-origin: center;
			animation-delay: 1s;
			}
			@keyframes drip {
			from {
			transform: translate(0px, 0px);
			}
			to {
			transform: translate(0px, 11px);
			}
			}
		</style><style type="text/css">
	.st0{fill:#FF1493;}
	.st1{fill:#FF69B4;}
	.st2{fill:#FFFFFF;}
	.st3{fill:#FFDB54;}
	.st4{fill:#FFEBB5;}
	.st5{fill:#F094BE;}
</style>
<title>cakedrip</title>
<g id="cake">
	<path class="st0" d="M308.6,243.5c-6.2,0.4-13.8,4.6-18.7,0.5c-0.1-0.1-0.2-0.4-0.2-0.5s-0.1-0.2-0.1-0.3
		c-4.5-11.8-10.4-23-17.5-33.4c-1.5-2.2-3.1-4.3-4.6-6.5c-1.2-1.8-2.8-3.3-4.7-4.4c-6.4-5-14.1-17.9-19.2-24
		c-12.7-15.3-30.6-14.7-30-18.5c0.8-4.6,26.2-4.5,47.2-4.4c1.3,0,7.1,0,15.6,0.3c7,0.3,23.1,1,40.4,2.5c31.9,2.8,63.4,8,93.8,19.4
		c8.3,3,16.1,7.3,23.1,12.7c6.2,5,9.5,10.9,9.4,19.3c0,3.7-0.1,7.3-0.1,11"/>
	<path class="st0" d="M443,217.1c-0.1,20.1,0.1,40.2,0.1,60.2c0,0.2,0,0.5,0,0.6c0,3.8-0.1,7.6-0.2,11.5c0,3.6-1.5,6.4-5.4,6.4
		s-5.4-2.8-5.5-6.4c-0.1-2.8,0.1-5.7,0-8.5c-0.1-6.7-5.5-12-12.2-12c-5.9,0.1-10.9,4.4-11.8,10.2c-0.4,2.3-0.6,4.6-0.6,6.9
		c-0.1,16.6,0,33.3,0,49.9c0,6.5-1.5,9.1-5.3,8.8c-5.7-0.6-5.2-5-5.3-9.1c0-21.1,0.1-42.3,0-63.4c0.1-1.7,0-3.3-0.2-5
		c-1.1-6.7-6.6-11.4-12.7-11c-6.8,0.5-11.6,5.4-11.7,12.5c-0.1,12,0,24,0,36c0,4.2,0,8.3,0,12.5c0,3.8-1.2,6.8-5.5,6.6
		s-5.5-3.1-5.5-6.9c0-4.2,0.1-8.3,0-12.5c-0.1-6.5-4.5-11.2-10.6-11.8c-6.9-0.6-12.2,3.2-13.5,9.8c-1.3,6.9-0.4,14-0.6,20.9
		c-0.1,5.3,0,10.6,0,16c0,3.4-1.6,5.4-5.1,5.5c-3.7,0.1-5.3-2-5.3-5.7c0-15.3,0.1-30.6,0-45.9c0-7.9-3.9-12.8-10.9-13.9
		c-5.9-1-6.1,7.5-13.9,9.6c-0.5,0.1-0.7-0.6-0.9-1c-0.4-0.8-0.6-1.7-0.7-2.6c-1.3-10.4-3.5-20.6-6.5-30.7c-0.5-1.6-1.1-3.2-0.5-5
		c0-0.1,0.1-0.1,0.1-0.2c0-0.1,0-0.1,0.1-0.2c2.9-2.9,7.7-1.9,11.6-2.1c30.6-2,60.8-6.4,90.3-15.2c2.4-0.7,7.1-0.7,6.2-4"/>
	<path class="st1" d="M237.3,244.2c1.4,1.4,3.4,1.4,5.2,1.4c13.6,0.1,27.1,0.1,40.7,0c2.4,0,4.8-0.1,6.5-2.1
		c0.1-0.1,0.2-0.2,0.3-0.3l0,0c0-1-0.1-2-0.4-2.9c-5.2-12.5-11.7-24.5-19.4-35.6c-0.6-0.9-1.3-1.6-2.2-2.7
		c-5-6.1-9.2-10.9-13.2-15.5c-12-13.5-10.2-10.8-17.5-19.1c-3.7-4.4-8-8.2-12.7-11.4c-0.9-0.6-1.7-1.1-2.2-1.5l-1-1.4
		c-2.5,0.1-5.9,0.3-9.9,0.6c-6,0.4-10.6,0.9-14.1,1.3c-3.1,0.3-7.8,0.8-13.9,1.6c-9.1,1.2-16.2,2.3-18.6,2.7
		c-9.2,1.5-15.8,2.6-24.6,4.9c-5.1,1.3-9.4,2.6-12.3,3.6l0,0c-10.4,2.5-20.5,5.9-29.8,11.2c-2.1,1.1-4.2,2-6.2,3.2
		c-11,6.4-16.7,15.1-16.2,28.8c0.9,24.3,0.2,48.7,0.1,73v0.9c0.1,1.1,0.3,2.3,0.3,3.5c0,4,1,7.6,5.9,7.4c4.7-0.1,5.8-3.5,5.8-7.6
		c-0.1-6.3,0-12.6,0-18.9c0-9.5,3.8-13.6,13.1-14.5c8.5,2.4,11.1,5.8,11.1,14.6c0,22.3,0,44.6,0,66.8c-0.1,1.7,0.1,3.3,0.5,4.9
		c0.5,2.4,2.7,4,5.2,3.8c2.6,0,4.8-2,5.2-4.5c0.2-1.3,0.2-2.7,0.2-4c0-14.8,0-29.6,0-44.4c0-5.9,2.3-10.5,7.8-13.1l0,0
		c10.9-2,16.8,2.9,16.9,14.1c0,1.3,0,2.7,0,4c-0.1,3.7,1,6.9,5.3,6.9c4.5,0,5.8-3.2,5.7-7.1c0-3.2-0.1-6.3,0-9.5
		c0.2-5.1-0.9-10.3,1.2-15.3c6.7-6.9,10.1-7.4,18.9-3c3.3,3.3,4.3,7.2,4.2,11.8c-0.2,14-0.1,28,0,41.9c0,3.8,1.7,6.7,5.9,6.5
		c3.9-0.1,5.2-2.9,5.1-6.6c-0.1-4.8,0-9.6,0-14.5c0-11.8,4.9-16.2,16.8-14.9c6,3.2,8,8.4,8,14.9c-0.1,13.1,0,26.2-0.1,39.4
		c0,3.5,1.3,6,4.9,6.4c3.9,0.4,5.6-2.4,6.1-5.9c0.1-1.5,0.2-3,0.1-4.5c0-17.9,0.2-35.9-0.1-53.8c-0.1-7.3,2.4-12.1,9.3-14.6l0,0
		c10.8-0.2,15.5,4.3,15.6,15.2c0.1,6.6,0,13.3,0.1,19.9c0.1,3.4,2.1,5.4,5.3,5.4c2.8,0.1,5.1-2.1,5.1-4.9c0-0.1,0-0.1,0-0.2
		c0.2-2.5,0.1-5,0.2-7.5c0.4-7.7,5.4-12.4,12.8-12.2c7.3,0.2,11.8,4.8,11.9,12.5s0.1,15.3,0,22.9c0,4,0.5,7.5,5.4,8l0,0
		c0.4,0.8,2.6-0.4,3-0.6c3.7-1.9,2.4-30.9,2-44.7c-0.1-4.3-0.1-4.1-0.2-5.8c-0.6-11.4-3.1-22.6-7.4-33.2c-2-2.1-4.6-1.9-7-1.6"/>
	<path class="st1" d="M99.7,219c1.2,2.4,3.9,2.9,6.1,4.1c1.3,0.7,3.1,1.2,2.8,2.9c-0.3,1.9-2.3,1.4-3.7,1.4c-1-0.1-1.9-0.1-2.9,0
		c-0.4-2.1-2.5-2.4-4-3.3c-3.3-1.9-6.9-3.2-10-5.4c-1.3-0.9-3.2-2-1.9-3.9c1.1-1.7,2.6-0.2,3.9,0.4"/>
	<path class="st0" d="M442.7,291.7c0.7,0.3,0.4,1.7,0.5,6c0.1,2.7,0.3,4.5-0.8,5.2c-0.2,0.1-0.4,0.2-0.6,0.2
		c-1.2,0.4-2.5,0.6-3.8,0.7c-2.8,0.2-5.5-0.4-7.9-1.9c-5.1-3.2-6.2-9.3-6.3-9.9c-0.6-3-0.3-6-0.5-9c-0.2-2.2-0.5-4.7-3.3-4.9
		c-2.9-0.2-3.8,2.3-4.3,4.7c-0.3,2.1-0.4,4.3-0.3,6.5c0,16.3,0,32.7,0,49c0,6-2,10.8-7.6,13.5c-6.7,3.2-14.8,0.3-18-6.4
		c-0.6-1.3-1-2.7-1.2-4.1c-0.2-2.2-0.3-4.3-0.2-6.5c0-19.6,0-39.3,0-59c0.1-2,0-4-0.2-6c-0.4-2.2-1.1-4.5-3.8-4.5s-3.5,2.1-3.8,4.5
		c-0.1,1.7-0.2,3.3-0.1,5v39c0.1,2,0,4-0.2,6c-0.7,6.5-5.9,11.7-12.5,12.4c-6.7,0.6-12.2-3.2-14.4-9.9c-1.5-4.4-0.8-9-1.1-13.4
		c-0.2-2.8,0.9-6.9-3.6-6.8c-4,0.1-4.1,3.8-4.1,6.8c-0.2,10.2,0.1,20.3-0.2,30.5c-0.3,9.2-6.7,14.9-15.3,13.8
		c-7-0.9-11.5-6-11.6-13.9c-0.2-12.8,0-25.6-0.1-38.5c0-2,0.1-4-0.1-6c-0.3-2.8-0.2-6.4-4.1-6.3c-3.5,0.1-3.6,3.4-3.7,6.1
		c-0.2,3.8-0.1,7.7-0.1,11.5c0,7,0,14,0,21c-0.1,5.7-2,10.4-7,13.6L302,341c-0.3,0.1-0.6,0.2-0.9,0.3c-10.3,3.4-18.5-2-19.4-13.2
		c-0.5-6.5-0.1-13-0.2-19.5c0.1-1.7,0-3.3-0.2-5c-0.3-2-1.1-3.5-3.4-3.6s-3.7,1.3-4.1,3.5s-0.2,4.6-0.4,7c-0.6,8.2-6,13.4-13.9,13.2
		c-7.4-0.1-12.8-5.7-13-13.5c-0.2-5.8,0-11.6-0.1-17.5c0.1-1.7-0.1-3.3-0.4-5c-0.6-2-1.6-3.7-4.1-3.7c-2.2,0-3.1,1.6-3.8,3.4
		c-0.8,2.4-0.7,4.9-0.7,7.4c0,17.1-0.1,34.3,0,51.4c0.1,5.3-1.3,9.8-5.4,13.1l-0.5,0.4c-0.2,0.1-0.4,0.2-0.6,0.3
		c-9.9,5-20-0.6-20.4-11.8c-0.5-12.3-0.1-24.6-0.1-36.9c0.1-1.8,0-3.7-0.3-5.5c-0.4-2.2-1.4-3.8-3.8-3.9c-2.6-0.1-3.4,1.8-3.6,3.9
		c-0.5,3.3-0.2,6.6-0.2,10c0,2.2,0,4.3,0,6.5c-0.4,11.4-7.9,17-18.5,14.1l0,0c-0.3-0.1-0.6-0.2-1-0.3l-0.2-0.1
		c-6.3-3.2-8.1-9-8.2-15.4c-0.3-12.5-0.1-24.9-0.1-37.4c0.1-1.8,0-3.7-0.4-5.4c-0.5-1.5-1.4-2.7-3.1-2.7c-2,0-3,1.3-3.2,3.1
		c-0.5,4.3-0.2,8.6-0.2,13c0,3.6,0.1,7.3-1.1,10.9c-2.1,6.6-7.7,10.6-14.3,10.1c-6.3-0.5-11.5-5.7-12.4-12.4c-0.3-2.5-0.1-5-0.3-7.5
		c-0.2-2.3-0.7-4.5-3.2-5s-3.8,1.5-4.5,3.7c-0.7,15.6-0.1,31.3-0.3,46.9c0,0.7,0,1.3-0.1,2l0,0c-0.1,1.4-0.4,2.9-0.9,4.2l0,0
		c-0.9,2.6-2.6,4.8-4.8,6.3c-7.5,5.4-16.6,3-20.4-5.5c-1.6-3.6-1.8-7.4-1.8-11.2v-58.4c0.1-1.5,0.1-3,0-4.5
		c-0.3-2.6,0.8-6.5-3.3-6.6c-4.3-0.1-3.4,3.8-3.5,6.4c-0.2,5,0,10-0.1,15c0,2.3-0.2,4.7-0.7,6.9c-2.1,8.8-9.2,13.1-18.1,10.9
		c-0.2-0.1-0.5-0.2-0.7-0.3l-1.1-0.4l0,0c0-0.7-0.1-1.8-0.3-3c-0.2-2.2-0.4-2.7-0.5-4c-0.1-1.7-0.1-3.3,0.1-5c0.1-1.3,0.2-3,0.5-5
		c1.1,1,1.9,2.3,2.4,3.7c0.6,1.8,0.3,3.3,1.5,4c0.6,0.3,1.2,0.5,1.8,0.5c2.5,0,3.9-1.6,4.5-3.9s0.4-5,0.4-7.4c0-4.8-0.1-9.6,0-14.4
		c0.2-9.1,4.7-13.9,13.5-14.5h0.9h0.6c8.4,1.9,11.9,6.3,11.9,15.2c0.1,21.1,0,42.3,0,63.4c-0.2,2.3,0,4.7,0.5,7
		c0.6,1.8,1.4,3.6,3.7,3.4s3-1.8,3.4-3.8c0.3-1.8,0.4-3.6,0.3-5.5c0-13.3-0.1-26.6,0-40c0.1-6.7,1.8-12.6,8.5-15.6l1-0.2l0.9-0.2
		c10.3-1.7,17,3.9,17.5,15c0.1,1.8,0,3.7,0.2,5.5c0.3,2.1,1.1,4,3.6,4c2.4,0,3.5-1.7,4-3.8c0.6-2.5,0.2-5,0.4-7.4
		c0.4-6.2-1.3-12.6,1.5-18.7c0.1-0.2,0.2-0.3,0.4-0.5c0.2-0.2,0.4-0.5,0.6-0.7c5.6-6.8,11.3-7.7,18.8-3c0.3,0.2,0.5,0.3,0.8,0.5
		l0.5,0.3c3.5,2.9,4.5,6.8,4.4,11.1c0,12.6,0,25.3,0,37.9c0,2.2-0.1,4.4,0.7,6.4c0.7,1.8,1.8,3.3,4,3.1s2.9-2,3.1-3.9
		c0.4-5.3,0.1-10.6,0.2-15.9c0.1-3.7,0.6-7.3,3.1-10.3c4.1-5,9.3-6.4,15.3-4.9l0.3,0.1l0.5,0.2c6.9,3.4,8.7,9.6,8.8,16.6
		c0.2,11.3,0,22.6,0.1,33.9c-0.1,1.8,0,3.7,0.3,5.5c0.4,1.7,1.1,3.3,3.1,3.4s3-1.2,3.6-2.9c0.9-2.4,0.9-4.9,0.9-7.4
		c0-17.6-0.1-35.2,0-52.8c0.1-8.1,2.5-11.6,9.8-14.4l0.4-0.2h0.3c9.1-1.1,14.3,2.5,16.6,11.4c1.7,6.5,0.6,13.3,1,19.9
		c0.2,3.1-1.1,7.9,3.6,7.8c4.3-0.1,3.1-4.7,3.3-7.7c0.6-9.7,5.8-15.7,13.8-15.8c8.3-0.1,13.6,4.6,14,12.9c0.4,7.1,0.1,14.3,0.1,21.4
		c-0.2,1.8,0.1,3.7,0.6,5.4c0.5,1.6,2.1,2.7,3.8,2.7c2.1-0.1,2.8-1.6,3.2-3.3c0.3-2.1,0.4-4.3,0.4-6.5c0.3-11.1-0.6-22.3,0.5-33.4
		c0.1-0.2,0.2-0.4,0.3-0.6c0.2-0.6,0.5-1.1,0.7-1.6l0,0c3.1-6.4,8.4-9.5,14.3-8.4c7.5,1.4,12,6.8,12.2,15.4
		c0.2,13.8,0,27.6,0.1,41.5c-0.1,1.8,0.1,3.7,0.5,5.5c0.3,1.5,1.8,2.6,3.3,2.4c1.4-0.1,2.5-1.1,2.8-2.5c0.4-1.6,0.5-3.3,0.4-5
		c0-8.3,0-16.7,0-25c-0.1-3.2,0.4-6.3,1.3-9.4c2.1-6.6,7.7-10.2,14.6-9.5c6.5,0.6,11.2,5.2,12,12c0.5,4.3,0,8.6,0.3,13
		c0.1,2.1,0.6,4.1,2.8,4.9c2.4,0.9,3.9-0.3,4.6-2.5c0.5-1.9,0.7-4,0.5-6c0-13.3,0-26.6,0-40c-0.1-1.8,0-3.7,0.1-5.5
		c0.7-6.5,4.9-11.2,11.2-12.4c5.4-1.1,11.2,1.8,14.3,7.1c2.1,3.6,2.4,7.5,2.4,11.6c0,20,0,40,0,59.9c-0.1,2,0,4,0.4,6
		c0.5,1.8,1.6,3,3.6,2.8c1.7-0.2,2.5-1.4,2.8-3.1c0.2-1.7,0.3-3.3,0.2-5c0-15.5,0-31,0-46.5c-0.1-3.8,0.4-7.7,1.7-11.3
		c2.1-5.8,7.8-9.5,14-9c6.1,0.8,11,5.5,12,11.6c0.5,2.6,0.2,5.3,0.4,8c0.2,2.8,0.4,6.3,4.2,6.2c0.7-0.1,1.4-0.3,2.1-0.6
		C442.1,292,442.3,291.5,442.7,291.7z"/>
</g>
<g id="cake-2">
	<g id="cake-3">
		<path class="st2" d="M179.4,86.4c-0.1,3.8-1.2,7.5-3.3,10.7c-2.1,3.2-5,5.7-8.4,7.2c-3.9,1.8-8.1,2.6-12.4,2.6
			c-7.7,0-13.7-2.5-18.1-7.5s-6.6-12-6.6-21.1v-2.9c-0.1-5.2,0.9-10.3,3-15c1.8-4.1,4.8-7.5,8.6-9.9c3.9-2.4,8.4-3.6,13-3.5
			c7.1,0,12.7,1.9,17,5.6c4.3,3.7,6.7,8.9,7.3,15.4h-14c-0.1-3.5-1-6.1-2.7-7.6s-4.2-2.3-7.7-2.4c-3.5,0-6.1,1.3-7.7,3.9
			c-1.6,2.6-2.5,6.8-2.6,12.5v4.2c0,6.2,0.8,10.7,2.3,13.3c1.6,2.7,4.2,4,8.1,4c3.2,0,5.7-0.8,7.4-2.3c1.7-1.5,2.6-3.9,2.7-7.2
			H179.4z"/>
		<path class="st2" d="M219.2,95.3h-19.3l-3.4,10.9h-15l21.4-58.3h13.2l21.5,58.3h-15.1L219.2,95.3z M203.3,84.4h12.6l-6.3-20.2
			L203.3,84.4z"/>
		<path class="st2" d="M261.7,84.5l-5.8,6.3v15.4h-14V47.9h14.1v25.7l4.9-7.4l12.6-18.3h17.4l-19.7,25.8l19.7,32.5h-16.6L261.7,84.5
			z"/>
		<path class="st2" d="M330.5,81.4h-22.1v13.9h26.1v10.8h-40.1V47.9h40.2v10.9h-26.2V71h22.1V81.4z"/>
		<path class="st2" d="M370.2,90.7c0.1-1.9-0.7-3.6-2.2-4.8c-2.4-1.6-4.9-2.8-7.7-3.6c-3.1-1-6.1-2.2-9-3.6
			c-7.5-3.7-11.3-8.8-11.3-15.3c0-3.1,1-6.1,2.8-8.5c2.1-2.6,4.9-4.6,8-5.8c3.7-1.4,7.6-2.1,11.6-2.1c3.9-0.1,7.7,0.7,11.3,2.2
			c3.1,1.3,5.8,3.6,7.7,6.4c1.9,2.8,2.8,6.1,2.8,9.5h-14c0.1-2.1-0.7-4.1-2.2-5.5c-1.6-1.4-3.8-2.1-5.9-2c-2.1-0.1-4.2,0.5-5.9,1.7
			c-2.2,1.5-2.9,4.5-1.4,6.8c0.4,0.6,0.9,1.1,1.6,1.5c1.6,1.2,4.4,2.5,8.5,3.8c3.5,1.1,6.8,2.5,9.9,4.2c6.3,3.6,9.4,8.6,9.4,15
			c0.2,4.7-2,9.2-5.8,12c-3.8,2.9-9.1,4.4-15.8,4.4c-4.4,0.1-8.8-0.8-12.9-2.5c-3.5-1.4-6.5-3.9-8.6-7c-2-3-3-6.6-2.9-10.2h14.1
			c0,3.1,0.8,5.4,2.4,6.9c1.6,1.5,4.2,2.2,7.9,2.2c2,0.1,3.9-0.4,5.5-1.5C369.5,93.9,370.3,92.3,370.2,90.7z"/>
		<path class="st3" d="M441.8,255.1c0.1,0.2,0.4,0.3,0.4,0.5c1.1,23.4,1.4,47-0.1,70.3c-0.8,12.6-6.9,20.5-12.6,27.4
			c-14.9,18-31.9,27.3-49.1,35.1c-22.9,10.2-47.2,17-72.2,19.9c-2.5,0.3-4.9,0.8-7.4,1.2c-0.8-2.4-0.7-5.1-0.7-7.8
			c0-22.4,0-44.9,0-67.3c0-4.1,0-8.3,1.6-11.8c4.5-6,6.2-13.9,6.1-23.8c-0.2-19.2,0-38.4-0.1-57.6c0-5.6,2.5-9.1,5.3-13.5
			c16-25.5,57.9-26.7,65.6-26.9c3.7-0.2,7.3-0.1,11,0.3c14.5,1.6,17.1,6.6,30.4,8.5c10.7,1.5,13.6-1.1,17.2,2
			c4,3.5,2.9,8.9,3.1,21.8C440.5,240.6,441,247.9,441.8,255.1z"/>
		<path class="st4" d="M301.8,322.6c1.2-21.7,1-39.6,0.6-52.8c-0.3-8.1-0.7-13.8-5.1-17.7c-7-6.2-17.1-1.7-38.5,0.3
			c-14.1,1.3-8.2-0.8-52.4-0.9c-3.3,0-15.1,0.1-38.9,0.2c-26.2,0.2-26.1,0.2-26.6,0.1c-30.8-2.7-44.3-16.9-55.8-10.1
			c-2.9,1.7-6.5,5.2-8.3,13.4c-1.8,2.1-1,5.4-1,8.1c-0.1,16.8,0.1,33.6-0.1,50.3c-0.2,12.3,2.1,22.5,7.2,30.6
			c5.1,8.3,11.4,15.7,18.7,22.1c5.9,5.1,13.5,10.4,27.1,17c17.8,8.4,36.6,14.6,55.9,18.5c21.8,5.3,44,8.4,66.3,9.3
			c16.6,0.7,33.2,0.2,49.7-1.5c0.6-2.8,0.9-5.6,1-8.5C301.8,374.8,301.8,348.7,301.8,322.6z"/>
		<path class="st0" d="M400.9,225.5c-0.3-0.3-0.2-0.5-0.4-0.8c-1.4-1.4-6,1.2-6.6,1.4c-27.9,8.2-56.4,12.5-85.4,14.5
			c-6.2,0.4-13.8,4.6-18.7,0.5c-0.1-0.1-0.2-0.4-0.2-0.5l-0.1-0.3c-4.5-11.8-10.4-23-17.5-33.4c-1.5-2.2-3.1-4.3-4.6-6.5
			c-1.2-1.8-2.8-3.3-4.7-4.4c-6.4-5-14.1-17.9-19.2-24c-12.7-15.3-30.6-14.7-30-18.5c0.8-4.6,26.2-4.5,47.2-4.4
			c1.3,0,7.1,0,15.6,0.3c7,0.3,23.1,1,40.4,2.5c31.9,2.8,63.4,8,93.8,19.4c8.3,3,16.1,7.3,23.1,12.7c3.3,2.5,5.9,5.8,7.6,9.6
			c1.3,3,1.4,5.7,1.8,9.6c0.5,6.1,0.8,9.2-0.1,11c-4.2,8.6-24,8.4-25.9,8.4c-2.6,0-4.6-0.3-7.5,0.5
			C405.5,224.2,402.1,226.6,400.9,225.5z"/>
		<path class="st0" d="M442.8,214.2c-0.1,20.1,0.1,40.2,0.1,60.2c0,0.2,0,0.5,0,0.6c0,3.8-0.1,7.6-0.2,11.5c0,3.6-1.5,6.4-5.4,6.4
			s-5.4-2.8-5.5-6.4c-0.1-2.8,0.1-5.7,0-8.5c-0.1-6.7-5.5-12-12.2-12c-5.9,0.1-10.9,4.4-11.8,10.2c-0.4,2.3-0.6,4.6-0.6,6.9
			c-0.1,16.6,0,33.3,0,49.9c0,6.5-1.5,9.1-5.3,8.8c-5.7-0.6-5.2-5-5.3-9.1c0-21.1,0.1-42.3,0-63.4c0.1-1.7,0-3.3-0.2-5
			c-1.1-6.7-6.6-11.4-12.7-11c-6.8,0.5-11.6,5.4-11.7,12.5c-0.1,12,0,24,0,36c0,4.2,0,8.3,0,12.5c0,3.8-1.2,6.8-5.5,6.6
			s-5.5-3.1-5.5-6.9c0-4.2,0.1-8.3,0-12.5c-0.1-6.5-4.5-11.2-10.6-11.8c-6.9-0.6-12.2,3.2-13.5,9.8c-1.3,6.9-0.4,14-0.6,20.9
			c-0.1,5.3,0,10.6,0,16c0,3.4-1.6,5.4-5.1,5.5c-3.7,0.1-5.3-2-5.3-5.7c0-15.3,0.1-30.6,0-45.9c0-7.9-3.9-12.8-10.9-13.9
			c-5.9-1-6.1,7.5-13.9,9.6c-0.5,0.1-0.7-0.6-0.9-1c-0.4-0.8-0.6-1.7-0.7-2.6c-1.3-10.4-3.4-20.6-6.3-30.6c-0.5-1.6-1.1-3.2-0.5-5
			c0-0.1,0.1-0.1,0.1-0.2c0-0.1,0-0.1,0.1-0.2c2.9-2.9,7.7-1.9,11.6-2.1c30.6-2,60.8-6.4,90.3-15.2c2.4-0.7,7.1-0.7,6.2-4"/>
		<path class="st1" d="M75.8,208.4c0.9,24.3,0.2,48.7,0.1,73v0.8c0.1,1.1,0.3,2.3,0.3,3.5c0,4,1,7.6,5.9,7.4
			c4.7-0.1,5.8-3.5,5.8-7.6c-0.1-6.3,0-12.6,0-18.9c0-9.5,3.8-13.6,13.1-14.5c8.5,2.4,11.1,5.8,11.1,14.6c0,22.3,0,44.6,0,66.8
			c-0.1,1.7,0.1,3.3,0.5,4.9c0.5,2.4,2.7,4,5.2,3.8c2.6,0,4.8-2,5.2-4.5c0.2-1.3,0.2-2.7,0.2-4c0-14.8,0-29.6,0-44.4
			c0-5.9,2.3-10.5,7.8-13.1l0,0c10.9-2,16.8,2.9,16.9,14.1c0,1.3,0,2.7,0,4c-0.1,3.7,1,6.9,5.3,6.9c4.5,0,5.8-3.2,5.7-7.1
			c0-3.2-0.1-6.3,0-9.5c0.2-5.1-0.9-10.3,1.2-15.3c6.7-6.9,10.1-7.4,18.9-3c3.3,3.3,4.3,7.2,4.2,11.8c-0.2,14-0.1,28,0,41.9
			c0,3.8,1.7,6.7,5.9,6.5c3.9-0.1,5.2-2.9,5.1-6.6c-0.1-4.8,0-9.6,0-14.5c0-11.8,4.9-16.2,16.8-14.9c6,3.2,8,8.4,8,14.9
			c-0.1,13.1,0,26.2-0.1,39.4c0,3.5,1.3,6,4.9,6.4c3.9,0.4,5.6-2.4,6.1-5.9c0.1-1.5,0.2-3,0.1-4.5c0-17.9,0.2-35.9-0.1-53.8
			c-0.1-7.3,2.4-12.1,9.3-14.6l0,0c10.8-0.2,15.5,4.3,15.6,15.2c0.1,6.6,0,13.3,0.1,19.9c0.1,3.4,2.1,5.4,5.3,5.4
			c2.8,0.1,5.1-2.1,5.1-4.9c0-0.1,0-0.1,0-0.2c0.2-2.5,0.1-5,0.2-7.5c0.4-7.7,5.4-12.4,12.8-12.2c7.3,0.2,11.8,4.8,11.9,12.5
			s0.1,15.3,0,22.9c0,4,0.5,7.5,5.4,8l0,0c0.4,0.8,2.6-0.4,3-0.6c3.7-1.9,2.4-30.9,2-44.7c-0.1-4.3-0.1-4.1-0.2-5.8
			c-0.6-11.4-3.1-22.6-7.4-33.1c-2-2.1-4.6-1.9-7-1.6c-13.4,1.6-26.8,0.6-40.2,0.9c-2.4,0.1-5-0.2-7.1,1.4
			c-6.8-3.2-14.6-3.6-21.6-0.8h0c0-2-1.7-2.2-3-2.3c-10-0.5-20-2-30.1-2.1c-0.1,0-0.3,0-0.4,0.1c-0.8-1.1-2.4-0.9-3.7-1.1
			c-3.9-0.7-7.8-1.1-11.7-1.5c-3.3-0.3-6.6-1.6-9.9-0.1c-7.7-4.2-16.1-5.3-24.8-5.3c-0.1,0-0.1,0.1-0.2,0.1
			c-0.3-1.5-1.8-1.9-3.1-2.4c-2.3-0.9-4.7-1.3-7-2.3c-1-0.4-2.3-1.1-1.8-2.5c0.3-1.2,1.6-1,2.5-0.9c1.5,0.1,3.2,0.4,4.3-0.5
			c0.6,1.3,1.8,2.2,3.2,2.5c7.3,2.1,14.6,3.7,22.1,5c1.3,0.2,2.9,0.6,3.6-0.8c5.6,3.9,11.9,3.9,18.3,3.8c0.4,0,0.8-0.2,1-0.6
			c4.7,2.8,9.6,3.9,14.9,2l0.1,0.1c6.7,3.2,14,2,21,2.9c0.6,0.1,1.2-0.1,1.7-0.4c0.2,0.1,0.4,0.2,0.6,0.2c5.8,1,11.8,1,17.6,1.6
			c1.8,0.2,3.6-0.2,5-1.3c1.4,1.4,3.4,1.4,5.2,1.4c13.6,0.1,27.1,0.1,40.7,0c2.4,0,4.8-0.1,6.5-2.1c0.1-0.1,0.2-0.2,0.3-0.3l0,0
			c0-1-0.1-2-0.4-2.9c-5.2-12.5-11.7-24.5-19.4-35.6c-0.6-0.9-1.3-1.6-2.2-2.7c-5-6.1-9.2-10.9-13.2-15.5
			c-12-13.5-10.2-10.8-17.5-19.1c-3.7-4.3-7.9-8.2-12.6-11.4c-0.9-0.6-1.7-1.1-2.2-1.5l-1-1.4c-2.5,0.1-5.9,0.3-9.9,0.6
			c-6,0.4-10.6,0.9-14.1,1.3c-3.1,0.3-7.8,0.8-13.9,1.6c-9.1,1.2-16.2,2.3-18.6,2.7c-9.2,1.5-15.8,2.6-24.6,4.9
			c-5.1,1.3-9.4,2.6-12.3,3.6l0,0c-10.4,2.5-20.5,5.9-29.8,11.2c-2.1,1.1-4.2,2-6.2,3.2C81,186,75.3,194.7,75.8,208.4 M108.7,223.3
			c-0.3,1.9-2.3,1.4-3.7,1.4c-1-0.1-1.9-0.1-2.9,0c-0.4-2.1-2.5-2.4-4-3.3c-3.3-1.9-6.9-3.2-10-5.4c-1.3-0.9-3.2-2-1.9-3.9
			c1.1-1.7,2.6-0.2,3.9,0.4c3.1,1.4,5.7,4.2,9.5,3.8c1.2,2.4,3.9,3,6.1,4.1C107.1,221.1,109,221.6,108.7,223.3z M300.6,284.6
			c-0.1-4.3-0.1-4.1-0.2-5.8c-0.7-11.3-3.2-22.5-7.4-33.1c-2-2.1-4.6-1.9-7-1.6c-2.9,0.3-5.8,0.6-8.7,0.7
			c-18.5,2.9-37.1,4.4-55.8,4.3c-66.3,0-122.9-17.4-145.7-41.9c0.9,24.2,0.2,48.4,0.1,72.6v0.8c0.1,1.1,0.3,2.3,0.3,3.5
			c0,4,1,7.6,5.9,7.4c4.7-0.1,5.8-3.5,5.8-7.6c-0.1-6.3,0-12.6,0-18.9c0-9.5,3.8-13.6,13.1-14.5c8.5,2.4,11.1,5.8,11.1,14.6
			c0,22.3,0,44.6,0,66.8c-0.1,1.7,0.1,3.3,0.5,4.9c0.5,2.4,2.7,4,5.2,3.8c2.6,0,4.8-2,5.2-4.5c0.2-1.3,0.2-2.7,0.2-4
			c0-14.8,0-29.6,0-44.4c0-5.9,2.3-10.5,7.8-13.1l0,0c10.9-2,16.8,2.9,16.9,14.1c0,1.3,0,2.7,0,4c-0.1,3.7,0.9,6.9,5.3,6.9
			c4.5,0,5.8-3.2,5.7-7.1c0-3.2-0.1-6.3,0-9.5c0.2-5.1-0.9-10.3,1.2-15.3c6.7-6.9,10.1-7.4,18.9-3c3.3,3.3,4.3,7.2,4.2,11.8
			c-0.2,14-0.1,28,0,41.9c0,3.8,1.7,6.7,5.9,6.5c3.9-0.1,5.2-2.9,5.1-6.6c-0.1-4.8,0-9.6,0-14.5c0-11.8,4.9-16.2,16.8-14.9
			c6,3.2,8,8.4,7.9,14.9c-0.1,13.1,0,26.2-0.1,39.4c0,3.5,1.3,6,4.9,6.4c3.9,0.4,5.6-2.4,6.1-5.9c0.1-1.5,0.2-3,0.1-4.5
			c0-17.9,0.2-35.9-0.1-53.8c-0.1-7.3,2.4-12.1,9.3-14.6h0.7c10.3,0,14.8,4.5,14.9,15.2c0.1,6.6,0,13.3,0.1,19.9
			c0.1,3.4,2.1,5.4,5.3,5.4c2.8,0.1,5.1-2.1,5.1-4.9c0-0.1,0-0.1,0-0.2c0.2-2.5,0.1-5,0.2-7.5c0.4-7.7,5.4-12.4,12.8-12.2
			c7.3,0.2,11.8,4.8,11.9,12.5s0.1,15.3,0,22.9c0,4,0.5,7.5,5.4,8c0.1,0.2,0.3,0.3,0.6,0.3c0.9-0.1,1.7-0.4,2.5-0.9
			C302.3,327.4,301,298.4,300.6,284.6z"/>
		<path class="st5" d="M209.8,151.3c-1.9,1.5-4.1,0.6-6.2,0.7C205.6,150.9,207.7,151.2,209.8,151.3z"/>
		<path class="st4" d="M175.8,235.9l16,2l23,2l22,1c15.8,0,31.6,0.1,47.5,0c1.8-0.1,3.6-0.4,5.4-0.7c11.7,0.3,23.4-1.1,35-2.4
			c20.1-2.3,40.1-5.2,59.7-10.7c4.8-1.4,9.6-2.7,14.3-4.2c2.1-0.7,4.1-0.8,4.9,1.6s-0.5,3.9-3,4.7c-16,5.1-32.3,9-48.9,11.6
			c-19.5,3.2-39.2,4.9-58.9,6.3c-18,1.1-36,0.8-54,0.8c-7.3-0.9-14.6-1.2-21.9-1c-4.7-2.2-9.8-0.6-14.7-1.6c-6-1.2-12.2-1-18.3-1.4
			c-6.3-1.9-12.9-1.9-19.3-2.9c-2.2-0.4-4.5-0.6-6.7-1.1l-25-5c-3.1-1-6.2-2.1-9.4-3c-2.7-0.8-5.6-1.7-4.5-5.2
			c1-3.2,3.8-1.6,5.9-1.3l2.9,0.4c9.4,3.4,19.2,5.1,29,6.9L175.8,235.9z"/>
		<path class="st4" d="M102,225c-5.1-2.8-10.1-5.7-15.2-8.4c-2.4-1.3-3.9-3.1-2.5-5.6c1.6-2.8,3.8-1.4,6-0.1
			c3.1,1.9,6.4,3.4,9.7,5.2c2.2,1,4.4,2.2,6.7,3.1s4.5,2.1,4,4.8c-0.6,3-3.3,2.1-5.3,2.1C104.2,225.8,103.1,225.5,102,225z"/>
		<path class="st0" d="M442.5,288.8c0.7,0.3,0.4,1.7,0.5,6c0.1,2.7,0.3,4.5-0.8,5.2c-0.2,0.1-0.4,0.2-0.6,0.2
			c-1.2,0.4-2.5,0.6-3.8,0.7c-2.8,0.2-5.5-0.4-7.9-1.8c-5.1-3.2-6.2-9.3-6.3-9.9c-0.6-3-0.3-6-0.5-9c-0.2-2.2-0.5-4.7-3.3-4.9
			c-2.9-0.2-3.8,2.3-4.3,4.7c-0.3,2.1-0.4,4.3-0.3,6.5c0,16.3,0,32.7,0,49c0,6-2,10.8-7.6,13.5c-6.7,3.2-14.8,0.3-18-6.4
			c-0.6-1.3-1-2.7-1.2-4.1c-0.2-2.2-0.3-4.3-0.2-6.5c0-19.7,0-39.3,0-59c0.1-2,0-4-0.2-6c-0.4-2.2-1.1-4.5-3.8-4.5s-3.5,2.1-3.8,4.5
			c-0.1,1.7-0.2,3.3-0.1,5v39c0.1,2,0,4-0.2,6c-0.7,6.5-5.9,11.7-12.5,12.4c-6.7,0.6-12.2-3.2-14.4-9.9c-1.5-4.5-0.8-9-1.1-13.5
			c-0.2-2.8,0.9-6.9-3.6-6.8c-4,0.1-4.1,3.8-4.1,6.8c-0.2,10.2,0.1,20.3-0.2,30.5c-0.3,9.2-6.7,14.9-15.3,13.8
			c-7-0.9-11.5-6-11.6-13.9c-0.2-12.8,0-25.6-0.1-38.5c0-2,0.1-4-0.1-6c-0.3-2.8-0.2-6.4-4.1-6.3c-3.5,0.1-3.6,3.4-3.7,6.1
			c-0.2,3.8-0.1,7.7-0.1,11.5c0,7,0,14,0,21c-0.1,5.7-2,10.4-7,13.6l-0.5,0.2c-0.3,0.1-0.6,0.2-0.9,0.3c-10.3,3.4-18.5-2-19.4-13.2
			c-0.5-6.5-0.1-13-0.2-19.5c0.1-1.7,0-3.3-0.2-5c-0.3-2-1.1-3.5-3.4-3.6s-3.7,1.3-4.1,3.5s-0.2,4.6-0.4,7
			c-0.6,8.2-6,13.4-13.9,13.2c-7.4-0.1-12.8-5.7-13-13.5c-0.2-5.8,0-11.6-0.1-17.5c0.1-1.7-0.1-3.3-0.4-5c-0.6-2-1.6-3.7-4.1-3.7
			c-2.2,0-3.1,1.6-3.8,3.4c-0.8,2.4-0.7,4.9-0.7,7.4c0,17.1-0.1,34.3,0,51.4c0.1,5.3-1.3,9.8-5.4,13.1l-0.5,0.4
			c-0.2,0.1-0.4,0.2-0.6,0.3c-9.9,5-20-0.6-20.4-11.8c-0.5-12.3-0.1-24.6-0.1-36.9c0.1-1.8,0-3.7-0.3-5.5c-0.4-2.2-1.4-3.8-3.8-3.9
			c-2.6-0.1-3.4,1.8-3.6,3.9c-0.5,3.3-0.2,6.6-0.2,10c0,2.2,0,4.3,0,6.5c-0.4,11.4-7.9,17-18.5,14.1l0,0c-0.3-0.1-0.6-0.2-1-0.3
			l-0.2-0.1c-6.3-3.2-8.1-9-8.2-15.4c-0.3-12.5-0.1-24.9-0.1-37.4c0.1-1.8,0-3.7-0.4-5.4c-0.5-1.5-1.4-2.7-3.1-2.7
			c-2,0-3,1.3-3.2,3.1c-0.5,4.3-0.2,8.6-0.2,13c0,3.6,0.1,7.3-1.1,10.9c-2.1,6.6-7.7,10.6-14.3,10.1c-6.3-0.5-11.5-5.7-12.4-12.4
			c-0.3-2.5-0.1-5-0.3-7.5c-0.2-2.3-0.7-4.5-3.2-5s-3.8,1.5-4.5,3.7c-0.7,15.6-0.1,31.3-0.3,46.9c0,0.7,0,1.3-0.1,2l0,0
			c-0.1,1.4-0.4,2.9-0.9,4.2l0,0c-0.9,2.6-2.6,4.8-4.8,6.3c-7.5,5.4-16.6,3-20.4-5.5c-1.6-3.6-1.8-7.4-1.8-11.2v-58.4
			c0.1-1.5,0.1-3,0-4.5c-0.3-2.6,0.8-6.5-3.3-6.6c-4.3-0.1-3.4,3.8-3.5,6.4c-0.2,5,0,10-0.1,15c0,2.3-0.2,4.7-0.7,6.9
			c-2.1,8.8-9.2,13.1-18.1,10.9c-0.2-0.1-0.5-0.2-0.7-0.3l-1.1-0.4l0,0c0-0.7-0.1-1.8-0.3-3c-0.2-2.2-0.4-2.7-0.5-4
			c-0.1-1.7-0.1-3.3,0.1-5c0.1-1.3,0.2-3,0.5-5c1.1,1,1.9,2.3,2.4,3.7c0.6,1.8,0.3,3.3,1.5,4c0.6,0.3,1.2,0.5,1.8,0.5
			c2.5,0,3.9-1.6,4.5-3.9s0.4-5,0.4-7.4c0-4.8-0.1-9.6,0-14.4c0.2-9.1,4.7-13.9,13.5-14.5h0.9h0.6c8.4,1.9,11.9,6.3,11.9,15.2
			c0.1,21.1,0,42.3,0,63.4c-0.2,2.3,0,4.7,0.5,7c0.6,1.8,1.4,3.6,3.7,3.4s3-1.8,3.4-3.8c0.3-1.8,0.4-3.6,0.3-5.5
			c0-13.3-0.1-26.6,0-40c0.1-6.7,1.8-12.6,8.5-15.6l1-0.2l0.9-0.2c10.3-1.7,17,3.9,17.5,15c0.1,1.8,0,3.7,0.2,5.5
			c0.3,2.1,1.1,4,3.6,4c2.4,0,3.5-1.7,4-3.8c0.6-2.5,0.2-5,0.4-7.4c0.4-6.2-1.3-12.6,1.5-18.7c0.1-0.2,0.2-0.3,0.4-0.5
			c0.2-0.2,0.4-0.5,0.6-0.7c5.6-6.8,11.3-7.7,18.8-3c0.3,0.2,0.5,0.3,0.8,0.5l0.5,0.3c3.5,2.9,4.5,6.8,4.4,11.1
			c0,12.6,0,25.3,0,37.9c0,2.2-0.1,4.4,0.7,6.4c0.7,1.8,1.8,3.3,4,3.1s2.9-2,3.1-3.9c0.4-5.3,0.1-10.6,0.2-15.9
			c0.1-3.7,0.6-7.3,3.1-10.3c4.1-5,9.3-6.4,15.3-4.9l0.3,0.1l0.5,0.2c6.9,3.4,8.7,9.6,8.8,16.6c0.2,11.3,0,22.6,0.1,33.9
			c-0.1,1.8,0,3.7,0.3,5.5c0.4,1.7,1.1,3.3,3.1,3.4s3-1.2,3.6-2.9c0.9-2.4,0.9-4.9,0.9-7.4c0-17.6-0.1-35.2,0-52.8
			c0.1-8.1,2.5-11.6,9.8-14.4l0.4-0.2h0.3c9.1-1.1,14.3,2.5,16.6,11.4c1.7,6.5,0.6,13.3,1,19.9c0.2,3.1-1.1,7.9,3.6,7.8
			c4.3-0.1,3.1-4.7,3.3-7.7c0.6-9.7,5.8-15.7,13.8-15.8c8.3-0.1,13.6,4.6,14,12.9c0.4,7.1,0.1,14.3,0.1,21.4
			c-0.2,1.8,0.1,3.7,0.6,5.4c0.6,1.6,2.2,2.6,3.9,2.5c2.1-0.1,2.8-1.6,3.2-3.3c0.3-2.1,0.4-4.3,0.4-6.5c0.3-11.1-0.6-22.3,0.5-33.4
			c0.1-0.2,0.2-0.4,0.3-0.6c0.2-0.6,0.5-1.1,0.7-1.6l0,0c3.1-6.4,8.4-9.5,14.3-8.4c7.5,1.4,12,6.8,12.2,15.4
			c0.2,13.8,0,27.6,0.1,41.5c-0.1,1.8,0.1,3.7,0.5,5.5c0.3,1.5,1.8,2.6,3.3,2.4c1.4-0.1,2.5-1.1,2.8-2.5c0.4-1.6,0.5-3.3,0.4-5
			c0-8.3,0-16.7,0-25c-0.1-3.2,0.4-6.3,1.3-9.4c2.1-6.6,7.7-10.2,14.6-9.5c6.5,0.6,11.2,5.2,12,12c0.5,4.3,0,8.6,0.3,13
			c0.1,2.1,0.6,4.1,2.8,4.9c2.4,0.9,3.9-0.3,4.6-2.5c0.5-1.9,0.7-4,0.5-6c0-13.3,0-26.6,0-40c-0.1-1.8,0-3.7,0.1-5.5
			c0.7-6.5,4.9-11.2,11.2-12.4c5.4-1.1,11.2,1.8,14.3,7.1c2.1,3.6,2.4,7.5,2.4,11.6c0,20,0,40,0,59.9c-0.1,2,0,4,0.4,6
			c0.5,1.8,1.6,3,3.6,2.8c1.7-0.2,2.5-1.4,2.8-3.1c0.2-1.7,0.3-3.3,0.2-5c0-15.5,0-31,0-46.5c-0.1-3.8,0.4-7.7,1.7-11.3
			c2.1-5.8,7.8-9.5,14-9c6.1,0.8,11,5.5,12,11.6c0.5,2.6,0.2,5.3,0.4,8c0.2,2.8,0.4,6.3,4.2,6.2c0.7-0.1,1.4-0.3,2.1-0.6
			C441.9,289,442.2,288.6,442.5,288.8z"/>
	</g>
</g>
<g id="drip">
	<path class="st0" d="M442.5,291.4c0.7,0.3,0.4,1.7,0.5,6c0.1,2.7,0.3,4.5-0.8,5.2c-0.2,0.1-0.4,0.2-0.6,0.2
		c-1.2,0.4-2.5,0.7-3.8,0.7c-2.8,0.2-5.5-0.4-7.9-1.9c-5.1-3.2-6.1-9.2-6.3-9.9c-0.6-3-0.3-6-0.5-9c-0.2-2.2-0.5-4.7-3.3-4.9
		c-2.9-0.2-3.8,2.3-4.3,4.7c-0.3,2.1-0.4,4.3-0.3,6.5c0,16.3,0,32.7,0,49c0,6-2,10.8-7.6,13.5c-6.7,3.2-14.8,0.3-18-6.4
		c-0.6-1.3-1-2.7-1.2-4.1c-0.2-2.2-0.3-4.3-0.2-6.5c0-19.7,0-39.3,0-59c0.1-2,0-4-0.2-6c-0.4-2.2-1.1-4.5-3.8-4.5s-3.5,2.1-3.8,4.5
		c-0.1,1.7-0.2,3.3-0.1,5v39c0.1,2,0,4-0.2,6c-0.7,6.5-5.9,11.7-12.5,12.4c-6.7,0.6-12.2-3.2-14.4-9.9c-1.4-4.4-0.8-8.9-1-13.4
		c-0.2-2.8,0.9-6.9-3.6-6.8c-4,0.1-4.1,3.8-4.1,6.8c-0.2,10.2,0.1,20.3-0.2,30.5c-0.3,9.2-6.7,14.9-15.3,13.8
		c-7-0.9-11.5-6-11.6-13.9c-0.2-12.8,0-25.6-0.1-38.5c0-2,0.1-4-0.1-6c-0.3-2.8-0.2-6.4-4.1-6.3c-3.5,0.1-3.6,3.4-3.7,6.1
		c-0.2,3.8-0.1,7.7-0.1,11.5c0,7,0,14,0,21c-0.1,5.7-2,10.4-7,13.6l-0.6,0.2c-0.3,0.1-0.6,0.2-0.9,0.3c-10.3,3.4-18.5-2-19.4-13.2
		c-0.5-6.5-0.1-13-0.2-19.5c0.1-1.7,0-3.3-0.2-5c-0.3-2-1.1-3.5-3.4-3.6s-3.7,1.3-4.1,3.5s-0.2,4.6-0.4,7c-0.6,8.2-6,13.4-13.9,13.2
		c-7.4-0.1-12.8-5.7-13-13.5c-0.2-5.8,0-11.6-0.1-17.5c0.1-1.7-0.1-3.3-0.4-5c-0.6-2-1.6-3.7-4.1-3.7c-2.2,0-3.1,1.6-3.8,3.4
		c-0.8,2.4-0.7,4.9-0.7,7.4c0,17.1-0.1,34.3,0,51.4c0.1,5.3-1.3,9.8-5.4,13.1c-0.2,0.2-0.3,0.3-0.5,0.4c-0.2,0.1-0.4,0.2-0.6,0.3
		c-9.9,5-20-0.6-20.4-11.8c-0.5-12.3-0.1-24.6-0.1-36.9c0.1-1.8,0-3.7-0.3-5.5c-0.4-2.2-1.4-3.8-3.8-3.9c-2.6-0.1-3.4,1.8-3.6,3.9
		c-0.5,3.3-0.2,6.6-0.2,10c0,2.2,0,4.3,0,6.5c-0.4,11.4-7.9,17-18.5,14.1l0,0c-0.3-0.1-0.6-0.2-1-0.3l-0.2-0.1
		c-6.3-3.2-8.1-9-8.2-15.4c-0.3-12.5-0.1-24.9-0.1-37.4c0.1-1.8,0-3.7-0.4-5.4c-0.5-1.5-1.4-2.7-3.1-2.7c-2,0-3,1.3-3.2,3.1
		c-0.5,4.3-0.2,8.6-0.2,13c0,3.6,0.1,7.3-1.1,10.9c-2.1,6.6-7.7,10.6-14.3,10.1c-6.3-0.5-11.5-5.7-12.4-12.4c-0.3-2.5-0.1-5-0.3-7.5
		c-0.2-2.3-0.7-4.5-3.2-5s-3.8,1.5-4.5,3.7c-0.7,15.6-0.1,31.3-0.3,46.9c0,0.7,0,1.3-0.1,2l0,0c-0.1,1.4-0.4,2.9-0.9,4.2l0,0
		c-0.9,2.6-2.6,4.8-4.8,6.3c-7.5,5.4-16.6,3-20.4-5.5c-1.6-3.6-1.8-7.4-1.8-11.2v-58.4c0.1-1.5,0.1-3,0-4.5
		c-0.3-2.6,0.8-6.5-3.3-6.6c-4.3-0.1-3.4,3.8-3.5,6.4c-0.2,5,0,10-0.1,15c0,2.3-0.2,4.7-0.7,6.9c-2.1,8.8-9.2,13.1-18.1,10.9
		c-0.2-0.1-0.5-0.2-0.7-0.3l-1.1-0.4l0,0c0-0.7-0.1-1.7-0.3-3c-0.2-2.2-0.4-2.7-0.5-4c-0.1-1.7-0.1-3.3,0.1-5c0.1-1.3,0.2-3,0.5-5
		c1.1,1,1.9,2.3,2.4,3.7c0.6,1.8,0.3,3.3,1.5,4c0.6,0.3,1.2,0.5,1.8,0.5c2.5,0,3.9-1.6,4.5-3.9s0.4-5,0.4-7.4c0-4.8-0.1-9.6,0-14.4
		c0.2-9.1,4.7-13.9,13.5-14.5h0.9h0.6c8.4,1.9,11.9,6.3,11.9,15.3c0.1,21.1,0,42.3,0,63.4c-0.2,2.3,0,4.7,0.5,7
		c0.6,1.8,1.4,3.6,3.7,3.4s3-1.8,3.4-3.8c0.3-1.8,0.4-3.6,0.3-5.5c0-13.3-0.1-26.6,0-40c0.1-6.7,1.8-12.6,8.5-15.6l1-0.2l0.9-0.2
		c10.3-1.7,17,3.9,17.5,15c0.1,1.8,0,3.7,0.2,5.5c0.3,2.1,1.1,4,3.6,4c2.4,0,3.5-1.7,4-3.8c0.6-2.5,0.2-5,0.4-7.4
		c0.4-6.2-1.3-12.6,1.5-18.7c0.1-0.2,0.2-0.3,0.4-0.5c0.2-0.2,0.4-0.5,0.6-0.7c5.6-6.8,11.3-7.7,18.8-3c0.3,0.2,0.5,0.3,0.8,0.5
		l0.5,0.3c3.5,2.9,4.5,6.8,4.4,11.1c0,12.6,0,25.3,0,37.9c0,2.2-0.1,4.4,0.7,6.4c0.7,1.8,1.8,3.3,4,3.1s2.9-2,3.1-3.9
		c0.4-5.3,0.1-10.6,0.2-15.9c0.1-3.7,0.6-7.3,3.1-10.3c4.1-5,9.3-6.4,15.3-4.9l0.3,0.1l0.5,0.2c6.9,3.4,8.7,9.6,8.8,16.6
		c0.2,11.3,0,22.6,0.1,33.9c-0.1,1.8,0,3.7,0.3,5.5c0.4,1.7,1.1,3.3,3.1,3.4s3-1.2,3.6-2.9c0.9-2.4,0.9-4.9,0.9-7.4
		c0-17.6-0.1-35.2,0-52.8c0.1-8.1,2.5-11.6,9.8-14.4l0.4-0.2h0.3c9.1-1.1,14.3,2.5,16.6,11.4c1.7,6.5,0.6,13.3,1,19.9
		c0.2,3.1-1.1,7.9,3.6,7.8c4.3-0.1,3.1-4.7,3.3-7.7c0.6-9.7,5.8-15.7,13.8-15.8c8.3-0.1,13.6,4.6,14,12.9c0.4,7.1,0.1,14.3,0.1,21.4
		c-0.2,1.8,0.1,3.7,0.6,5.4c0.5,1.6,2.1,2.7,3.8,2.7c2.1-0.1,2.8-1.6,3.2-3.3c0.3-2.1,0.4-4.3,0.4-6.5c0.3-11.1-0.6-22.3,0.5-33.4
		c0.1-0.2,0.2-0.4,0.3-0.6c0.2-0.6,0.5-1.1,0.7-1.6l0,0c3.1-6.4,8.4-9.5,14.3-8.4c7.5,1.4,12,6.8,12.2,15.4
		c0.2,13.8,0,27.6,0.1,41.5c-0.1,1.8,0.1,3.7,0.5,5.5c0.3,1.5,1.8,2.6,3.3,2.4c1.4-0.1,2.5-1.1,2.8-2.5c0.4-1.6,0.5-3.3,0.4-5
		c0-8.3,0-16.7,0-25c-0.1-3.2,0.4-6.3,1.3-9.4c2.1-6.6,7.7-10.2,14.6-9.5c6.5,0.6,11.2,5.2,12,12c0.5,4.3,0,8.6,0.3,13
		c0.1,2.1,0.6,4.1,2.8,4.9c2.4,0.9,3.9-0.3,4.6-2.5c0.5-1.9,0.7-4,0.5-6c0-13.3,0-26.7,0-40c-0.1-1.8,0-3.7,0.1-5.5
		c0.7-6.5,4.9-11.2,11.2-12.4c5.4-1.1,11.2,1.8,14.3,7.1c2.1,3.6,2.4,7.5,2.4,11.6c0,20,0,40,0,59.9c-0.1,2,0,4,0.4,6
		c0.5,1.8,1.6,3,3.6,2.8c1.7-0.2,2.5-1.4,2.8-3.1c0.2-1.7,0.3-3.3,0.2-5c0-15.5,0-31,0-46.5c-0.2-3.9,0.4-7.8,1.7-11.5
		c2.1-5.8,7.8-9.5,14-9c6.1,0.8,11,5.5,12,11.6c0.5,2.6,0.2,5.3,0.4,8c0.2,2.8,0.4,6.3,4.2,6.2c0.7-0.1,1.4-0.3,2.1-0.6
		C441.9,291.6,442.2,291.2,442.5,291.4z"/>
	<path class="st1" d="M300.4,286.8c-0.1-4.3-0.1-4.1-0.2-5.8c-0.3-4.9-0.9-9.8-1.9-14.6c-1.2-5.5-3.1-11-5.5-16.1
		c-2.5,0.5-5,0.7-7.5,0.8c-2.9,0.1-5.9-0.2-8.8-0.6c-22.4,0.9-41.2,1-55.2,0.9c-22.1-0.1-33.4-0.3-46.8-2.1
		c-18-2.5-13.6-3.9-45.4-10.2c-19.6-3.9-28-4.6-37.8-11.8c-6.4-4.7-11.8-10.8-15.7-17.8c0.2,11.9,0.5,24,0.4,36.3
		c-0.1,12.1-0.3,24.2-0.3,36.3v0.8c0.1,1.1,0.3,2.3,0.3,3.5c0,4,1,7.6,5.9,7.4c4.7-0.1,5.8-3.5,5.8-7.6c-0.1-6.3,0-12.6,0-18.9
		c0-9.5,3.8-13.6,13.1-14.5c8.5,2.4,11.1,5.8,11.1,14.6c0,22.3,0,44.6,0,66.8c-0.1,1.7,0.1,3.3,0.5,4.9c0.5,2.4,2.7,4,5.2,3.8
		c2.6,0,4.8-2,5.2-4.5c0.2-1.3,0.2-2.7,0.2-4c0-14.8,0-29.6,0-44.4c0-5.9,2.3-10.5,7.8-13.1l0,0c10.9-2,16.8,2.9,16.9,14.1
		c0,1.3,0,2.7,0,4c-0.1,3.7,0.9,6.9,5.3,6.9c4.5,0,5.8-3.2,5.7-7.1c0-3.2-0.1-6.3,0-9.5c0.2-5.1-0.9-10.3,1.2-15.3
		c6.7-6.9,10.1-7.4,18.9-3c3.3,3.3,4.3,7.2,4.2,11.8c-0.2,14-0.1,28,0,41.9c0,3.8,1.7,6.7,5.9,6.5c3.9-0.1,5.2-2.9,5.1-6.6
		c-0.1-4.8,0-9.6,0-14.5c0-11.8,4.9-16.2,16.8-14.9c6,3.2,8,8.4,7.9,14.9c-0.1,13.1,0,26.2-0.1,39.4c0,3.5,1.3,6,4.9,6.4
		c3.9,0.4,5.6-2.4,6.1-5.9c0.1-1.5,0.2-3,0.1-4.5c0-17.9,0.2-35.9-0.1-53.8c-0.1-7.3,2.4-12.1,9.3-14.6h0.7
		c10.3,0,14.8,4.5,14.9,15.2c0.1,6.6,0,13.3,0.1,19.9c0.1,3.4,2.1,5.4,5.3,5.4c2.8,0.1,5.1-2.1,5.1-4.9c0-0.1,0-0.1,0-0.2
		c0.2-2.5,0.1-5,0.2-7.5c0.4-7.7,5.4-12.4,12.8-12.2c7.3,0.2,11.8,4.8,11.9,12.5s0.1,15.3,0,22.9c0,4,0.5,7.5,5.4,8
		c0.1,0.2,0.3,0.3,0.6,0.3c0.9-0.1,1.7-0.4,2.5-0.9C302.1,329.5,300.8,300.5,300.4,286.8z"/>
	<path class="st0" d="M441.2,223.6c3,2.2,0.4,6.1,0.5,22.2c0,10.4,1.2,25.4,1.2,34.5c0,0.1,0,0.2,0,0.6c0,3.8-0.1,7.6-0.2,11.5
		c0,3.6-1.5,6.4-5.4,6.4s-5.4-2.8-5.5-6.4c-0.1-2.8,0.1-5.7,0-8.5c-0.1-6.7-5.5-12-12.2-12c-5.9,0.1-10.9,4.4-11.8,10.2
		c-0.4,2.3-0.6,4.6-0.6,6.9c-0.1,16.6,0,33.3,0,49.9c0,6.5-1.5,9.1-5.3,8.8c-5.7-0.6-5.2-5-5.3-9.1c0-21.1,0.1-42.3,0-63.4
		c0.1-1.7,0-3.3-0.2-5c-1.1-6.7-6.6-11.4-12.7-11c-6.8,0.5-11.6,5.4-11.7,12.5c-0.1,12,0,24,0,36c0,4.2,0,8.3,0,12.5
		c0,3.8-1.2,6.8-5.5,6.6s-5.5-3.1-5.5-6.9c0-4.2,0.1-8.3,0-12.5c-0.1-6.5-4.5-11.2-10.6-11.8c-6.9-0.6-12.2,3.2-13.5,9.8
		c-1.3,6.9-0.4,14-0.6,20.9c-0.1,5.3,0,10.6,0,16c0,3.4-1.6,5.4-5.1,5.5c-3.7,0.1-5.3-2-5.3-5.7c0-15.3,0.1-30.6,0-45.9
		c0-7.9-3.9-12.8-10.9-13.9c-0.7-0.1-1.4-0.1-2.1,0.1c-6.2,1.7-9.8,10.2-11.8,9.5c-0.7-0.3-1-1.7-0.7-9.6c0.1-4.5,0.3-7.7,0.5-10.2
		c0.2-3.8-0.8-11.1-1.2-15.7c-0.1-1.2-0.3-3.4,1-4.8c1.1-0.9,2.5-1.4,3.9-1.3c9.9-0.1,58.3-6.4,72.1-9.9c7.7-2,13.4-3.9,18.2-5.3
		c3.5-1,3.3-1.4,6.1-2.4c8-2.9,12.6-3.2,19.9-4.8C435.8,225,438.3,221.6,441.2,223.6z"/>
</g>
</svg>
