<svg xmlns="http://www.w3.org/2000/svg" xmlns:xlink="http://www.w3.org/1999/xlink" viewBox="0 0 523.28 478.29"><defs><style>.cls-1{fill:#995378;}.cls-2{fill:url(#linear-gradient);}.cls-3{fill:url(#linear-gradient-2);}.cls-4{fill:#de76ac;}.cls-5{fill:#fff;}.cls-6{fill:url(#linear-gradient-3);}</style><linearGradient id="linear-gradient" x1="193.17" y1="295.94" x2="193.12" y2="204.01" gradientUnits="userSpaceOnUse"><stop offset="0" stop-color="#de76ac"/><stop offset="1" stop-color="#965175"/></linearGradient><linearGradient id="linear-gradient-2" x1="364.85" y1="295.83" x2="364.79" y2="203.9" xlink:href="#linear-gradient"/><linearGradient id="linear-gradient-3" x1="370.51" y1="421.11" x2="370.45" y2="329.18" xlink:href="#linear-gradient"/></defs><title>cake</title><g id="CAKE"><g id="cake-2" data-name="cake"><polygon class="cls-1" points="246.76 111.58 398.21 151.09 396.34 266.45 222.34 230.81 246.76 111.58"/><path class="cls-2" d="M267.8,165.19c-2.4-3.24-4.62-7-7-10.67-4.28-4.07-8.47-8.24-12.65-12.42a4.68,4.68,0,0,1-1.47-3.31.56.56,0,0,0,0-.12H96.47v108h0c1.34,29.62,70.56,53.48,155.77,53.48,12.93,0,25.49-.55,37.51-1.59v-106C281,184.65,274.76,174.59,267.8,165.19Z"/><path class="cls-3" d="M321.44,138.67l2.28.29c23.83,3.15,46.68,9.3,70.1,14.39,4.83,1.05,4.38,7,1.08,9a5.06,5.06,0,0,1,.34,1.89V267.39C403.17,261,407.7,254,408,246.64h0v-108Z"/><path class="cls-4" d="M252.27,84.32c-86.05,0-155.8,24.34-155.8,54.35S166.22,193,252.27,193c12.45,0,24.55-.51,36.16-1.47l.27,0c-8.19-7.7-14.31-17.26-20.9-26.33-2.74-3.77-25.24-34-24.77-35.3-.07-2,22.42,1.88,28.58,2.55,5.64.63,40.38,5,52.11,6.52,23.83,3.15,46.68,9.3,70.1,14.39a4.34,4.34,0,0,1,3.53,5.17c6.91-6.15,10.72-12.84,10.72-19.85C408.07,108.66,338.31,84.32,252.27,84.32Z"/><path class="cls-5" d="M260,177.45a6.54,6.54,0,0,0,.25-1.78c0-4.08-3.57-7.39-8-7.39s-8,3.31-8,7.39a7,7,0,0,0,.24,1.78c-2.52.68-4.12,1.68-4.12,2.8,0,2,5.3,3.7,11.84,3.7s11.84-1.66,11.84-3.7C264.11,179.13,262.51,178.13,260,177.45Z"/><path class="cls-5" d="M198,174.3a5.21,5.21,0,0,0,.31-1.47c.16-3.4-3.17-6.33-7.44-6.54s-7.88,2.39-8,5.79a5.28,5.28,0,0,0,.16,1.49c-2.48.45-4.08,1.21-4.12,2.14-.09,1.7,5,3.33,11.36,3.64s11.59-.82,11.67-2.52C202,175.89,200.46,175,198,174.3Z"/><path class="cls-5" d="M148.68,155.21a4.93,4.93,0,0,0,.16-1.23A5.41,5.41,0,0,0,138,154a5,5,0,0,0,.16,1.23c-1.71.48-2.8,1.18-2.8,1.95,0,1.42,3.61,2.56,8.06,2.55s8-1.17,8-2.59C151.49,156.37,150.4,155.68,148.68,155.21Z"/><path class="cls-5" d="M123.45,134.14a4.93,4.93,0,0,0,.16-1.23,5.42,5.42,0,0,0-10.82,0,5.53,5.53,0,0,0,.17,1.23c-1.71.48-2.8,1.18-2.8,2,0,1.42,3.61,2.56,8.06,2.55s8-1.17,8-2.59C126.26,135.3,125.16,134.61,123.45,134.14Z"/><path class="cls-5" d="M145.68,108.16a3,3,0,0,0,.16-.94c0-2.17-2.43-3.92-5.42-3.91s-5.4,1.77-5.4,3.94a3,3,0,0,0,.17.94c-1.71.36-2.8.9-2.8,1.49,0,1.09,3.61,2,8.05,1.94s8.05-.9,8-2C148.48,109.05,147.39,108.52,145.68,108.16Z"/><path class="cls-5" d="M184.13,93.66a2.74,2.74,0,0,0,.17-.94c0-2.17-2.44-3.92-5.42-3.91s-5.4,1.77-5.4,3.94a2.74,2.74,0,0,0,.17.94c-1.72.36-2.8.9-2.8,1.49,0,1.09,3.61,1.95,8.05,1.94s8-.9,8-2C186.94,94.54,185.85,94,184.13,93.66Z"/><path class="cls-5" d="M227.58,87.23a3,3,0,0,0,.16-.94c0-2.17-2.43-3.92-5.41-3.91s-5.41,1.77-5.4,3.94a3,3,0,0,0,.16.94c-1.71.36-2.8.9-2.8,1.49,0,1.09,3.61,2,8.06,1.94s8-.9,8-2C230.39,88.12,229.3,87.59,227.58,87.23Z"/><path class="cls-5" d="M269.35,87.23a3,3,0,0,0,.16-.94c0-2.17-2.43-3.92-5.42-3.91s-5.4,1.77-5.39,3.94a3,3,0,0,0,.16.94c-1.71.36-2.8.9-2.8,1.49,0,1.09,3.61,2,8.06,1.94s8-.9,8-2C272.16,88.12,271.07,87.59,269.35,87.23Z"/><path class="cls-5" d="M311.81,91.39a3,3,0,0,0,.16-.94c0-2.17-2.43-3.92-5.42-3.91s-5.4,1.77-5.4,3.93a3,3,0,0,0,.17,1c-1.71.36-2.8.9-2.8,1.49,0,1.08,3.61,2,8.05,1.94s8.05-.9,8-2C314.61,92.27,313.52,91.75,311.81,91.39Z"/><path class="cls-5" d="M356.81,99.71a3.05,3.05,0,0,0,.16-.95c0-2.16-2.43-3.92-5.42-3.91s-5.4,1.77-5.4,3.94a3,3,0,0,0,.17.94c-1.71.37-2.8.9-2.8,1.5,0,1.08,3.61,2,8.05,1.94s8.05-.9,8-2C359.61,100.59,358.52,100.06,356.81,99.71Z"/><path class="cls-5" d="M390.15,125.16a3.16,3.16,0,0,0,.21-1.1c0-2.54-3.07-4.59-6.83-4.58s-6.8,2.07-6.8,4.61a3.47,3.47,0,0,0,.21,1.11c-2.16.43-3.53,1-3.52,1.75,0,1.27,4.54,2.29,10.14,2.27s10.13-1.05,10.13-2.32C393.69,126.2,392.31,125.58,390.15,125.16Z"/></g></g><g id="piece-2" data-name="piece"><g id="Layer_7" data-name="Layer 7"><path class="cls-5" d="M417.91,287.48a3.25,3.25,0,0,0,.2-1.11c0-2.54-3.06-4.59-6.82-4.58s-6.8,2.08-6.8,4.62a3.16,3.16,0,0,0,.21,1.1c-2.16.43-3.53,1.06-3.53,1.75,0,1.27,4.55,2.29,10.15,2.28s10.13-1.06,10.13-2.33C421.45,288.51,420.07,287.89,417.91,287.48Z"/><polygon class="cls-1" points="311.41 267.37 346.38 310.78 343.35 422.8 312 376.13 311.41 267.37"/><path class="cls-6" d="M363,275.12c-9-1.55-20-3.44-34.57-5.49-7-1-12.9-1.75-17.06-2.26,4.62,5.5,8.52,12,12.79,16.7a5.7,5.7,0,0,1,1.2,1.95,128.7,128.7,0,0,1,16.94,26.71,5.56,5.56,0,0,1,.45,1.46,4.89,4.89,0,0,1,.56,2.35V422.8c35.9-4,66.14-12.43,85.46-23.44V289.54a5,5,0,0,1,.61-2.47C418.16,285,391,280,363,275.12Z"/><path class="cls-4" d="M328.47,269.63c-5.69-.81-11.34-1.73-17.06-2.26,4.62,5.5,8.52,12,12.79,16.7.58.64,13.73,19.14,18.14,28.66a5.5,5.5,0,0,1,.47,1.55,4.54,4.54,0,0,1,.47,1.43c35.94-4,66.2-12.44,85.53-23.45v-2.72a5,5,0,0,1,.61-2.47C407.52,282.16,340.17,271.3,328.47,269.63Z"/><path class="cls-5" d="M366.29,299.41a6.52,6.52,0,0,0,.25-1.77,8,8,0,0,0-15.92,0,6.93,6.93,0,0,0,.24,1.77c-2.52.68-4.12,1.68-4.12,2.8,0,2,5.3,3.7,11.84,3.7s11.84-1.66,11.84-3.7C370.42,301.09,368.82,300.09,366.29,299.41Z"/><path class="cls-5" d="M412.77,287.48a3.25,3.25,0,0,0,.2-1.11c0-2.54-3.06-4.59-6.82-4.58s-6.81,2.08-6.8,4.62a3.16,3.16,0,0,0,.21,1.1c-2.16.43-3.53,1.06-3.53,1.75,0,1.27,4.54,2.29,10.14,2.28s10.14-1.06,10.13-2.33C416.3,288.51,414.93,287.89,412.77,287.48Z"/></g></g></svg>
