<svg xmlns="http://www.w3.org/2000/svg" xmlns:xlink="http://www.w3.org/1999/xlink" viewBox="0 0 595.28 478.29"><defs><style>.cls-1{fill:#995378;}.cls-2{fill:url(#linear-gradient);}.cls-3{fill:url(#linear-gradient-2);}.cls-4{fill:#de76ac;}.cls-5{fill:#fff;}.cls-6{fill:url(#linear-gradient-3);}</style><linearGradient id="linear-gradient" x1="235.04" y1="289.44" x2="234.98" y2="197.51" gradientUnits="userSpaceOnUse"><stop offset="0" stop-color="#de76ac"/><stop offset="1" stop-color="#965175"/></linearGradient><linearGradient id="linear-gradient-2" x1="406.72" y1="289.33" x2="406.66" y2="197.39" xlink:href="#linear-gradient"/><linearGradient id="linear-gradient-3" x1="450.02" y1="444.93" x2="449.96" y2="353" xlink:href="#linear-gradient"/></defs><title>cake</title><g id="CAKE"><g id="cake-2" data-name="cake"><polygon class="cls-1" points="288.63 105.07 440.07 144.59 438.2 259.95 264.2 224.31 288.63 105.07"/><path class="cls-2" d="M309.66,158.69c-2.4-3.24-4.61-7-7-10.67-4.28-4.07-8.47-8.24-12.65-12.42a4.68,4.68,0,0,1-1.47-3.31.56.56,0,0,0,0-.12H138.33v108h0c1.34,29.61,70.56,53.48,155.77,53.48,12.93,0,25.49-.56,37.51-1.59V186C322.89,178.15,316.62,168.09,309.66,158.69Z"/><path class="cls-3" d="M363.3,132.17l2.29.29c23.82,3.14,46.67,9.3,70.09,14.39,4.83,1.05,4.38,7,1.08,9a5.06,5.06,0,0,1,.34,1.89v103.1c7.93-6.37,12.46-13.38,12.8-20.74h0v-108Z"/><path class="cls-4" d="M294.13,77.82c-86,0-155.8,24.33-155.8,54.35s69.76,54.35,155.8,54.35c12.45,0,24.55-.51,36.16-1.47l.27,0c-8.19-7.71-14.31-17.26-20.9-26.33-2.74-3.77-25.23-34-24.77-35.31-.07-2,22.42,1.88,28.58,2.56,5.64.62,40.39,5,52.12,6.52,23.82,3.14,46.67,9.3,70.09,14.39a4.34,4.34,0,0,1,3.53,5.17c6.92-6.15,10.72-12.85,10.72-19.85C449.93,102.15,380.17,77.82,294.13,77.82Z"/><path class="cls-5" d="M301.85,171a7,7,0,0,0,.24-1.78c0-4.08-3.57-7.39-8-7.39s-8,3.31-8,7.39a7,7,0,0,0,.24,1.78c-2.52.67-4.12,1.68-4.12,2.8,0,2,5.3,3.69,11.84,3.69S306,175.79,306,173.75C306,172.63,304.37,171.62,301.85,171Z"/><path class="cls-5" d="M239.89,167.8a5.21,5.21,0,0,0,.31-1.47c.16-3.41-3.17-6.33-7.44-6.54s-7.87,2.38-8,5.79a5.28,5.28,0,0,0,.16,1.49c-2.48.44-4.08,1.2-4.12,2.14-.09,1.7,5,3.33,11.37,3.64s11.58-.82,11.66-2.53C243.84,169.39,242.32,168.48,239.89,167.8Z"/><path class="cls-5" d="M190.54,148.71a5.06,5.06,0,0,0,.16-1.23,5.41,5.41,0,0,0-10.81,0,5.08,5.08,0,0,0,.16,1.24c-1.71.47-2.8,1.17-2.79,1.95,0,1.42,3.61,2.56,8.05,2.55s8-1.17,8-2.59C193.35,149.87,192.26,149.18,190.54,148.71Z"/><path class="cls-5" d="M165.31,127.64a5,5,0,0,0,.16-1.23,5.41,5.41,0,0,0-10.81,0,5.06,5.06,0,0,0,.16,1.23c-1.71.47-2.8,1.17-2.8,2,0,1.42,3.61,2.56,8.06,2.55s8-1.17,8-2.59C168.12,128.8,167,128.11,165.31,127.64Z"/><path class="cls-5" d="M187.54,101.66a3,3,0,0,0,.16-.94c0-2.17-2.43-3.92-5.42-3.91s-5.4,1.77-5.4,3.93a3.39,3.39,0,0,0,.17,1c-1.71.36-2.8.9-2.8,1.49,0,1.08,3.61,1.95,8.05,1.94s8-.9,8-2C190.34,102.54,189.25,102,187.54,101.66Z"/><path class="cls-5" d="M226,87.16a3,3,0,0,0,.16-1c0-2.16-2.43-3.91-5.42-3.91s-5.4,1.78-5.4,3.94a2.8,2.8,0,0,0,.17,1c-1.72.36-2.8.89-2.8,1.49,0,1.08,3.61,1.95,8,1.94s8.05-.9,8-2C228.8,88,227.71,87.51,226,87.16Z"/><path class="cls-5" d="M269.44,80.73a3,3,0,0,0,.16-.94c0-2.17-2.43-3.92-5.41-3.91s-5.41,1.77-5.4,3.93a2.8,2.8,0,0,0,.17,1c-1.72.36-2.81.9-2.8,1.49,0,1.08,3.6,2,8,1.94s8-.9,8-2C272.25,81.61,271.16,81.08,269.44,80.73Z"/><path class="cls-5" d="M311.21,80.73a3,3,0,0,0,.16-.94c0-2.17-2.43-3.92-5.41-3.91s-5.41,1.77-5.4,3.93a2.8,2.8,0,0,0,.17,1c-1.72.36-2.81.9-2.81,1.49,0,1.08,3.61,2,8.06,1.94s8-.9,8-2C314,81.61,312.93,81.08,311.21,80.73Z"/><path class="cls-5" d="M353.67,84.89a3.05,3.05,0,0,0,.16-1c0-2.16-2.43-3.91-5.42-3.91S343,81.8,343,84a3.26,3.26,0,0,0,.17.94c-1.71.37-2.8.9-2.8,1.5,0,1.08,3.61,2,8.05,1.94s8.05-.9,8.05-2C356.47,85.77,355.38,85.24,353.67,84.89Z"/><path class="cls-5" d="M398.67,93.2a2.94,2.94,0,0,0,.16-.94c0-2.17-2.43-3.92-5.42-3.91s-5.4,1.77-5.4,3.94a3.32,3.32,0,0,0,.17.94c-1.71.36-2.8.9-2.8,1.49,0,1.09,3.61,2,8.05,2s8.05-.9,8.05-2C401.47,94.09,400.38,93.56,398.67,93.2Z"/><path class="cls-5" d="M432,118.66a3.16,3.16,0,0,0,.21-1.1c0-2.54-3.07-4.6-6.83-4.59s-6.8,2.08-6.79,4.62a3.25,3.25,0,0,0,.2,1.11c-2.15.42-3.53,1-3.52,1.75,0,1.27,4.54,2.29,10.14,2.27s10.13-1.06,10.13-2.33C435.55,119.7,434.17,119.08,432,118.66Z"/></g></g><g id="piece-2" data-name="piece"><g id="Layer_7" data-name="Layer 7"><path class="cls-5" d="M497.42,311.29a3.16,3.16,0,0,0,.21-1.1c0-2.54-3.07-4.59-6.83-4.58s-6.8,2.07-6.8,4.61a3.47,3.47,0,0,0,.21,1.11c-2.16.43-3.53,1.05-3.52,1.75,0,1.27,4.54,2.29,10.14,2.27S501,314.3,501,313C501,312.33,499.58,311.71,497.42,311.29Z"/><polygon class="cls-1" points="390.92 291.18 425.89 334.6 422.86 446.62 391.51 399.95 390.92 291.18"/><path class="cls-6" d="M442.55,298.94c-9-1.56-20-3.44-34.57-5.5-7-1-12.9-1.74-17.06-2.26,4.62,5.5,8.52,12,12.8,16.71a5.58,5.58,0,0,1,1.19,1.95,128.63,128.63,0,0,1,16.94,26.7,6.29,6.29,0,0,1,.46,1.46,5.06,5.06,0,0,1,.55,2.35V446.62c35.91-4,66.15-12.43,85.46-23.45V313.35a5,5,0,0,1,.61-2.46C497.67,308.8,470.51,303.79,442.55,298.94Z"/><path class="cls-4" d="M408,293.44c-5.68-.81-11.34-1.73-17.06-2.26,4.62,5.5,8.52,12,12.8,16.71.58.63,13.72,19.14,18.13,28.65a5.7,5.7,0,0,1,.47,1.55,4.63,4.63,0,0,1,.47,1.43c35.94-4,66.2-12.43,85.53-23.45v-2.72a5,5,0,0,1,.61-2.46C487,306,419.68,295.11,408,293.44Z"/><path class="cls-5" d="M445.81,323.23a7,7,0,0,0,.24-1.78,7.69,7.69,0,0,0-8-7.39c-4.39,0-8,3.31-8,7.39a6.54,6.54,0,0,0,.25,1.78c-2.53.68-4.13,1.68-4.13,2.8,0,2,5.3,3.7,11.84,3.7s11.84-1.66,11.84-3.7C449.93,324.91,448.33,323.91,445.81,323.23Z"/><path class="cls-5" d="M492.28,311.29a3.15,3.15,0,0,0,.2-1.1c0-2.54-3.06-4.59-6.82-4.58s-6.81,2.07-6.8,4.61a3.22,3.22,0,0,0,.21,1.11c-2.16.43-3.53,1.05-3.53,1.75,0,1.27,4.55,2.29,10.15,2.27s10.13-1.05,10.13-2.32C495.81,312.33,494.44,311.71,492.28,311.29Z"/></g></g></svg>
