<svg xmlns="http://www.w3.org/2000/svg" viewBox="0 0 482.14 478.29">
	<defs>
		<style>
			.cls-1{fill:#ffda53;}.cls-2{fill:#d1a446;}.cls-3{fill:#f4c634;}.cls-4{fill:#a0772d;}.cls-5{fill:#5c5233;}.cls-6{fill:#5c5132;}
		</style>
		<style>
			#halfcookie {
			animation: cracking 2s ease-in-out alternate infinite;
			transform-origin: center;
			animation-delay: 1s;
			}
			@keyframes cracking {
			from {
			transform: translate(0px, 0px);
			}
			to {
			transform: translate(40px, 30px);
			}
			}
		</style>
	</defs>
	<title>
		cookiecrack
	</title>
	<g id="firsthalf">
		<g id="firsthalf-2" data-name="firsthalf">
			<path class="cls-1" d="M287.79,391.85a53.81,53.81,0,0,0-12.39,4.65c-19.53,9.77-29.77,7.32-38.55,2.94s-26.34-7.81-26.34-7.81l7-12.27,38.66-68L264.33,297l1.32-2.33,2.68,5.93,4.05,9,9.28,20.56-10.45,47.29,6.88,6Z" />
			<polygon class="cls-2" points="286.6 257.93 286.3 258.34 286.57 257.86 286.6 257.93" />
			<path class="cls-1" d="M330.47,166.93l-3.34,3.35-1.54,1.54-51.83,52,12.81,34-.27.48-22.67,31.81,2,4.5L264.33,297l-8.18,14.38-38.66,68-7,12.27c-15.4-.72-23.68-3.38-28.09-5.93-4.71-2.71-5.09-5.3-5.09-5.3l-13.59-14.86-7.38-8.06a83.33,83.33,0,0,1-13.54-9.2c-5.24-4.44-10.26-10.12-11.35-16.18C129,318.44,122.69,296,122.69,296s-12.68-24.4-4.88-35.13,9.27-36.1,9.27-36.1-2.92-7.81,8.3-21,22-18.05,22-18.05c31.22-30.74,30.73-27.81,30.73-27.81,32.21-5.37,37.57-7.8,37.57-7.8a57.58,57.58,0,0,1,57.56,2.43c-.47,6.34,16.11,4.88,35.62,9.27A30,30,0,0,1,330.47,166.93Z" />
			<path class="cls-1" d="M286.57,257.86l0,.07-.3.41-22.67,31.81,2,4.5,2.68,5.93,4.05,9,9.28,20.56-10.45,47.29,6.88,6c-.29.13-.59.28-.88.43-17.93,9-27.34,6.71-35.41,2.69s-24.19-7.16-24.19-7.16h-.12c-29-1.36-30.34-10.28-30.34-10.28l-19.27-21S147.27,337.3,145,324.77,137,291.66,137,291.66s-11.64-22.37-4.47-32.22S141,226.33,141,226.33s-2.7-7.15,7.62-19.24c1.52-1.79,3-3.4,4.51-4.86,8.23-8.19,15.2-11.49,15.63-11.68h0c.37-.38.75-.74,1.11-1.09l2.11-2.07C197.42,162.55,197,165,197,165c29.56-4.92,34.49-7.16,34.49-7.16a53.14,53.14,0,0,1,26.93-6,52.45,52.45,0,0,1,25.95,8.2c-.26,3.39,4.81,4.35,12.66,5.36,4.58.59,10.12,1.2,16.07,2.32,1.31.25,2.63.53,4,.82a29.73,29.73,0,0,1,8.51,3.21l-51.83,52Z" />
			<path class="cls-3" d="M288.67,256.16l-25,34q10,20,19.93,39.88-6.18,23.7-12.35,47.39l16.58,14.43c-6,2-10.75,4-13.94,5.4-3.62,1.59-5.47,2.56-7.8,3.36-1.14.39-2.59.77-2.59.77-1.08.33-2.68.77-4.48,1.14,0,0-1.14.22-2.78.46a10,10,0,0,1-1.21.14,2,2,0,0,0-.73,0s-.18.07-.21,0h0s-4.06-27.25-4.69-31.45c-9.65-64.35-12.12-76.51-19.7-115-6.1-31-3.8-37.79-12.47-63.74a249.94,249.94,0,0,0-16-37.36,102.88,102.88,0,0,0,14.44-2.87c7.45-2.05,9.54-3.54,19.23-6.46,6.82-2,10.23-3.07,14-3.35,7.71-.57,13.69,1.2,18.49,2.62a68.56,68.56,0,0,1,15.86,7,48.58,48.58,0,0,0,14.68,6c3.55.78,4.26.49,16.38,2.37a38.62,38.62,0,0,1,10.45,2.79,34.4,34.4,0,0,1,5.77,3.24q-28.37,28.44-56.71,56.89Z" />
			<path class="cls-2" d="M219.65,328.93s4.39,13.91-7.31,23.79c0,0-9.52,1.83-12.81,0s-12.81-18.3-9.88-23.79S212.34,316.86,219.65,328.93Z" />
			<path class="cls-4" d="M273.43,201.75s-13.44-5.66-13.38-21c0,0,4.77-8.44,8.29-9.76s22.24,2.09,24.52,7.87S287.37,204,273.43,201.75Z" />
			<path class="cls-2" d="M189.16,255c2-.11,11.05-1.46,15.68-20.49s-4.15-18.84-4.15-18.84.36-2.38-8.05-5.31-26.71,9.15-30.37,12.44-4.3,13.81-2.1,15.64S162.63,256.49,189.16,255Z" />
			<polygon class="cls-5" points="222.87 294.75 214.72 303.81 206.64 296.53 202.71 292.99 213.51 280.98 214.82 282.16 218.82 285.75 222.87 294.75" />
			<rect class="cls-5" x="249.39" y="223.36" width="13.44" height="13.44" transform="translate(219.63 -112.26) rotate(41.98)" />
			<path class="cls-5" d="M189.29,217.77c-6.59-.54-16.1,3.85-16.1,3.85l-9.51,7.5s-2.56,5.12,4.57,13.54S184,247.59,184,247.59s8.79-3.65,8.6-17.74S189.29,217.77,189.29,217.77Z" />
			<path class="cls-5" d="M202.1,348.47s3.11,2.16,9.51-8.81,1.65-12.14,1.83-12.3c0,0-8.05-.89-16.83,5.12,0,0-1.83,3.69,1.83,9.84S201.19,348.3,202.1,348.47Z" />
		</g>
		<path class="cls-6" d="M273.52,175.4l-3.35,1a11.26,11.26,0,0,0-5.94,9.51c-.37,7,15.64,3,15.64,3s8.58-2.9,9.15-4.86,2.55-4.05-8.25-8.57Z" />
		<path fill="#fff" d="M129.21,87.41a21.22,21.22,0,0,1-3.28,10.74,19.84,19.84,0,0,1-8.42,7.23,28.79,28.79,0,0,1-12.39,2.56q-11.48,0-18.08-7.49T80.43,79.32V76.44a35.34,35.34,0,0,1,3-15A22.59,22.59,0,0,1,92,51.53,24,24,0,0,1,105,48q10.61,0,17.05,5.58T129.33,69h-14q-.17-5.32-2.68-7.64T105,59c-3.49,0-6,1.3-7.68,3.92s-2.48,6.79-2.56,12.52V79.6q0,9.33,2.34,13.33t8.06,4q4.84,0,7.41-2.28t2.72-7.24Z" />
		<path fill="#fff" d="M185.2,79.2A34.3,34.3,0,0,1,182,94.29a23.34,23.34,0,0,1-9,10.1,25,25,0,0,1-13.27,3.55,25.39,25.39,0,0,1-13.21-3.42,23.42,23.42,0,0,1-9-9.79,33.24,33.24,0,0,1-3.38-14.61V76.84a34.39,34.39,0,0,1,3.14-15.1,23.26,23.26,0,0,1,9-10.11,25.24,25.24,0,0,1,13.35-3.56,24.9,24.9,0,0,1,13.2,3.52,23.75,23.75,0,0,1,9,10,33.63,33.63,0,0,1,3.26,14.9Zm-14.29-2.44q0-8.69-2.9-13.18a9.3,9.3,0,0,0-8.3-4.5q-10.58,0-11.17,15.84l0,4.28q0,8.56,2.84,13.17a9.3,9.3,0,0,0,8.45,4.6,9.18,9.18,0,0,0,8.2-4.52q2.88-4.52,2.92-13Z" />
		<path fill="#fff" d="M241.78,79.2a34.3,34.3,0,0,1-3.16,15.09,23.28,23.28,0,0,1-9,10.1,24.93,24.93,0,0,1-13.27,3.55,25.36,25.36,0,0,1-13.2-3.42,23.44,23.44,0,0,1-9-9.79,33.52,33.52,0,0,1-3.38-14.61V76.84a34.53,34.53,0,0,1,3.14-15.1,23.35,23.35,0,0,1,9-10.11,25.21,25.21,0,0,1,13.34-3.56,24.93,24.93,0,0,1,13.21,3.52,23.72,23.72,0,0,1,9,10,33.36,33.36,0,0,1,3.26,14.9ZM227.5,76.76q0-8.69-2.9-13.18a9.33,9.33,0,0,0-8.31-4.5q-10.56,0-11.16,15.84l0,4.28q0,8.56,2.84,13.17a9.88,9.88,0,0,0,16.65.08q2.88-4.52,2.92-13Z" />
		<path fill="#fff" d="M268.84,85.45l-5.77,6.32v15.37H249V48.87h14V74.56l4.89-7.4,12.56-18.29h17.37L278.2,74.64l19.69,32.5H281.24Z" />
		<path fill="#fff" d="M316.42,107.14h-14V48.87h14Z" />
		<path fill="#fff" d="M362.32,82.41H340.23V96.33h26.09v10.81H326.18V48.87H366.4V59.72H340.23V72h22.09Z" />
		<path fill="#fff" d="M402.09,91.65a5.75,5.75,0,0,0-2.18-4.8,26.82,26.82,0,0,0-7.66-3.56,72.9,72.9,0,0,1-9-3.57Q372,74.17,372,64.44a13.73,13.73,0,0,1,2.82-8.55,18.32,18.32,0,0,1,8-5.76,31.13,31.13,0,0,1,11.6-2.06,27.29,27.29,0,0,1,11.27,2.24,17.87,17.87,0,0,1,7.74,6.38,16.71,16.71,0,0,1,2.76,9.47h-14A7,7,0,0,0,400,60.64a8.48,8.48,0,0,0-5.9-2,9.55,9.55,0,0,0-5.94,1.66,5.06,5.06,0,0,0-2.18,4.22,5.13,5.13,0,0,0,2.4,4.06q2.4,1.81,8.44,3.76a52.47,52.47,0,0,1,9.93,4.18q9.44,5.44,9.44,15a14.2,14.2,0,0,1-5.76,12q-5.76,4.37-15.81,4.37a31.38,31.38,0,0,1-12.82-2.54,19.42,19.42,0,0,1-8.65-7,18.17,18.17,0,0,1-2.9-10.18h14.09c0,3.12.8,5.42,2.42,6.9s4.23,2.22,7.86,2.22a9,9,0,0,0,5.5-1.5A5,5,0,0,0,402.09,91.65Z" />
		<rect class="cls-3" x="294.06" y="238.91" width="13.44" height="13.44" transform="translate(241.49 -138.15) rotate(41.98)" />
		<rect class="cls-3" x="287.17" y="226.16" width="8.23" height="8.23" transform="translate(452.09 -104.42) rotate(77.33)" />
		<rect class="cls-3" x="281.43" y="311.47" width="15.94" height="8.46" transform="translate(418.1 -92.77) rotate(60)" />
		<rect class="cls-3" x="275.52" y="278.83" width="8.23" height="8.23" transform="translate(-116.74 316.63) rotate(-50.19)" />
		<rect class="cls-3" x="306.17" y="193.75" width="8.23" height="8.23" transform="translate(-40.36 309.56) rotate(-50.19)" />
		<rect class="cls-3" x="277.88" y="372.22" width="8.23" height="8.23" transform="translate(-187.64 352.05) rotate(-50.19)" />
		<rect class="cls-3" x="274.76" y="294.18" width="9.76" height="9.76" transform="translate(678.45 206.42) rotate(120)" />
		<rect class="cls-3" x="284.51" y="335.12" width="4.44" height="4.44" transform="translate(-155.98 341.65) rotate(-50.19)" />
	</g>
	<g id="halfcookie">
		<g id="halfcookie-2" data-name="halfcookie">
			<path class="cls-3" d="M386,283.06c-4.39,8.29-9.75,24.4-9.75,24.4C369.46,345.51,363.12,345,363.12,345c-22.93,17.08-22.93,19.51-22.93,19.51a59.88,59.88,0,0,1-10.61,12.17,58.45,58.45,0,0,1-23.06,13.21,54.8,54.8,0,0,1-18.73,1.94l-3.27-2.71-6.43-5.73-1.27-1.78-5.61-4.21q4.57-24.53,9.17-49.06l-8.92-19.79-.36-.77-2-4.45-4.55-10.11,65.61-115.37,2.61-4.58.65-1.15c.63.84,1.21,1.7,1.74,2.56,3.07,5,4.64,10.19,7.46,13.72a14,14,0,0,0,5.07,3.75c6.9,3.25,16.92,4.09,23.71,14.29.24.37.48.74.71,1.13,8.1,13.71,8.57,42.78,8.57,42.78S390.44,274.76,386,283.06Z" />
			<path class="cls-3" d="M333.41,172.14l-.65,1.15-2.61,4.58L264.54,293.24l-.17-.36-2-4.5L285,256.56l.27-.48-12.82-34c25.21-14.52,41.62-32,51.88-50.73l.12-.22,6-4.17Z" />
			<path class="cls-3" d="M378.65,279.81c-4,7.61-9,22.38-9,22.38-6.27,34.9-12.1,34.44-12.1,34.44-21,15.67-21,17.91-21,17.91-10,14.89-22,19.24-30.92,23.27-5.74,2.58-7.81-.3-15.65,1.44a53.64,53.64,0,0,0-11.88,4.16l-1.76-1.54q-2.56-2.22-5.12-4.45l9.16-49.06-8.92-19.79-.35-.77-2-4.45q-2.26-5.06-4.55-10.11l-4.49-6.66,25-30,.27-.48q-6.94-16.48-13.9-33l52.08-52.37a6.11,6.11,0,0,1,2.28,1.58,8.85,8.85,0,0,1,1.27,2.23c1,1.9,2.62,2.68,3.13,3.34,4.08,5.22,5.54,11.29,8.62,15.14,5.39,6.7,18.37,4.47,26.45,16.55s8.5,40.27,8.5,40.27S382.69,272.2,378.65,279.81Z" />
			<path class="cls-4" d="M334.69,249.4s-7.32,5.85-3.66,16.46,18.3,5.49,18.3,5.49l6.58-3.29s8.78-12.07,4-18.66S342.37,244.28,334.69,249.4Z" />
			<path class="cls-4" d="M310.54,276.48c7.24,3,7.68,8.41,8.42,14.63s-1.83,12.81-7,15.37-20.85,0-28.54-7-1.83-13.54,0-16.1S303.59,273.55,310.54,276.48Z" />
			<path class="cls-5" d="M299.34,329.9l-7.46,8.16,9.88,9.4s7.68-8.92,7.68-9.4S299.34,329.9,299.34,329.9Z" />
			<polygon class="cls-5" points="308.29 227.7 317.07 234.87 325.86 225.72 317.07 218.04 308.29 227.7" />
			<path class="cls-6" d="M286.94,294.64c1.66,2.86,9.88,1.59,9.88,1.59l8.42.28a17.51,17.51,0,0,0,7.26-8.76c2.2-6-2.11-8.2-2.11-8.2s-15.2-1.26-22.35,4.06S286.94,294.64,286.94,294.64Z" />
			<path class="cls-6" d="M336.89,251.41l-2.57,2.38A11.26,11.26,0,0,0,333.23,265c2.74,6.4,15.36-4.21,15.36-4.21s6.41-6.4,6-8.41.49-4.76-11.19-4Z" />
		</g>
	</g>
</svg>
