<svg xmlns="http://www.w3.org/2000/svg" viewBox="0 0 509.14 478.29">
	<defs>
		<style>
			.cls-1{fill:deeppink;}.cls-2{fill:hotpink;}.cls-3{fill:none;stroke:#fff;stroke-linecap:round;stroke-miterlimit:10;stroke-width:4px;}
		</style>
		<style>
			#jelly {
			animation: skew 1s ease-in-out alternate infinite;
			transform-origin: bottom;
			animation-delay: 1s;
			}
			@keyframes skew {
			
			to {
			transform: scaleY(0.9);
			}
			}
		</style>
	</defs>
	<title>
		desserts
	</title>
	<g id="jelly">
		<path class="cls-1" d="M405.88,359.15a25.12,25.12,0,0,0-3.45-7.57,21.6,21.6,0,0,0-1.91-2.33c1-23-3.52-53.78-13.55-86.3C367.55,200,334.63,154.26,313.43,160.8a16.07,16.07,0,0,0-7.91,5.78C302,159.2,293.3,154,283.13,154a26.79,26.79,0,0,0-16.7,5.59c-4.83-5.87-13.69-9.81-23.83-9.81-9.6,0-18,3.53-23,8.88A27.13,27.13,0,0,0,204.12,154c-9.57,0-17.81,4.63-21.71,11.33a13.71,13.71,0,0,0-6.57-4.37c-19.65-5.59-49.83,39.92-67.41,101.65C98.29,298.19,94.56,331.42,97,354.24a15.61,15.61,0,0,0-3.08,6.32c-2.93,13,11.85,27.37,33,32.13a62.07,62.07,0,0,0,13.53,1.54c0,8.8,14.86,15.93,33.14,15.93,11.48,0,21.6-2.81,27.55-7.09,10.14,9.65,29.27,16.15,51.21,16.15,23.78,0,44.26-7.64,53.57-18.63,6,3.12,14.65,5.07,24.2,5.07,13.93,0,25.84-4.14,30.75-10a58.37,58.37,0,0,0,15.87-4.19C396.17,383.24,407.51,365.75,405.88,359.15Z" />
		<path class="cls-2" d="M219.58,158.63A27.13,27.13,0,0,0,204.12,154c-9.57,0-17.81,4.63-21.71,11.33a13.71,13.71,0,0,0-6.57-4.37c-19.65-5.59-49.83,39.92-67.41,101.65C98.29,298.19,94.56,331.42,97,354.24a15.61,15.61,0,0,0-3.08,6.32c-2.93,13,11.85,27.37,33,32.13a62.07,62.07,0,0,0,13.53,1.54c0,8.8,14.86,15.93,33.14,15.93,11.48,0,21.6-2.81,27.55-7.09,10.14,9.65,29.27,16.15,51.21,16.15,23.78,0,44.26-7.64,53.57-18.63A65.12,65.12,0,0,0,316,404.14c5.77,1.5,8.66,2.26,9.84,1.38,4-2.95-4.65-19.18-12-37.87-4.1-10.47-7.82-24.26-15.26-51.84-4.6-17.06-8.14-30.17-11.8-48.24-4.1-20.27-4.32-26.74-10.72-61.28-6-32.17-5.07-22.95-5.62-27.58-1.16-9.84-.81-14.52-4.6-19.4-5.49-7.07-14.78-8.23-18.38-8.68C233.55,148.88,222.78,156.24,219.58,158.63Z" />
		<path class="cls-3" d="M157.49,180.59a275.74,275.74,0,0,0-48.34,170.55" />
		<path class="cls-3" d="M169.06,219.39A365.59,365.59,0,0,0,150,376.33" />
		<path class="cls-3" d="M206.33,263.72a257.55,257.55,0,0,0,.24,122.85" />
		<path class="cls-1" d="M326.78,182.85C328,189,318.25,197,308.6,198.37c-6.92,1-13.56-1.54-16.21-2.55-7.82-3-8.24-6-12.94-6.14-6.11-.14-6.85,5-16.05,6.65-1.55.27-8.13,1.43-12.93-1.44-2.77-1.66-2.15-3-4.67-4.92-4.7-3.64-13.35-3.54-19.4-1.75-7.73,2.29-9.34,6.83-13.49,6.07-3.75-.69-3-4.5-8.11-7.15-4.55-2.38-10-1.85-15.89-1.28-9.25.9-13.43,3.45-15,2s1.16-6,4.37-9.2c5.56-5.6,13.55-8.28,26.8-10.46,13.51-2.23,26.79-3,43-2.68,11.05.22,21.13.42,34.44,2.36C300.9,170.6,325,174.11,326.78,182.85Z" />
	</g>
	<g id="Layer_10" data-name="Layer 10" fill="#fff">
		<path d="M60.7,107.14V48.87H79.47a27.6,27.6,0,0,1,13.88,3.5A24.65,24.65,0,0,1,103,62.26a29.82,29.82,0,0,1,3.5,14.3v2.68a30.07,30.07,0,0,1-3.38,14.35,24.67,24.67,0,0,1-9.53,9.92,27,27,0,0,1-13.7,3.63Zm14-47.42V96.33h4.88q6,0,9.28-4.3t3.24-12.79V76.72q0-8.44-3.24-12.72t-9.44-4.28Z" />
		<path d="M149.82,82.41H127.73V96.33h26.09v10.81H113.68V48.87H153.9V59.72H127.73V72h22.09Z" />
		<path d="M189.6,91.65a5.77,5.77,0,0,0-2.18-4.8,26.91,26.91,0,0,0-7.67-3.56,73.55,73.55,0,0,1-9-3.57q-11.32-5.55-11.33-15.28a13.73,13.73,0,0,1,2.82-8.55,18.44,18.44,0,0,1,8-5.76,31.13,31.13,0,0,1,11.6-2.06,27.25,27.25,0,0,1,11.27,2.24,17.87,17.87,0,0,1,7.74,6.38,16.71,16.71,0,0,1,2.76,9.47h-14a7,7,0,0,0-2.18-5.52,8.52,8.52,0,0,0-5.91-2,9.55,9.55,0,0,0-5.94,1.66,4.89,4.89,0,0,0,.22,8.28q2.4,1.81,8.44,3.76a52.47,52.47,0,0,1,9.93,4.18q9.44,5.44,9.44,15a14.2,14.2,0,0,1-5.76,12q-5.76,4.37-15.81,4.37a31.38,31.38,0,0,1-12.82-2.54,19.42,19.42,0,0,1-8.65-7,18.17,18.17,0,0,1-2.9-10.18h14.09c0,3.12.8,5.42,2.42,6.9s4.23,2.22,7.86,2.22a9.07,9.07,0,0,0,5.51-1.5A5,5,0,0,0,189.6,91.65Z" />
		<path d="M240.9,91.65a5.77,5.77,0,0,0-2.18-4.8,26.91,26.91,0,0,0-7.67-3.56,73.55,73.55,0,0,1-9-3.57q-11.33-5.55-11.32-15.28a13.73,13.73,0,0,1,2.82-8.55,18.34,18.34,0,0,1,8-5.76,31.13,31.13,0,0,1,11.6-2.06,27.25,27.25,0,0,1,11.27,2.24,17.87,17.87,0,0,1,7.74,6.38,16.71,16.71,0,0,1,2.76,9.47h-14a7,7,0,0,0-2.18-5.52,8.5,8.5,0,0,0-5.91-2,9.59,9.59,0,0,0-5.94,1.66,4.89,4.89,0,0,0,.22,8.28q2.4,1.81,8.45,3.76a52.63,52.63,0,0,1,9.92,4.18q9.45,5.44,9.44,15a14.2,14.2,0,0,1-5.76,12q-5.76,4.37-15.8,4.37a31.43,31.43,0,0,1-12.83-2.54,19.33,19.33,0,0,1-8.64-7A18.1,18.1,0,0,1,209,88.25h14.09q0,4.68,2.42,6.9t7.87,2.22a9,9,0,0,0,5.5-1.5A5,5,0,0,0,240.9,91.65Z" />
		<path d="M298.28,82.41H276.19V96.33h26.1v10.81H262.15V48.87h40.22V59.72H276.19V72h22.09Z" />
		<path d="M329.66,86.53h-7.61v20.61H308V48.87h22.93q10.37,0,16.2,4.6t5.85,13a18.9,18.9,0,0,1-2.46,10.07A17.47,17.47,0,0,1,342.82,83L355,106.54v.6H339.94Zm-7.61-10.81h8.89q4,0,6-2.1a8.15,8.15,0,0,0,2-5.88,8.25,8.25,0,0,0-2-5.92q-2-2.15-6-2.14h-8.89Z" />
		<path d="M405.21,59.72H387.72v47.42h-14V59.72H356.51V48.87h48.7Z" />
		<path d="M440.55,91.65a5.77,5.77,0,0,0-2.18-4.8,26.91,26.91,0,0,0-7.67-3.56,73.55,73.55,0,0,1-9-3.57q-11.33-5.55-11.33-15.28a13.73,13.73,0,0,1,2.82-8.55,18.44,18.44,0,0,1,8-5.76,31.13,31.13,0,0,1,11.6-2.06,27.25,27.25,0,0,1,11.27,2.24,17.87,17.87,0,0,1,7.74,6.38,16.71,16.71,0,0,1,2.76,9.47h-14a7,7,0,0,0-2.18-5.52,8.52,8.52,0,0,0-5.91-2,9.55,9.55,0,0,0-5.94,1.66,4.89,4.89,0,0,0,.22,8.28q2.4,1.81,8.44,3.76a52.47,52.47,0,0,1,9.93,4.18q9.44,5.44,9.44,15a14.2,14.2,0,0,1-5.76,12q-5.76,4.37-15.81,4.37a31.38,31.38,0,0,1-12.82-2.54,19.42,19.42,0,0,1-8.65-7,18.17,18.17,0,0,1-2.9-10.18h14.09c0,3.12.8,5.42,2.42,6.9s4.23,2.22,7.86,2.22a9.07,9.07,0,0,0,5.51-1.5A5,5,0,0,0,440.55,91.65Z" />
	</g>
</svg>
