<svg id="Layer_1" data-name="Layer 1" xmlns="http://www.w3.org/2000/svg" viewBox="0 0 412.18 431.92"><defs><style>.cls-1,.cls-2{fill:none;stroke:#000;stroke-linecap:round;stroke-miterlimit:10;}.cls-1{stroke-width:10px;}.cls-2{stroke-width:11px;}</style></defs><title>gluten-free</title><line class="cls-1" x1="90.04" y1="329.5" x2="125.98" y2="299.79"/><path class="cls-1" d="M142.28,308.17l7.12,7.53,8.73,5.33a9.87,9.87,0,0,0,3.52,1.31l11.26,1.84a9.89,9.89,0,0,0,1.54.12h7.32A27.71,27.71,0,0,0,192.9,322l3.53-1.22a25.84,25.84,0,0,0,3.85-1.69l1.92-1a38.91,38.91,0,0,0,11.92-7.3l4.57-4.11,5.45-4.15a2.65,2.65,0,0,0-.7-4.59l-14.34-5.21a10.87,10.87,0,0,0-2.64-.6l-11.55-1.12a27.72,27.72,0,0,0-5.54,0l-15.5,1.7a22.12,22.12,0,0,0-4.82,1.08l-19.65,6.78-6.83,4.82A1.87,1.87,0,0,0,142.28,308.17Z" transform="translate(-17.39 -19.38)"/><path class="cls-1" d="M187.63,281.13l1,1.08,8.74,5.33a9.66,9.66,0,0,0,3.52,1.3l11.26,1.84a8.73,8.73,0,0,0,1.54.13H221a27.55,27.55,0,0,0,11.13-2.35l3.53-1.21a25.72,25.72,0,0,0,3.84-1.69l1.93-1a38.58,38.58,0,0,0,11.91-7.31l4.58-4.1,5.44-4.15a2.64,2.64,0,0,0-.69-4.59l-14.34-5.21a11,11,0,0,0-2.65-.6l-11.55-1.12a26.9,26.9,0,0,0-5.53,0l-15.5,1.7a22.21,22.21,0,0,0-4.83,1.08l-15.25,5.26" transform="translate(-17.39 -19.38)"/><path class="cls-1" d="M227.19,253l7.1,4.33a9.73,9.73,0,0,0,3.52,1.3l11.26,1.84a8.81,8.81,0,0,0,1.54.13h7.32a27.48,27.48,0,0,0,11.13-2.35l3.53-1.21a25.84,25.84,0,0,0,3.85-1.69l1.92-1A38.74,38.74,0,0,0,290.28,247l4.57-4.1,5.45-4.15a2.65,2.65,0,0,0-.7-4.59L285.26,229a10.87,10.87,0,0,0-2.64-.6l-11.55-1.12a27,27,0,0,0-5.54,0L250,229a22.12,22.12,0,0,0-4.82,1.08l-15,5.16" transform="translate(-17.39 -19.38)"/><path class="cls-1" d="M264.53,218.52l8.74,5.33a9.78,9.78,0,0,0,3.52,1.3L288,227a8.89,8.89,0,0,0,1.54.13h7.33A27.47,27.47,0,0,0,308,224.77l3.54-1.22a25.67,25.67,0,0,0,3.84-1.68l1.92-1a38.82,38.82,0,0,0,11.92-7.31l4.57-4.11,5.45-4.14a2.64,2.64,0,0,0-.7-4.59l-14.34-5.22a10.85,10.85,0,0,0-2.64-.59L310,193.75a27,27,0,0,0-5.54,0L289,195.49a22.12,22.12,0,0,0-4.82,1.08l-13.75,4.74" transform="translate(-17.39 -19.38)"/><path class="cls-1" d="M158.6,293,157,288.59a9.59,9.59,0,0,1-.62-3.71l.32-11.4a10.08,10.08,0,0,1,.17-1.54l1.39-7.19a27.37,27.37,0,0,1,4.41-10.48l1.86-3.24a25.48,25.48,0,0,1,2.38-3.45l1.39-1.69a38.67,38.67,0,0,1,9.43-10.32l4.9-3.72,5.1-4.56a2.64,2.64,0,0,1,4.37,1.55l2.41,15.07a10.7,10.7,0,0,1,.08,2.71l-1.08,11.55a27.22,27.22,0,0,1-1.09,5.43l-4.6,14.9a22.51,22.51,0,0,1-2,4.53l-3.55,6.15" transform="translate(-17.39 -19.38)"/><path class="cls-1" d="M196.34,261.77l-1.1-2.95a9.77,9.77,0,0,1-.61-3.71l.32-11.4a8.85,8.85,0,0,1,.17-1.54L196.5,235a27.69,27.69,0,0,1,4.41-10.48l1.86-3.24a25.55,25.55,0,0,1,2.39-3.45l1.38-1.7A39,39,0,0,1,216,205.8l4.9-3.72,5.1-4.56a2.65,2.65,0,0,1,4.38,1.55l2.4,15.07a10.26,10.26,0,0,1,.09,2.71l-1.09,11.55a26.52,26.52,0,0,1-1.08,5.43l-4.6,14.9a22,22,0,0,1-2,4.53l-1.46,2.54" transform="translate(-17.39 -19.38)"/><path class="cls-1" d="M234.39,229.88l-.88-2.38a9.78,9.78,0,0,1-.62-3.71l.32-11.4a9.94,9.94,0,0,1,.17-1.54l1.39-7.19a27.37,27.37,0,0,1,4.41-10.48l1.86-3.24a26.42,26.42,0,0,1,2.38-3.45l1.39-1.7a38.78,38.78,0,0,1,9.43-10.31l4.9-3.72,5.1-4.56a2.64,2.64,0,0,1,4.37,1.55L271,182.82a11.19,11.19,0,0,1,.09,2.71L270,197.08a27.22,27.22,0,0,1-1.09,5.43l-4.6,14.9a22.51,22.51,0,0,1-2,4.53l-2.69,4.67" transform="translate(-17.39 -19.38)"/><path class="cls-1" d="M272.61,197.7l-.84-2.24a9.72,9.72,0,0,1-.61-3.7l.32-11.4a8.85,8.85,0,0,1,.17-1.54l1.38-7.19a27.69,27.69,0,0,1,4.41-10.48l1.87-3.24a25.3,25.3,0,0,1,2.38-3.46l1.38-1.69a38.86,38.86,0,0,1,9.44-10.32l4.89-3.71,5.1-4.56a2.64,2.64,0,0,1,4.38,1.55l2.4,15.07a10.17,10.17,0,0,1,.09,2.7l-1.09,11.56a26.52,26.52,0,0,1-1.08,5.43l-4.6,14.9a22.23,22.23,0,0,1-2,4.53l-2.43,4.23" transform="translate(-17.39 -19.38)"/><path class="cls-1" d="M347.31,147.25a36.43,36.43,0,0,1-3.92,26.36c-6.45,11-26.65,19.62-29.33,20.53" transform="translate(-17.39 -19.38)"/><path class="cls-1" d="M301.44,163.87" transform="translate(-17.39 -19.38)"/><path class="cls-1" d="M346.24,146.43a36.48,36.48,0,0,0-26.65.37,35,35,0,0,0-10.28,6.63" transform="translate(-17.39 -19.38)"/><path class="cls-2" d="M373.76,102.84a200.62,200.62,0,0,1-33.44,295.94" transform="translate(-17.39 -19.38)"/><path class="cls-2" d="M109.89,401.06A200.61,200.61,0,0,1,73.2,102.85" transform="translate(-17.39 -19.38)"/><path d="M133.45,75.78a21.23,21.23,0,0,1-5.56,7.53,51.59,51.59,0,0,1-9.78,7,35.54,35.54,0,0,1-12,4.43A24.05,24.05,0,0,1,94.54,94a21.5,21.5,0,0,1-9.69-6.53L83,85.18a16.85,16.85,0,0,1-4.27-10.55,18.27,18.27,0,0,1,4-11.16,36.73,36.73,0,0,1,11.57-9.85c6.94-3.94,13-5.65,17.87-5.39a13.65,13.65,0,0,1,11.19,6.26q-5.56,2.5-11.09,5.33a7.82,7.82,0,0,0-5.91-2.91c-2.3,0-5,.78-8.14,2.55-4,2.25-6.38,5-7.15,8.12s.14,6.48,2.71,10.1l1.6,2.22c2.64,3.63,5.68,5.71,9,6.37s6.74-.1,10.47-2.21,6.08-4.12,7-6.19q-1.81-3.2-3.6-6.4-4.83,2.48-9.62,5.22c-1.15-1.83-2.3-3.65-3.44-5.48q10.4-5.94,21-10.71Q129.67,68.15,133.45,75.78Z" transform="translate(-17.39 -19.38)"/><path d="M151.36,66.83a213.91,213.91,0,0,1,22.15-6.41c.54,2.28,1.09,4.57,1.64,6.85a209.3,209.3,0,0,0-31.3,9.91Q135.23,57.67,127.64,38q6.09-2.48,12.2-4.61Q145.27,50.15,151.36,66.83Z" transform="translate(-17.39 -19.38)"/><path d="M217,19.4q.17,14,.35,28.09a13.84,13.84,0,0,1-5,11.23c-3.34,2.86-7.83,4.48-13.67,5.12s-10.48.09-14.4-1.88a13.54,13.54,0,0,1-7.49-9.59q-2.85-13.87-5.44-27.78,6.13-1.29,12.27-2.27,1.91,13.91,4,27.8c.42,2.76,1.55,4.63,3.34,5.67a11.17,11.17,0,0,0,6.92,1c5.89-.64,8.72-3.38,8.51-8.58q-.9-14.16-1.71-28.32Q210.82,19.51,217,19.4Z" transform="translate(-17.39 -19.38)"/><path d="M270.45,31.82q-8.85-1.91-17.72-3.14Q250.48,46.27,248,63.86q-5.08-.69-10.17-1.12,1.59-17.7,3-35.4-8.74-.75-17.52-.84l.09-7.12a240.1,240.1,0,0,1,48.48,5.49Q271.15,28.35,270.45,31.82Z" transform="translate(-17.39 -19.38)"/><path d="M305.32,60.34q-10.44-4.26-21-7.42-1.65,5.44-3.35,10.89a220.75,220.75,0,0,1,23.26,8.42q-1.49,3.19-3,6.4a209.85,209.85,0,0,0-32.46-10.82q5.37-20.62,10-41.32a259.69,259.69,0,0,1,39.54,13.3c-.9,2.17-1.81,4.33-2.72,6.5a252.69,252.69,0,0,0-26.53-9.64c-.92,3.24-1.87,6.47-2.82,9.7Q297.17,49.64,308,54C307.1,56.13,306.22,58.23,305.32,60.34Z" transform="translate(-17.39 -19.38)"/><path d="M344.62,103.34Q340,100,335.3,96.9a169.07,169.07,0,0,0-4.59-35.27Q324,73.84,316.72,86q-4.83-2.53-9.73-4.8,9.83-19,18.53-38.2,6,2.79,12.05,5.92a188.69,188.69,0,0,1,6.74,36.34q8.55-11.33,16.51-22.8,5.9,3.81,11.72,8Q359.25,87,344.62,103.34Z" transform="translate(-17.39 -19.38)"/><path d="M175.46,427.43a177,177,0,0,1-18.39-5.75q-1.81,8.88-3.62,17.78-4.92-1.79-9.66-3.82,5.06-21.67,10.15-43.31a152.5,152.5,0,0,0,27.47,9.77c-.34,2.44-.67,4.88-1,7.31a162.9,162.9,0,0,1-19.55-6.19q-1.15,5.61-2.3,11.23a170,170,0,0,0,18,5.7C176.17,422.58,175.81,425,175.46,427.43Z" transform="translate(-17.39 -19.38)"/><path d="M201.68,434q-4.11-.43-8.18-1l-1.44,16.1q-5.35-.78-10.64-1.83,2.66-22,5.29-43.89a168.67,168.67,0,0,0,16.83,2.77c5.42.61,9.57,2,12.52,4.45a12.1,12.1,0,0,1,4.42,10,12.24,12.24,0,0,1-2.25,7.48,13.63,13.63,0,0,1-6.81,4.51q5.1,9.33,10.82,18.36v.42q-5.87,0-11.72-.36Q205.86,442.59,201.68,434Zm-7.53-8.39q4,.62,8.1,1.06a8.42,8.42,0,0,0,6-1.19,5.68,5.68,0,0,0,2.28-4.65,6.63,6.63,0,0,0-1.72-5c-1.22-1.29-3.12-2.05-5.72-2.34s-5.17-.63-7.74-1Q194.75,419,194.15,425.63Z" transform="translate(-17.39 -19.38)"/><path d="M258.06,429.06a191.79,191.79,0,0,1-19.52,2.53q.27,5.91.55,11.8a204.44,204.44,0,0,0,23.69-3.21q.42,3.63.85,7.26a212.14,212.14,0,0,1-35.09,3.79q-.36-22-.7-44.07a171.21,171.21,0,0,0,30.57-3.6q.43,3.66.86,7.33a177.65,177.65,0,0,1-21.56,3.1c.16,3.49.33,7,.49,10.49A186.42,186.42,0,0,0,257.3,422C257.55,424.33,257.81,426.69,258.06,429.06Z" transform="translate(-17.39 -19.38)"/><path d="M294.93,418.17a171.4,171.4,0,0,1-18,6.4l2,11.71a178.42,178.42,0,0,0,21.74-7.81c.56,2.39,1.11,4.78,1.67,7.17a187.65,187.65,0,0,1-32.53,10.51l-5.94-43.84a153.15,153.15,0,0,0,28.27-9.95c.56,2.4,1.13,4.81,1.69,7.22a154.78,154.78,0,0,1-19.75,7.52q.87,5.2,1.73,10.42a165.09,165.09,0,0,0,17.57-6.36C293.88,413.5,294.41,415.83,294.93,418.17Z" transform="translate(-17.39 -19.38)"/></svg>
