<svg xmlns="http://www.w3.org/2000/svg" xmlns:xlink="http://www.w3.org/1999/xlink" viewBox="0 0 509.14 478.29"><defs><style>.cls-1{fill:url(#linear-gradient);}.cls-2{fill:none;stroke:#fff;}.cls-2,.cls-3{stroke-miterlimit:10;stroke-width:2px;}.cls-3{fill:#3d54a1;stroke:#3d54a1;opacity:0.44;}</style><linearGradient id="linear-gradient" x1="189.92" y1="84.49" x2="192.77" y2="281.94" gradientUnits="userSpaceOnUse"><stop offset="0" stop-color="#fff"/><stop offset="0.16" stop-color="#d3d8ea"/><stop offset="0.37" stop-color="#9ea9d0"/><stop offset="0.56" stop-color="#7484bc"/><stop offset="0.74" stop-color="#566aad"/><stop offset="0.89" stop-color="#445aa4"/><stop offset="1" stop-color="#3d54a1"/></linearGradient></defs><title>jello</title><g id="jelly"><path class="cls-1" d="M298,250.46a10.58,10.58,0,0,0-2.28-3.41c.65-15.74-2.4-36.74-9.25-59-13.27-43-35.76-74.25-50.24-69.79a11,11,0,0,0-5.41,4c-2.42-5-8.35-8.62-15.3-8.62a18.29,18.29,0,0,0-11.41,3.83c-3.29-4-9.35-6.71-16.28-6.71-6.55,0-12.33,2.41-15.73,6.07a18.5,18.5,0,0,0-10.56-3.19c-6.54,0-12.17,3.17-14.83,7.75a9.37,9.37,0,0,0-4.49-3c-13.42-3.82-34,27.27-46,69.45-6.93,24.33-9.48,47-7.82,62.62a10.77,10.77,0,0,0-2.11,4.32c-2,8.87,8.1,18.7,22.55,22a42.46,42.46,0,0,0,9.24,1c0,6,10.16,10.89,22.65,10.89,7.84,0,14.76-1.93,18.82-4.85,6.93,6.59,20,11,35,11,16.25,0,30.23-5.22,36.6-12.74,4.13,2.13,10,3.47,16.53,3.47,9.52,0,17.65-2.83,21-6.84a41.32,41.32,0,0,0,10.84-2.86c1.13-.46,2.21-1,3.26-1.5a9,9,0,0,0,1.54-.34,11.29,11.29,0,0,0,5.81-4.48C297.05,263.74,300.43,256.37,298,250.46Z"/><path class="cls-2" d="M143.64,124.85a259,259,0,0,0-27,141.43"/><path class="cls-2" d="M232.59,126.37a259.37,259.37,0,0,1,28.52,62.38,259.52,259.52,0,0,1,11.25,76"/><path class="cls-2" d="M207.21,120.84a338.93,338.93,0,0,1,19.39,70.8,362,362,0,0,1,3.66,83.92"/><path class="cls-2" d="M172.19,120.22a339.46,339.46,0,0,0-14.35,72,362.27,362.27,0,0,0,2.28,84"/><path class="cls-3" d="M238.14,121.53s2.15-4.45,12.11,4.84,11.57,13.27,11.57,13.27S243.71,120,238.14,121.53Z"/><path class="cls-3" d="M139.65,121.61s-2.18-5.81-12.34,6.32-11.78,17.3-11.78,17.3S134,119.65,139.65,121.61Z"/></g></svg>
