<svg xmlns="http://www.w3.org/2000/svg" viewBox="0 0 509.14 478.29"><defs><style>.cls-1{fill:#3a519f;}.cls-2{fill:none;}.cls-2,.cls-3{stroke:#80ccdf;stroke-miterlimit:10;stroke-width:2px;}.cls-3{fill:#80ccdf;opacity:0.44;}</style></defs><title>cake</title><g id="jelly"><path class="cls-1" d="M370.79,279a10.7,10.7,0,0,0-2.28-3.4c.65-15.74-2.4-36.75-9.26-59-13.26-43-35.76-74.26-50.24-69.79a10.94,10.94,0,0,0-5.4,4c-2.42-5.05-8.35-8.62-15.3-8.62A18.32,18.32,0,0,0,276.9,146c-3.3-4-9.35-6.7-16.28-6.7-6.56,0-12.33,2.41-15.73,6.06a18.57,18.57,0,0,0-10.56-3.18c-6.54,0-12.17,3.17-14.83,7.74a9.42,9.42,0,0,0-4.49-3c-13.43-3.82-34,27.27-46,69.45-6.93,24.32-9.48,47-7.82,62.62a10.64,10.64,0,0,0-2.11,4.32c-2,8.87,8.1,18.69,22.55,21.95a42.39,42.39,0,0,0,9.24,1.05c0,6,10.15,10.88,22.64,10.88,7.85,0,14.76-1.92,18.82-4.84,6.93,6.59,20,11,35,11,16.25,0,30.24-5.22,36.6-12.74,4.13,2.13,10,3.46,16.54,3.46,9.51,0,17.65-2.82,21-6.83a41.29,41.29,0,0,0,10.85-2.86c1.12-.47,2.21-1,3.25-1.51a8.23,8.23,0,0,0,1.55-.33,11.27,11.27,0,0,0,5.8-4.48C369.84,292.32,373.22,284.94,370.79,279Z"/><path class="cls-2" d="M216.43,153.43a258.77,258.77,0,0,0-27,141.43"/><path class="cls-2" d="M305.38,155a259.06,259.06,0,0,1,39.77,138.38"/><path class="cls-2" d="M280,149.42a339.54,339.54,0,0,1,19.39,70.8,362.53,362.53,0,0,1,3.66,83.92"/><path class="cls-2" d="M245,148.8a338.78,338.78,0,0,0-14.34,72,361.71,361.71,0,0,0,2.27,84"/><path class="cls-3" d="M310.93,150.11s2.14-4.46,12.11,4.84,11.57,13.26,11.57,13.26S316.5,148.61,310.93,150.11Z"/><path class="cls-3" d="M212.43,150.19s-2.18-5.81-12.33,6.32-11.79,17.3-11.79,17.3S206.76,148.23,212.43,150.19Z"/></g></svg>
