<svg xmlns="http://www.w3.org/2000/svg" viewBox="0 0 480.2 362.71"><defs><style>.cls-1,.cls-2,.cls-3{isolation:isolate;}.cls-2{font-size:153.84px;fill:#db78ab;font-family:Roboto-Bold, Roboto;font-weight:700;}.cls-3{font-size:90.08px;font-family:Chuck;}.cls-4{fill:#3949fa;}.cls-5{fill:#ffdb54;}.cls-6{fill:#ffebb5;}.cls-10,.cls-7,.cls-8,.cls-9{fill:none;}.cls-7{stroke:#000;}.cls-10,.cls-7,.cls-8{stroke-miterlimit:10;}.cls-8{stroke:#ffdb54;}.cls-10,.cls-9{stroke:#3949fa;stroke-width:5px;}.cls-9{stroke-linecap:round;stroke-linejoin:round;}.cls-11{fill:#fff;}</style></defs><title>logo_without_triangle</title><g id="Layer_1" data-name="Layer 1"><g id="_" data-name=" " class="cls-1"><text class="cls-2" transform="translate(70.95 131.61) scale(0.93 1)">*</text></g><g id="B_KE_OFF" data-name="B KE OFF" class="cls-1"><text class="cls-3" transform="translate(0 98.56) scale(0.96 1)"><tspan xml:space="preserve">B   KE OFF</tspan></text></g><path class="cls-4" d="M417.37,198.66c-23.17,35.57-12.3,85.26,21.52,105.66,27.18,16.4,64.45,19.6,87.76.92,5.7-4.56,8.27-12.46,11.57-20.06,4.15-9.55,8.11-28.1,10-37.67,2.87-14.29,3.18-26.77-2-39.56s-10.7-24.74-23.45-32.43C489,155.12,440.54,163.09,417.37,198.66Z" transform="translate(-192.76 -78.09)"/><path class="cls-4" d="M405.63,205.8c23.17,35.57,15.79,82.17-15.43,101S320.73,321,297.56,285.45c-5.79-8.89-10.57-28.45-12.73-37.88-3.22-14.07-4-26.29.48-38.63s9.22-23.85,21-30.94C337.51,159.16,382.46,170.23,405.63,205.8Z" transform="translate(-192.76 -78.09)"/><polygon class="cls-5" points="285.32 205.02 254.87 164.49 260.2 163.22 264.3 162.38 269.2 162.03 274.91 162.03 278.93 162.03 283.83 162.45 286.97 163.01 292.39 164.77 301.38 167.87 307.31 170.9 313.45 174.35 320.69 178.57 325.96 182.65 330.93 188.14 334.44 192.86 336.27 197.08 337.37 200.32 338.47 205.39 338.83 208.98 338.83 212.5 338.83 217.21 338.83 218.34 335.32 226.01 331.37 234.74 327.92 241.82 323.46 248.98 316.69 259.32 309.91 269.5 301.64 281.43 293.88 292.72 284.62 306.72 279 316.42 270.41 328.99 262.48 339.96 254.38 347.76 246.94 353.96 240.16 358.73 235.04 361.59 230.58 362.71 225.95 362.71 219.67 361.91 214.71 360 209.42 356.19 204.79 352.53 199.84 347.76 195.87 343.46 193.88 341.23 182.81 340.44 174.71 339.96 166.45 339.17 158.74 338.53 146.95 337.42 140.17 336.3 135.54 335.99 133.23 337.1 129.59 338.21 126.78 338.85 123.49 339.17 120.34 339.01 116.2 338.69 113.56 338.05 111.58 338.21 108.6 338.05 105.63 337.42 102.75 336.14 100.17 334.71 97.25 332.33 94.39 328.79 92.73 326.92 92.06 324.99 92.32 323.9 92.69 322.3 90.52 319.34 89.52 317.08 89.52 314.81 89.52 313.26 89.52 311.87 90.33 310.82 91.6 310.82 91.33 307.6 90.16 304.47 90.33 301.77 91.06 299.69 92.06 298.21 93.42 296.82 94.85 296.12 98.53 293.2 99.38 288.21 101.81 286.32 111.44 320.78 285.32 205.02"/><polygon class="cls-5" points="254.87 164.49 249.62 165.83 229.67 172.61 179.63 164.19 174.03 163.66 168.42 163.66 162.18 163.66 155.58 163.66 149.84 164.19 142.83 165.35 135.49 166.91 128.5 168.95 123.27 170.99 119.4 173.48 115.91 176.99 113.04 180.57 111.54 183.11 109.79 187.31 108.17 190.77 107.05 194.4 106.18 198.24 105.43 202.68 104.81 207.36 151.42 294.16 295.1 201.56 254.87 164.49"/><path class="cls-4" d="M331.07,347.74c0,4.36-6.23,14-17.18,14-5.91,0-14-2.5-18.38-5.76a10.52,10.52,0,0,1-4.57-8.25c0-4.36,9.34-7.87,20.29-7.87S331.07,343.38,331.07,347.74Z" transform="translate(-192.76 -78.09)"/><path class="cls-6" d="M442.38,226.1c0,11.81-5.85,25.56-12.38,33.3s-13.72,9.46-23.67,9.46c-14.11,0-26.44-5.13-32-18.83-2.29-5.63-2.81-16-2.81-22.89,0-8.45-.94-16.79,1.51-24,1.32-3.91,4.64-7.81,7.35-10.56,6.3-6.39,17-9.19,25.95-9.19,9.35,0,18.22,2.82,24.63,9.74C438.19,200.91,442.38,213.58,442.38,226.1Z" transform="translate(-192.76 -78.09)"/><path class="cls-7" d="M387.5,262.27" transform="translate(-192.76 -78.09)"/><polygon points="98.64 272.35 100.1 277.22 101.33 280.42 102.51 283.36 103.75 286.09 105.14 289.03 106.37 291.98 108.04 292.96 109.97 293.83 111.79 294.16 113.88 294.61 116.13 294.92 118.65 294.92 121.28 294.5 123.1 294.16 125.14 293.63 127.18 292.9 129.54 292.13 132.22 286.14 134.68 280.73 135.75 278.3 136.45 276.6 137.15 273.71 137.63 272.35 136.45 274.9 135.7 275.46 134.84 275.62 133.99 275.36 133.34 274.79 133.13 275.82 132.45 276.44 131.57 276.7 130.66 276.65 129.8 276.39 129.05 275.62 128.57 276.39 127.98 277.01 127.18 277.37 126.53 277.58 125.41 277.48 124.66 276.86 123.96 275.98 123.48 276.91 122.94 277.37 122.3 277.89 121.39 278.25 120.42 278.15 119.72 277.79 118.94 277.17 118.49 276.34 118.14 277.12 117.47 277.68 116.67 278.1 115.92 278.35 115.06 278.15 114.2 277.79 113.4 277.01 112.92 276.03 112.33 276.81 111.58 277.22 110.88 277.48 109.7 277.42 109.06 277.01 108.41 276.34 107.88 275.26 106.96 275.72 106.11 275.82 105.19 275.67 104.34 275.2 103.8 274.33 103.59 273.66 102.89 274.23 102.08 274.48 100.96 274.43 99.78 274.02 99.24 273.19 98.64 272.35"/><polyline class="cls-5" points="144.37 299.69 142.83 297.7 142.83 293.98 140.26 287.73 135.55 282.33 133.58 281.25 131.44 281.25 130.14 281.97 130.14 282.95 131.25 285.9 132.18 288.64 133.3 292.52 134.04 296.28 133.86 298.7 133.49 301.77 132.56 304.33 131.25 306.39 130.14 307.64 128.47 309.44 124.48 310.82 121.23 310.82 117.14 310.82 113.56 309.44 109.46 307.22 108.09 304.59 105.38 299.1 104.51 295.35 104.51 292.6 104.51 289.31 104.51 286.32 104.51 283.37 103.65 281.25 102.45 279.79 98.53 279.79 97.25 281.25 96.53 283.87 96 287.73 96 295.39 111.44 320.78"/><path class="cls-6" d="M322.28,329.88a5.19,5.19,0,0,0-1.62-4.08,24.15,24.15,0,0,0-4-2.88c-1.17-.7-2.72-1.22-3.45-2-2.24-2.42-1.68-4.77-2.34-3-.54,1.46-2,3.54-3.58,3.54-8.15,0-14.75,3.94-14.75,8.8a8.88,8.88,0,0,0,5,8,16.15,16.15,0,0,0,6.23,1.22h3.31C315.25,339.5,322.28,334.74,322.28,329.88Z" transform="translate(-192.76 -78.09)"/><path class="cls-6" d="M330.39,335.41c.68,4.09.35,7.39-2.14,9.19a24.6,24.6,0,0,1-10.76,5.12,42.22,42.22,0,0,1-15,0c-4.88-.82-9.69-3.2-10.15-7.05a7.56,7.56,0,0,1,.84-5.1c3.21-4.8,11.65-8.11,20.61-8.11,7.41,0,11.35-.48,13.26.94A7.65,7.65,0,0,1,330.39,335.41Z" transform="translate(-192.76 -78.09)"/><polygon class="cls-4" points="111.28 247.61 113.22 244.32 113.53 243.04 112.99 242.07 111.82 242.07 111.28 243.04 110.97 244.09 110.27 243.04 109.72 242.37 109.02 242.07 108.4 242.75 108.4 243.87 108.94 244.84 111.28 247.61"/><polygon class="cls-4" points="121 253.3 124.28 251.21 125.15 250.21 125.12 249.11 124.08 248.6 123.14 249.23 122.37 250.03 122.24 248.79 122.07 247.95 121.58 247.38 120.71 247.71 120.19 248.71 120.22 249.82 121 253.3"/><polygon class="cls-4" points="106.8 258.25 107.91 254.62 107.9 253.31 107.14 252.49 106.01 252.74 105.71 253.81 105.66 254.9 104.73 254.03 104.04 253.5 103.29 253.36 102.84 254.15 103.11 255.25 103.87 256.07 106.8 258.25"/><polygon class="cls-4" points="106.31 268.27 106.34 264.48 105.97 263.23 105 262.63 103.99 263.18 104 264.28 104.26 265.34 103.12 264.76 102.31 264.43 101.55 264.49 101.34 265.37 101.91 266.35 102.88 266.94 106.31 268.27"/><polygon class="cls-4" points="122.64 268.13 125.25 265.3 125.83 264.12 125.51 263.06 124.37 262.83 123.63 263.67 123.1 264.63 122.64 263.47 122.25 262.7 121.63 262.27 120.88 262.8 120.64 263.9 120.96 264.96 122.64 268.13"/><polygon class="cls-4" points="133.49 263.08 134.3 259.38 134.19 258.08 133.37 257.31 132.26 257.65 132.05 258.74 132.08 259.83 131.09 259.04 130.35 258.55 129.59 258.48 129.21 259.3 129.57 260.37 130.4 261.13 133.49 263.08"/><path class="cls-8" d="M294.74,336.34l1.86,1.1,1.53.85,1.84.5,2.36.43h5.45l2.66-.43,2.15-.5,2.09-.51,2-1.06,1.88-1,1.22-1.1,1.14-1.18.76-1.44s.82-1.37.63-1.44" transform="translate(-192.76 -78.09)"/><path class="cls-5" d="M385.83,219.92l-.88-.63-2-1.21-2.51-1.21-3.26-1.08-2.76-.61h-5.14l-2.64.73-2.51,1-1.76,1.21-1.55,1.64-1.35,1.89,2.15,1.54,1.88,1.21,2,1.09,3.26,1,2.76.73h5.9l2.51-.61,2.38-.72,1.89-1.21,1.62-1a2.78,2.78,0,0,0,.64-.54l1.12-1.24-.89-1.1A5.44,5.44,0,0,0,385.83,219.92Z" transform="translate(-192.76 -78.09)"/><path class="cls-5" d="M424.62,221.31l-.76-.52-1.72-1-2.15-1-2.79-.89-2.36-.49-1.92,0-2.46,0-2.24.64-2.13.85-1.48,1-1.31,1.41L402.17,223,404,224.3l1.61,1,1.73.91,2.78.79,2.36.59,2.57,0,2.46,0,2.13-.54,2-.64,1.59-1.05,1.37-.87a2.45,2.45,0,0,0,.55-.46l.94-1.07-.78-.93A4.3,4.3,0,0,0,424.62,221.31Z" transform="translate(-192.76 -78.09)"/><polygon class="cls-5" points="240.78 139.3 240.78 158.4 240.78 159.55 242.73 159.55 245.04 159.55 247.55 159.17 249.9 158.75 251.73 158.22 253.49 157.56 255.54 156.81 257.37 155.87 258.74 154.99 259.73 153.75 260.76 152.4 261.09 150.77 261.09 147.58 260.19 145.17 258.88 143.07 257.58 141.89 255.87 140.83 253.87 139.96 252.56 139.3 251.06 138.8 248.15 138.32 244.94 138.32 242.33 138.32 240.78 138.32 240.78 139.3"/><polygon points="182.71 170.92 183.56 169.66 184.78 168.48 186.28 167.49 188.21 166.85 190.32 166.85 192.84 167.31 194.36 168.12 195.68 168.89 196.53 169.57 198.03 168.3 199.53 167.58 201.41 166.85 203.2 166.4 205.16 166.4 206.86 166.4 208.74 166.94 210.44 167.67 212.6 169.02 214.57 170.47 215.6 171.47 216.54 172.61 215.6 174.54 214.66 176.26 213.35 177.62 211.85 178.88 209.94 179.55 208.37 180.24 206.77 180.24 204.57 180.23 189.02 180.57 182.71 170.92"/><path class="cls-4" d="M397.41,219.21l-.6-1.29a.86.86,0,0,0-.13-.2l-.91-1.11a1,1,0,0,0-.43-.29l-1.18-.43a1,1,0,0,0-.34-.06h-.73a1,1,0,0,0-.82.43l-.73,1.06a1.09,1.09,0,0,0-.08.15l-.86,1.89-1.05,2.36a.3.3,0,0,0,0,.08l-1.13,3.35a.3.3,0,0,0,0,.1l-.78,3.55-.73,3.44-.71,3.44-.52,2.57a1.1,1.1,0,0,0,0,.18v1.71a1,1,0,0,0,.14.49l.43.69a1,1,0,0,0,.68.44l3.08.51a1.22,1.22,0,0,0,.27,0l4.22-.4a1,1,0,0,0,.37-.11l.92-.47a1,1,0,0,0,.39-.35l.7-1.16a1.19,1.19,0,0,0,.08-.16l.55-1.51a.74.74,0,0,0,.05-.25l.44-6.29V224a.28.28,0,0,0,0-.09l-.42-4.44A1.11,1.11,0,0,0,397.41,219.21Z" transform="translate(-192.76 -78.09)"/><polygon class="cls-4" points="188.3 178.4 194.74 172.61 183.78 172.61 180.31 175.5 178.05 177.04 175.93 178.81 173.81 180.17 172.6 181.19 172.11 182.41 172.11 183.77 173.1 185.27 175.29 186.09 177.98 186.5 183 186.5 187.53 186.09 190.99 185.41 194.74 184.18 198.21 182.89 201.81 181.66 204.57 180.23 206.41 178.81 208.03 176.69 209.94 173.29 197.28 172.61 188.3 178.4"/><polyline class="cls-9" points="157.65 299.1 157.11 212.08 160.36 208.26"/><line class="cls-9" x1="154.04" y1="208.26" x2="157.11" y2="212.08"/><polyline class="cls-9" points="142.83 298.3 149.52 299.1 156.59 299.79 165.84 301.15 175.22 301.77 185.89 301.77 183.97 297.31 183.06 292.24 183.06 286.06 184.22 280.86 186.41 275.42 189.62 269.85 194.51 265.02 198.75 263.05 204.02 262.06 209.29 260.82 214.81 259.58 211.99 253.68 210.44 248.57 209.03 243.87 208.26 238.06 208.26 232.74 208.77 226.92 210.32 221.86 212.63 216.66 215.46 212.08 218.93 208.86 222.66 205.52 226.77 202.68 228.31 201.56 233.58 201.56"/><line class="cls-9" x1="228.18" y1="196.37" x2="228.31" y2="201.56"/><ellipse class="cls-10" cx="173.73" cy="237.99" rx="6.43" ry="6.19"/><ellipse class="cls-4" cx="173.73" cy="237.11" rx="1.49" ry="1.43"/><path class="cls-4" d="M325.23,360.17l0,.14a.75.75,0,0,0,0,.33l.27.94a.92.92,0,0,0,.16.31l.74.93a1,1,0,0,0,.25.22l.66.4a1,1,0,0,0,1.14-.1l.26-.23a.9.9,0,0,0,.28-.43l.16-.52a.91.91,0,0,0-.18-.84l-.7-.81a.83.83,0,0,0-.23-.19l-1.39-.84a1,1,0,0,0-.44-.14h0A1,1,0,0,0,325.23,360.17Z" transform="translate(-192.76 -78.09)"/><path class="cls-4" d="M289.73,366.43l.5,0a.77.77,0,0,0,.55-.32l1.25-1.69a.91.91,0,0,0,.17-.43l.33-2.29a1.13,1.13,0,0,0-.06-.52l-.5-1.37a.84.84,0,0,0-.84-.6l-.35,0a.8.8,0,0,0-.65.48l-.92,2a1.2,1.2,0,0,0-.08.27l-.36,2.54a1,1,0,0,0,0,.24l.07.83A.89.89,0,0,0,289.73,366.43Z" transform="translate(-192.76 -78.09)"/><path class="cls-9" d="M295.51,389.35l-2.12-1.23a5.66,5.66,0,0,1-1.61-1.39l-1-1.32a5.55,5.55,0,0,1-.92-1.73l-.8-2.51a6,6,0,0,1-.28-1.79v-5.46" transform="translate(-192.76 -78.09)"/><polyline class="cls-9" points="102.45 320.78 100.39 319.52 98.32 317.9 96.41 315.75 94.72 313.39 93.36 311.45 92.06 308.83"/><polyline class="cls-9" points="103.65 328.79 101.64 328.16 99.08 327.12 97.25 326.01 95.43 324.92 93.42 323.4"/><path class="cls-11" d="M368.72,220.92l1.93-.88,1.62-.39a1.59,1.59,0,0,1,.43-.06h4.54a1.39,1.39,0,0,1,.56.13l1.2.54.94.66-1,.66-1,.5a1.73,1.73,0,0,1-.44.14l-1.24.25a1.66,1.66,0,0,1-.32,0h-3.15a1.74,1.74,0,0,1-.45-.06l-1.89-.58Z" transform="translate(-192.76 -78.09)"/><path class="cls-11" d="M417.8,222.21l-1.56-.78-1.32-.34a1.27,1.27,0,0,0-.34,0h-3.67a1,1,0,0,0-.46.1l-1,.48-.76.58.81.57.84.44a1.4,1.4,0,0,0,.36.13l1,.21a1.15,1.15,0,0,0,.26,0h2.55a1.13,1.13,0,0,0,.36-.06l1.53-.51Z" transform="translate(-192.76 -78.09)"/><path d="M372.41,220.6l.12.4v0l.47.68h0l.46.39a.58.58,0,0,0,.26.13l.47.1h.83a.8.8,0,0,0,.34-.07L376,222a.57.57,0,0,0,.18-.12l.61-.53h0l.45-.47,0,0,.08-.23a.86.86,0,0,0,0-.81l0-.07s-.05-.14-.08-.14h-4.15a1.77,1.77,0,0,0-.17.12l-.25.19A.63.63,0,0,0,372.41,220.6Z" transform="translate(-192.76 -78.09)"/><path d="M410.36,221.88l.1.33v0l.39.56h0l.37.32a.65.65,0,0,0,.22.11l.39.08h.69a.92.92,0,0,0,.28-.05l.51-.22.16-.1.5-.44h0l.38-.4v0l.07-.19a.69.69,0,0,0,0-.67l0-.06s0-.11-.06-.11h-3.44l-.13.09-.21.16A.52.52,0,0,0,410.36,221.88Z" transform="translate(-192.76 -78.09)"/></g></svg>
