<svg xmlns="http://www.w3.org/2000/svg" viewBox="0 0 605.3917 650.0929"><defs><style>.cls-1{fill:#3949fa;}.cls-2{fill:#ffdb54;}.cls-3{fill:#ffebb5;}.cls-4,.cls-5,.cls-6{fill:none;}.cls-4{stroke:#ffdb54;}.cls-4,.cls-6{stroke-miterlimit:10;}.cls-5,.cls-6{stroke:#3949fa;stroke-width:5px;}.cls-5{stroke-linecap:round;stroke-linejoin:round;}.cls-7{fill:#fff;}</style></defs><title>logo</title><g id="Layer_4" data-name="Layer 4"><path class="cls-1" d="M307.792,82.7857c-50.5589,80.6472-26.8425,193.3214,46.95,239.5826,59.31,37.1821,140.6477,44.4354,191.5172,2.0732,12.4212-10.3439,18.0455-28.2533,25.2457-45.4906,9.0434-21.65,17.6961-63.6978,21.8873-85.4067,6.255-32.3993,6.9251-60.6981-4.3861-89.7033C577.58,74.5422,565.6427,47.754,537.8314,30.3187,464.0394-15.9425,358.3509,2.1384,307.792,82.7857Z"/><path class="cls-1" d="M278.1809,110.97c50.5589,80.6472,34.4512,186.3086-33.6651,229.0116S92.9215,372.2256,42.3626,291.5783c-12.64-20.1618-23.068-64.5036-27.7791-85.8864C7.5523,173.7791,5.94,146.0712,15.6223,118.087,25.4028,89.82,35.7538,64.0259,61.426,47.9316,129.5422,5.2286,227.622,30.3224,278.1809,110.97Z"/><polygon class="cls-2" points="436.276 286.259 369.808 194.374 381.459 191.501 390.397 189.586 401.09 188.788 413.539 188.788 422.318 188.788 433.011 189.745 439.874 191.022 451.685 195.012 471.316 202.035 484.244 208.898 497.65 216.718 513.451 226.294 524.942 235.551 535.795 248 543.456 258.694 547.447 268.27 549.841 275.612 552.235 287.103 553.033 295.243 553.033 303.223 553.033 313.917 553.033 316.47 545.372 333.867 536.753 353.658 529.231 369.709 519.493 385.938 504.707 409.38 489.92 432.462 471.888 459.511 454.937 485.117 434.741 516.854 422.479 538.854 403.725 567.345 386.414 592.23 368.742 609.902 352.512 623.967 337.726 634.787 326.546 641.278 316.808 643.803 306.71 643.803 293.005 642 282.186 637.672 270.645 629.016 260.547 620.721 249.727 609.902 241.072 600.164 236.744 595.115 212.58 593.312 194.908 592.23 176.876 590.427 160.044 588.984 134.319 586.46 119.533 583.935 109.434 583.214 104.385 585.738 96.451 588.263 90.32 589.705 83.131 590.427 76.255 590.066 67.238 589.345 61.468 587.902 57.14 588.263 50.649 587.902 44.157 586.46 37.891 583.574 32.255 580.328 25.89 574.919 19.633 566.902 16.026 562.657 14.548 558.291 15.124 555.806 15.917 552.188 11.184 545.483 9.015 540.356 9.015 535.192 9.015 531.68 9.015 528.524 10.79 526.147 13.55 526.147 12.959 518.862 10.395 511.763 10.79 505.626 12.367 500.917 14.548 497.565 17.517 494.41 20.649 492.832 28.68 486.199 30.525 474.888 35.833 470.595 56.836 548.731 436.276 286.259"/><polygon class="cls-2" points="369.808 194.374 358.365 197.4 314.826 212.785 205.63 193.697 193.429 192.501 181.18 192.501 167.57 192.501 153.152 192.501 140.624 193.697 125.342 196.311 109.322 199.85 94.079 204.477 82.647 209.104 74.209 214.764 66.588 222.714 60.327 230.824 57.061 236.596 53.25 246.122 49.712 253.959 47.262 262.182 45.357 270.892 43.724 280.963 42.363 291.578 144.083 488.379 457.595 278.428 369.808 194.374"/><path class="cls-1" d="M115.4718,432.8066c0,9.8884-13.5861,31.7036-37.49,31.7036-12.8861,0-30.6094-5.6705-40.09-13.0636-8.1064-6.3215-9.977-14.1492-9.977-18.7071,0-9.8884,20.37-17.8375,44.2748-17.8375S115.4718,422.9181,115.4718,432.8066Z"/><path class="cls-3" d="M358.3646,157.013c0,26.771-12.7671,57.9545-27.0029,75.4983s-29.94,21.448-51.6636,21.448c-30.7842,0-57.7-11.626-69.825-42.6891-4.9873-12.7767-6.12-36.31-6.12-51.9145,0-19.16-2.0583-38.06,3.2859-54.4992,2.8855-8.8763,10.1185-17.7138,16.0349-23.9483,13.7463-14.4853,37.12-20.8414,56.6243-20.8414,20.4,0,39.7678,6.3957,53.7461,22.0909C349.2356,99.8888,358.3646,128.6115,358.3646,157.013Z"/><polygon points="28.906 438.925 32.099 449.966 34.79 457.22 37.363 463.889 40.054 470.09 43.096 476.758 45.787 483.427 49.414 485.65 53.626 487.639 57.604 488.379 62.166 489.394 67.08 490.096 72.579 490.096 78.312 489.16 82.29 488.379 86.735 487.171 91.181 485.533 96.329 483.778 102.179 470.207 107.56 457.922 109.9 452.423 111.409 448.562 112.942 442.011 113.995 438.925 111.409 444.702 109.783 445.989 107.911 446.34 106.04 445.755 104.636 444.468 104.168 446.808 102.693 448.211 100.775 448.796 98.786 448.679 96.914 448.094 95.276 446.34 94.223 448.094 92.936 449.498 91.181 450.317 89.777 450.785 87.32 450.551 85.682 449.147 84.161 447.159 83.109 449.264 81.939 450.317 80.535 451.487 78.546 452.306 76.44 452.072 74.919 451.253 73.213 449.849 72.228 447.977 71.451 449.732 70.005 451.019 68.25 451.955 66.612 452.54 64.74 452.072 62.868 451.253 61.113 449.498 60.061 447.276 58.774 449.03 57.136 449.966 55.615 450.551 53.041 450.434 51.637 449.498 50.233 447.977 49.063 445.521 47.074 446.574 45.202 446.808 43.213 446.457 41.341 445.404 40.171 443.415 39.703 441.894 38.182 443.181 36.428 443.766 33.971 443.649 31.4 442.713 30.227 440.841 28.906 438.925"/><polyline class="cls-2" points="128.702 500.917 125.342 496.418 125.342 487.971 119.736 473.79 109.461 461.551 105.149 459.115 100.484 459.115 97.644 460.738 97.644 462.969 100.078 469.663 102.107 475.856 104.541 484.673 106.164 493.193 105.758 498.669 104.946 505.626 102.918 511.448 100.078 516.114 97.644 518.953 93.997 523.025 85.296 526.147 78.198 526.147 69.281 526.147 61.459 523.025 52.521 517.988 49.541 512.029 43.622 499.572 41.72 491.07 41.72 484.841 41.72 477.392 41.72 470.595 41.72 463.913 39.844 459.115 37.231 455.79 28.68 455.79 25.89 459.115 24.308 465.058 23.158 473.79 23.158 491.164 56.836 548.731"/><path class="cls-3" d="M96.288,392.31a12.0027,12.0027,0,0,0-3.5317-9.2608,53.6809,53.6809,0,0,0-8.7114-6.514c-2.5625-1.5947-5.9509-2.7736-7.5343-4.5519-4.89-5.4919-3.67-10.8357-5.1013-6.8279-1.1772,3.2962-4.4695,8.0176-7.8229,8.0176-17.7762,0-32.1866,8.9361-32.1866,19.9594,0,6.4611,3.2855,14.576,10.9628,18.2239a34.1879,34.1879,0,0,0,13.5893,2.757c2.81-.0147,4.504,0,7.2238,0C80.9518,414.1137,96.288,403.3334,96.288,392.31Z"/><path class="cls-3" d="M113.9952,404.8405c1.4766,9.2732.7657,16.7714-4.665,20.85-4.6536,3.4953-11.7685,9.3831-23.49,11.6129a88.9673,88.9673,0,0,1-32.7273,0c-10.6468-1.8682-21.1533-7.26-22.1491-15.9992-.4161-3.6522-.423-8.0373,1.8363-11.5486,7.0069-10.89,25.4279-18.3979,44.979-18.3979,16.16,0,24.7535-1.0909,28.9265,2.1288C109.21,395.4187,113.02,398.7155,113.9952,404.8405Z"/><polygon class="cls-1" points="56.484 382.828 60.723 375.367 61.402 372.484 60.215 370.28 57.671 370.28 56.484 372.484 55.806 374.858 54.28 372.484 53.093 370.958 51.567 370.28 50.21 371.806 50.21 374.349 51.397 376.554 56.484 382.828"/><polygon class="cls-1" points="77.697 395.735 84.849 390.994 86.757 388.729 86.694 386.226 84.425 385.077 82.37 386.507 80.692 388.319 80.403 385.511 80.034 383.614 78.979 382.319 77.079 383.068 75.93 385.337 75.993 387.84 77.697 395.735"/><polygon class="cls-1" points="46.715 406.96 49.128 398.725 49.127 395.764 47.466 393.891 44.99 394.474 44.341 396.892 44.225 399.359 42.195 397.398 40.69 396.185 39.049 395.875 38.079 397.672 38.662 400.148 40.324 402.021 46.715 406.96"/><polygon class="cls-1" points="45.658 429.674 45.724 421.093 44.912 418.246 42.801 416.899 40.58 418.138 40.618 420.642 41.182 423.045 38.693 421.716 36.913 420.962 35.249 421.113 34.808 423.107 36.048 425.328 38.158 426.674 45.658 429.674"/><polygon class="cls-1" points="81.283 429.369 86.983 422.954 88.247 420.276 87.545 417.873 85.057 417.343 83.437 419.252 82.279 421.432 81.281 418.793 80.438 417.053 79.087 416.072 77.442 417.282 76.912 419.769 77.614 422.173 81.283 429.369"/><polygon class="cls-1" points="104.962 417.921 106.725 409.523 106.493 406.571 104.691 404.833 102.268 405.608 101.809 408.07 101.887 410.537 99.71 408.741 98.114 407.65 96.454 407.469 95.627 409.336 96.402 411.758 98.205 413.496 104.962 417.921"/><path class="cls-4" d="M36.2123,406.96l4.054,2.4857,3.3372,1.9316,4.0126,1.128,5.1483.9743H64.65l5.8048-.9674,4.6991-1.1349,4.561-1.1575,4.4227-2.4068,4.1088-2.2113,2.6635-2.4878,2.4877-2.6885,1.6585-3.2545s1.7968-3.1048,1.3821-3.28"/></g><g id="Layer_1" data-name="Layer 1"><polygon class="cls-2" points="339.073 137.255 339.073 180.553 339.073 183.179 343.335 183.179 348.369 183.179 353.841 182.303 358.976 181.366 362.96 180.156 366.803 178.662 371.286 176.954 375.271 174.819 378.26 172.827 380.425 170.022 382.665 166.968 383.389 163.262 383.389 156.039 381.419 150.567 378.574 145.803 375.728 143.125 372.008 140.718 367.63 138.748 364.785 137.255 361.502 136.121 355.154 135.027 348.15 135.027 342.46 135.027 339.073 135.027 339.073 137.255"/><polygon points="212.359 208.958 214.205 206.087 216.871 203.421 220.152 201.165 224.355 199.729 228.971 199.729 234.471 200.755 237.79 202.601 240.661 204.344 242.507 205.882 245.788 203.011 249.07 201.37 253.171 199.729 257.068 198.704 261.349 198.704 265.067 198.704 269.168 199.935 272.86 201.575 277.577 204.652 281.884 207.933 284.14 210.189 286.191 212.785 284.14 217.162 282.089 221.059 279.218 224.135 275.936 227.006 271.787 228.526 268.348 230.082 264.861 230.082 260.059 230.069 226.129 230.824 212.359 208.958"/><path class="cls-1" d="M260.2327,141.39l-1.304-2.9339a2.1374,2.1374,0,0,0-.2818-.4645l-1.99-2.4984a2.141,2.141,0,0,0-.93-.6733l-2.5869-.96a2.14,2.14,0,0,0-.7449-.1338h-1.5817a2.1408,2.1408,0,0,0-1.7851.959l-1.6,2.4159a2.1327,2.1327,0,0,0-.1767.3246l-1.8734,4.2861-2.299,5.3642q-.0383.0892-.0683.1816l-2.4662,7.5883a2.13,2.13,0,0,0-.0594.2234l-1.6876,8.067-1.6,7.7907-1.5582,7.7908-1.13,5.8362a2.1454,2.1454,0,0,0-.039.4069v3.8761a2.1417,2.1417,0,0,0,.3051,1.1016l.9418,1.57a2.1411,2.1411,0,0,0,1.4756,1.0089l6.7327,1.15a2.141,2.141,0,0,0,.5692.02l9.2239-.9043a2.14,2.14,0,0,0,.7987-.2417l2.0141-1.0741a2.1412,2.1412,0,0,0,.8378-.8036l1.5358-2.6108a2.1456,2.1456,0,0,0,.1754-.3782l1.198-3.4231a2.142,2.142,0,0,0,.1155-.5649l.95-14.2462q.0048-.0711.0048-.1424V152.3279q0-.0988-.0091-.1974l-.9323-10.0686A2.14,2.14,0,0,0,260.2327,141.39Z"/><polygon class="cls-1" points="224.567 225.902 238.61 212.785 214.691 212.785 207.129 219.344 202.191 222.816 197.562 226.828 192.932 229.914 190.309 232.229 189.229 235.007 189.229 238.093 191.389 241.488 196.173 243.34 202.037 244.266 212.993 244.266 222.87 243.34 230.431 241.797 238.61 239.019 246.171 236.087 254.041 233.309 260.059 230.069 264.072 226.828 267.621 222.044 271.787 214.329 244.157 212.785 224.567 225.902"/><polyline class="cls-5" points="157.681 499.572 156.499 302.27 163.588 293.606"/><line class="cls-5" x1="149.8046" y1="293.6064" x2="156.4995" y2="302.2704"/><polyline class="cls-5" points="125.342 497.772 139.927 499.572 155.354 501.138 175.549 504.223 196.025 505.626 219.306 505.626 215.098 495.528 213.135 484.028 213.135 470.003 215.659 458.223 220.428 445.881 227.44 433.259 238.099 422.32 247.355 417.832 258.855 415.588 270.355 412.783 282.416 409.978 276.245 396.589 272.879 385.015 269.794 374.356 268.111 361.173 268.111 349.112 269.233 335.929 272.599 324.442 277.648 312.648 283.819 302.27 291.392 294.977 299.526 287.404 308.502 280.953 311.868 278.428 323.368 278.428"/><line class="cls-5" x1="311.5871" y1="266.6479" x2="311.8676" y2="278.4285"/><circle class="cls-6" cx="192.7734" cy="361.0279" r="14.0241"/><circle class="cls-1" cx="192.7734" cy="359.0279" r="3.2531"/><path class="cls-1" d="M102.7331,460.9873l-.03.3181a2.0672,2.0672,0,0,0,.068.7563l.5988,2.1275a2.0671,2.0671,0,0,0,.3487.6968l1.6223,2.119a2.0682,2.0682,0,0,0,.546.4965l1.4324.8953a2.0679,2.0679,0,0,0,2.4811-.218l.58-.523a2.0687,2.0687,0,0,0,.6022-.9635l.3458-1.2011a2.0679,2.0679,0,0,0-.393-1.8891l-1.5245-1.8455a2.0657,2.0657,0,0,0-.4983-.4366l-3.0244-1.89a2.0678,2.0678,0,0,0-.9735-.3108h0A2.068,2.068,0,0,0,102.7331,460.9873Z"/><path class="cls-1" d="M25.2776,475.1783l1.076-.0884a1.6589,1.6589,0,0,0,1.21-.7233l2.7174-3.8208a2.2443,2.2443,0,0,0,.3847-.9956l.7115-5.1906a2.5037,2.5037,0,0,0-.1186-1.1677l-1.1017-3.12a1.8523,1.8523,0,0,0-1.8236-1.3448l-.7633.0627a1.7394,1.7394,0,0,0-1.4174,1.0894l-2.0061,4.5265a2.3374,2.3374,0,0,0-.1771.63l-.7882,5.7506a2.4954,2.4954,0,0,0-.0144.5432l.1544,1.88A1.9774,1.9774,0,0,0,25.2776,475.1783Z"/><path class="cls-5" d="M37.8912,527.1475l-4.63-2.7778a12.3087,12.3087,0,0,1-3.5138-3.169l-2.239-2.9854a12.7752,12.7752,0,0,1-1.9918-3.9132l-1.7513-5.699a13.7746,13.7746,0,0,1-.6077-4.0464V492.1642"/><polyline class="cls-5" points="37.231 548.731 32.718 545.88 28.205 542.199 24.049 537.329 20.367 531.985 17.398 527.591 14.548 521.653"/><polyline class="cls-5" points="39.844 566.902 35.45 565.476 29.868 563.101 25.89 560.607 21.911 558.113 17.517 554.669"/><g id="Layer_2_copy" data-name="Layer 2 copy"><g id="Layer_2" data-name="Layer 2"><path class="cls-2" d="M234.967,142.98l-1.9185-1.42-4.3807-2.7379-5.4758-2.7379-7.1185-2.4641-6.0234-1.369H198.8248l-5.75,1.6428-5.4758,2.19-3.8331,2.7379-3.3858,3.7108-2.9479,4.2961,4.691,3.4922,4.1068,2.7379,4.3807,2.4642,7.1185,2.19,6.0234,1.6427h12.8681l5.4758-1.3689,5.202-1.6428,4.1068-2.7379,3.5376-2.2724a6.6109,6.6109,0,0,0,1.4125-1.2206l2.4422-2.8041-1.9613-2.508A11.6876,11.6876,0,0,0,234.967,142.98Z"/></g><path class="cls-2" d="M319.6059,146.1515l-1.6484-1.1914-3.7587-2.2894-4.6917-2.2788-6.0885-2.0293-5.1447-1.1072-4.1984.0484-5.3646.0617-4.882,1.4558-4.6434,1.92-3.2385,2.37-2.848,3.1945-2.4693,3.6888,4.0306,2.929,3.5255,2.2922,3.756,2.0562,6.0858,1.7961,5.1475,1.34,5.5978-.0644,5.3646-.0618,4.6514-1.22,4.4155-1.45,3.4718-2.3727,2.9914-1.9706a5.6322,5.6322,0,0,0,1.1914-1.0537l2.053-2.4128-1.6954-2.1173A9.955,9.955,0,0,0,319.6059,146.1515Z"/></g><path class="cls-7" d="M197.628,145.26l4.2081-2.0039,3.5472-.8868a3.8559,3.8559,0,0,1,.9354-.1152H216.22a2.8954,2.8954,0,0,1,1.2293.2739l2.6221,1.229,2.0466,1.503-2.1938,1.4968-2.2621,1.131a3.8787,3.8787,0,0,1-.9515.3295l-2.7071.5573a3.4824,3.4824,0,0,1-.7025.0716H206.42a3.1856,3.1856,0,0,1-.9655-.15l-4.1256-1.3127Z"/><path class="cls-7" d="M304.7317,148.1752l-3.404-1.75-2.8693-.7746a2.9021,2.9021,0,0,0-.7566-.1006h-8.0093a2.2,2.2,0,0,0-.9945.2392l-2.121,1.0736-1.6555,1.3127,1.7746,1.3074,1.83.9879a2.9819,2.9819,0,0,0,.77.2878l2.19.4868a2.6221,2.6221,0,0,0,.5683.0625H297.62a2.4038,2.4038,0,0,0,.781-.1309l3.3372-1.1466Z"/><path d="M205.6874,144.5431l.2591.895a.1961.1961,0,0,0,.0259.0554l1.0331,1.525a.1936.1936,0,0,0,.0328.0372l.9987.8789a1.2946,1.2946,0,0,0,.5745.2919l1.0228.2273a.1963.1963,0,0,0,.0425.0047h1.7724a1.8057,1.8057,0,0,0,.7378-.1576l1.3474-.6027a1.58,1.58,0,0,0,.4112-.2675l1.3288-1.1959.0139-.0139.9807-1.0787a.1954.1954,0,0,0,.04-.0663l.1861-.5245a2.0308,2.0308,0,0,0-.0189-1.8239l-.0853-.1707c-.0354-.059-.1016-.3031-.17-.3031h-9.0556a2.8727,2.8727,0,0,0-.3611.251l-.5478.4451A1.4469,1.4469,0,0,0,205.6874,144.5431Z"/><path d="M288.5045,147.4444l.2144.7406a.16.16,0,0,0,.0215.0459l.8549,1.262a.1623.1623,0,0,0,.0271.0308l.8265.7273a1.0717,1.0717,0,0,0,.4755.2416l.8464.1881a.16.16,0,0,0,.0352.0039h1.4667a1.496,1.496,0,0,0,.6106-.13l1.115-.4988a1.3057,1.3057,0,0,0,.34-.2214l1.1-.99.0115-.0114.8116-.8928a.1611.1611,0,0,0,.0328-.0548l.154-.4341a1.6808,1.6808,0,0,0-.0156-1.5094l-.0706-.1412c-.0293-.0488-.0841-.2509-.141-.2509h-7.4941a2.3857,2.3857,0,0,0-.2988.2077l-.4533.3684A1.1972,1.1972,0,0,0,288.5045,147.4444Z"/></g></svg>
