<svg xmlns="http://www.w3.org/2000/svg" viewBox="0 0 740.78 452.29"><defs><style>.cls-1,.cls-2,.cls-5{isolation:isolate;}.cls-2{font-size:153.84px;font-family:Roboto-Bold, Roboto;font-weight:700;}.cls-2,.cls-4{fill:#db78ab;}.cls-3{opacity:0.27;}.cls-5{font-size:90.08px;font-family:Chuck;}.cls-6{fill:#3949fa;}.cls-7{fill:#ffdb54;}.cls-8{fill:#ffebb5;}.cls-10,.cls-11,.cls-12,.cls-9{fill:none;}.cls-9{stroke:#000;}.cls-10,.cls-12,.cls-9{stroke-miterlimit:10;}.cls-10{stroke:#ffdb54;}.cls-11,.cls-12{stroke:#3949fa;stroke-width:5px;}.cls-11{stroke-linecap:round;stroke-linejoin:round;}.cls-13{fill:#fff;}</style></defs><title>logo</title><g id="Layer_1" data-name="Layer 1"><g id="_" data-name=" " class="cls-1"><text class="cls-2" transform="translate(220.8 134.81) scale(0.93 1)">*</text></g><g id="Polygon_3" data-name="Polygon 3" class="cls-3"><path class="cls-4" d="M42.91,74.89H783.68L413.3,527.19Z" transform="translate(-42.91 -74.89)"/></g><g id="B_KE_OFF" data-name="B KE OFF" class="cls-1"><text class="cls-5" transform="translate(149.85 101.75) scale(0.96 1)"><tspan xml:space="preserve">B   KE OFF</tspan></text></g><path class="cls-6" d="M417.37,198.66c-23.17,35.57-12.3,85.26,21.52,105.66,27.18,16.4,64.45,19.6,87.76.92,5.7-4.56,8.27-12.46,11.57-20.06,4.15-9.55,8.11-28.1,10-37.67,2.87-14.29,3.18-26.77-2-39.56s-10.7-24.74-23.45-32.43C489,155.12,440.54,163.09,417.37,198.66Z" transform="translate(-42.91 -74.89)"/><path class="cls-6" d="M405.63,205.8c23.17,35.57,15.79,82.17-15.43,101S320.73,321,297.56,285.45c-5.79-8.89-10.57-28.45-12.73-37.88-3.22-14.07-4-26.29.48-38.63s9.22-23.85,21-30.94C337.51,159.16,382.46,170.23,405.63,205.8Z" transform="translate(-42.91 -74.89)"/><polygon class="cls-7" points="435.18 208.22 404.72 167.69 410.06 166.42 414.15 165.58 419.05 165.23 424.76 165.23 428.78 165.23 433.68 165.65 436.82 166.21 442.24 167.97 451.23 171.07 457.16 174.1 463.3 177.54 470.54 181.77 475.81 185.85 480.78 191.34 484.3 196.06 486.12 200.28 487.22 203.52 488.32 208.59 488.68 212.18 488.68 215.7 488.68 220.41 488.68 221.54 485.17 229.21 481.22 237.94 477.77 245.02 473.31 252.18 466.54 262.52 459.76 272.7 451.5 284.63 443.73 295.92 434.47 309.92 428.85 319.62 420.26 332.19 412.33 343.16 404.23 350.95 396.79 357.16 390.01 361.93 384.89 364.79 380.43 365.91 375.8 365.91 369.52 365.11 364.56 363.2 359.27 359.38 354.64 355.73 349.69 350.95 345.72 346.66 343.74 344.43 332.66 343.64 324.56 343.16 316.3 342.37 308.59 341.73 296.8 340.62 290.02 339.5 285.39 339.18 283.08 340.3 279.44 341.41 276.63 342.05 273.34 342.37 270.19 342.21 266.06 341.89 263.41 341.25 261.43 341.41 258.45 341.25 255.48 340.62 252.61 339.34 250.02 337.91 247.11 335.52 244.24 331.99 242.59 330.12 241.91 328.19 242.17 327.1 242.54 325.5 240.37 322.54 239.37 320.28 239.37 318 239.37 316.45 239.37 315.06 240.19 314.01 241.45 314.01 241.18 310.8 240.01 307.67 240.19 304.96 240.91 302.89 241.91 301.41 243.27 300.02 244.71 299.32 248.38 296.4 249.23 291.41 251.66 289.51 261.29 323.98 435.18 208.22"/><polygon class="cls-7" points="404.72 167.69 399.47 169.03 379.52 175.81 329.48 167.39 323.88 166.86 318.27 166.86 312.04 166.86 305.43 166.86 299.69 167.39 292.68 168.54 285.34 170.1 278.36 172.15 273.12 174.19 269.25 176.68 265.76 180.19 262.89 183.77 261.39 186.31 259.64 190.51 258.02 193.97 256.9 197.6 256.03 201.44 255.28 205.88 254.66 210.56 301.27 297.36 444.95 204.76 404.72 167.69"/><path class="cls-6" d="M331.07,347.74c0,4.36-6.23,14-17.18,14-5.91,0-14-2.5-18.38-5.76a10.52,10.52,0,0,1-4.57-8.25c0-4.36,9.34-7.87,20.29-7.87S331.07,343.38,331.07,347.74Z" transform="translate(-42.91 -74.89)"/><path class="cls-8" d="M442.38,226.1c0,11.81-5.85,25.56-12.38,33.3s-13.72,9.46-23.67,9.46c-14.11,0-26.44-5.13-32-18.83-2.29-5.63-2.81-16-2.81-22.89,0-8.45-.94-16.79,1.51-24,1.32-3.91,4.64-7.81,7.35-10.56,6.3-6.39,17-9.19,25.95-9.19,9.35,0,18.22,2.82,24.63,9.74C438.19,200.91,442.38,213.58,442.38,226.1Z" transform="translate(-42.91 -74.89)"/><path class="cls-9" d="M387.5,262.27" transform="translate(-42.91 -74.89)"/><polygon points="248.49 275.55 249.95 280.42 251.19 283.62 252.37 286.56 253.6 289.29 254.99 292.23 256.23 295.17 257.89 296.15 259.82 297.03 261.64 297.36 263.73 297.81 265.98 298.12 268.5 298.12 271.13 297.7 272.95 297.36 274.99 296.82 277.03 296.1 279.39 295.33 282.07 289.34 284.53 283.93 285.61 281.5 286.3 279.8 287 276.91 287.48 275.55 286.3 278.09 285.55 278.66 284.69 278.82 283.84 278.56 283.19 277.99 282.98 279.02 282.3 279.64 281.42 279.9 280.51 279.85 279.65 279.59 278.9 278.82 278.42 279.59 277.83 280.21 277.03 280.57 276.38 280.78 275.26 280.67 274.51 280.06 273.81 279.18 273.33 280.11 272.79 280.57 272.15 281.09 271.24 281.45 270.27 281.35 269.57 280.98 268.79 280.37 268.34 279.54 267.99 280.31 267.32 280.88 266.52 281.29 265.77 281.55 264.91 281.35 264.05 280.98 263.25 280.21 262.77 279.23 262.18 280 261.43 280.42 260.73 280.67 259.55 280.62 258.91 280.21 258.26 279.54 257.73 278.46 256.81 278.92 255.96 279.02 255.04 278.87 254.19 278.4 253.65 277.53 253.44 276.86 252.74 277.42 251.94 277.68 250.81 277.63 249.63 277.22 249.09 276.39 248.49 275.55"/><polyline class="cls-7" points="294.22 302.89 292.68 300.9 292.68 297.18 290.11 290.92 285.4 285.53 283.43 284.45 281.29 284.45 279.99 285.17 279.99 286.15 281.11 289.1 282.04 291.83 283.15 295.72 283.89 299.48 283.71 301.9 283.34 304.96 282.41 307.53 281.11 309.59 279.99 310.84 278.32 312.64 274.33 314.01 271.08 314.01 266.99 314.01 263.41 312.64 259.31 310.42 257.94 307.79 255.23 302.29 254.36 298.55 254.36 295.8 254.36 292.51 254.36 289.51 254.36 286.57 253.5 284.45 252.3 282.99 248.38 282.99 247.11 284.45 246.38 287.07 245.85 290.92 245.85 298.59 261.29 323.98"/><path class="cls-8" d="M322.28,329.88a5.19,5.19,0,0,0-1.62-4.08,24.15,24.15,0,0,0-4-2.88c-1.17-.7-2.72-1.22-3.45-2-2.24-2.42-1.68-4.77-2.34-3-.54,1.46-2,3.54-3.58,3.54-8.15,0-14.75,3.94-14.75,8.8a8.88,8.88,0,0,0,5,8,16.15,16.15,0,0,0,6.23,1.22h3.31C315.25,339.5,322.28,334.74,322.28,329.88Z" transform="translate(-42.91 -74.89)"/><path class="cls-8" d="M330.39,335.41c.68,4.09.35,7.39-2.14,9.19a24.6,24.6,0,0,1-10.76,5.12,42.22,42.22,0,0,1-15,0c-4.88-.82-9.69-3.2-10.15-7.05a7.56,7.56,0,0,1,.84-5.1c3.21-4.8,11.65-8.11,20.61-8.11,7.41,0,11.35-.48,13.26.94A7.65,7.65,0,0,1,330.39,335.41Z" transform="translate(-42.91 -74.89)"/><polygon class="cls-6" points="261.13 250.81 263.07 247.51 263.38 246.24 262.84 245.27 261.67 245.27 261.13 246.24 260.82 247.29 260.12 246.24 259.57 245.57 258.87 245.27 258.25 245.94 258.25 247.07 258.8 248.04 261.13 250.81"/><polygon class="cls-6" points="270.85 256.5 274.13 254.41 275 253.41 274.97 252.3 273.93 251.8 272.99 252.43 272.22 253.23 272.09 251.99 271.92 251.15 271.44 250.58 270.56 250.91 270.04 251.91 270.07 253.02 270.85 256.5"/><polygon class="cls-6" points="256.65 261.45 257.76 257.82 257.75 256.51 256.99 255.69 255.86 255.94 255.56 257.01 255.51 258.1 254.58 257.23 253.89 256.7 253.14 256.56 252.69 257.35 252.96 258.44 253.72 259.27 256.65 261.45"/><polygon class="cls-6" points="256.17 271.47 256.2 267.68 255.82 266.43 254.86 265.83 253.84 266.38 253.86 267.48 254.12 268.54 252.97 267.96 252.16 267.62 251.4 267.69 251.19 268.57 251.76 269.55 252.73 270.14 256.17 271.47"/><polygon class="cls-6" points="272.49 271.33 275.1 268.5 275.68 267.32 275.36 266.26 274.22 266.03 273.48 266.87 272.95 267.83 272.49 266.67 272.11 265.9 271.49 265.47 270.73 266 270.49 267.1 270.81 268.16 272.49 271.33"/><polygon class="cls-6" points="283.34 266.28 284.15 262.58 284.05 261.28 283.22 260.51 282.11 260.85 281.9 261.94 281.93 263.03 280.94 262.23 280.2 261.75 279.44 261.67 279.06 262.5 279.42 263.56 280.25 264.33 283.34 266.28"/><path class="cls-10" d="M294.74,336.34l1.86,1.1,1.53.85,1.84.5,2.36.43h5.45l2.66-.43,2.15-.5,2.09-.51,2-1.06,1.88-1,1.22-1.1,1.14-1.18.76-1.44s.82-1.37.63-1.44" transform="translate(-42.91 -74.89)"/><path class="cls-7" d="M385.83,219.92l-.88-.63-2-1.21-2.51-1.21-3.26-1.08-2.76-.61h-5.14l-2.64.73-2.51,1-1.76,1.21-1.55,1.64-1.35,1.89,2.15,1.54,1.88,1.21,2,1.09,3.26,1,2.76.73h5.9l2.51-.61,2.38-.72,1.89-1.21,1.62-1a2.78,2.78,0,0,0,.64-.54l1.12-1.24-.89-1.1A5.44,5.44,0,0,0,385.83,219.92Z" transform="translate(-42.91 -74.89)"/><path class="cls-7" d="M424.62,221.31l-.76-.52-1.72-1-2.15-1-2.79-.89-2.36-.49-1.92,0-2.46,0-2.24.64-2.13.85-1.48,1-1.31,1.41L402.17,223,404,224.3l1.61,1,1.73.91,2.78.79,2.36.59,2.57,0,2.46,0,2.13-.54,2-.64,1.59-1.05,1.37-.87a2.45,2.45,0,0,0,.55-.46l.94-1.07-.78-.93A4.3,4.3,0,0,0,424.62,221.31Z" transform="translate(-42.91 -74.89)"/><polygon class="cls-7" points="390.63 142.5 390.63 161.59 390.63 162.75 392.58 162.75 394.89 162.75 397.4 162.37 399.75 161.95 401.58 161.42 403.34 160.76 405.39 160.01 407.22 159.07 408.59 158.19 409.58 156.95 410.61 155.6 410.94 153.97 410.94 150.78 410.04 148.37 408.73 146.27 407.43 145.09 405.72 144.03 403.72 143.16 402.41 142.5 400.91 142 398 141.52 394.79 141.52 392.18 141.52 390.63 141.52 390.63 142.5"/><polygon points="332.56 174.12 333.41 172.86 334.63 171.68 336.13 170.69 338.06 170.05 340.17 170.05 342.69 170.5 344.21 171.32 345.53 172.09 346.38 172.77 347.88 171.5 349.38 170.78 351.26 170.05 353.05 169.6 355.01 169.6 356.71 169.6 358.6 170.14 360.29 170.87 362.45 172.22 364.42 173.67 365.46 174.66 366.4 175.81 365.46 177.74 364.52 179.46 363.2 180.82 361.7 182.08 359.8 182.75 358.22 183.44 356.62 183.44 354.42 183.43 338.87 183.77 332.56 174.12"/><path class="cls-6" d="M397.41,219.21l-.6-1.29a.86.86,0,0,0-.13-.2l-.91-1.11a1,1,0,0,0-.43-.29l-1.18-.43a1,1,0,0,0-.34-.06h-.73a1,1,0,0,0-.82.43l-.73,1.06a1.09,1.09,0,0,0-.08.15l-.86,1.89-1.05,2.36a.3.3,0,0,0,0,.08l-1.13,3.35a.3.3,0,0,0,0,.1l-.78,3.55-.73,3.44-.71,3.44-.52,2.57a1.1,1.1,0,0,0,0,.18v1.71a1,1,0,0,0,.14.49l.43.69a1,1,0,0,0,.68.44l3.08.51a1.22,1.22,0,0,0,.27,0l4.22-.4a1,1,0,0,0,.37-.11l.92-.47a1,1,0,0,0,.39-.35l.7-1.16a1.19,1.19,0,0,0,.08-.16l.55-1.51a.74.74,0,0,0,.05-.25l.44-6.29V224a.28.28,0,0,0,0-.09l-.42-4.44A1.11,1.11,0,0,0,397.41,219.21Z" transform="translate(-42.91 -74.89)"/><polygon class="cls-6" points="338.15 181.59 344.59 175.81 333.63 175.81 330.16 178.7 327.9 180.23 325.78 182 323.66 183.37 322.46 184.39 321.96 185.61 321.96 186.97 322.95 188.47 325.14 189.29 327.83 189.69 332.85 189.69 337.38 189.29 340.84 188.6 344.59 187.38 348.06 186.09 351.66 184.86 354.42 183.43 356.26 182 357.89 179.89 359.8 176.49 347.13 175.81 338.15 181.59"/><polyline class="cls-11" points="307.5 302.29 306.96 215.28 310.21 211.46"/><line class="cls-11" x1="303.89" y1="211.46" x2="306.96" y2="215.28"/><polyline class="cls-11" points="292.68 301.5 299.37 302.29 306.44 302.99 315.69 304.35 325.07 304.96 335.74 304.96 333.82 300.51 332.92 295.44 332.92 289.25 334.07 284.06 336.26 278.62 339.47 273.05 344.36 268.22 348.6 266.24 353.87 265.25 359.14 264.02 364.67 262.78 361.84 256.88 360.3 251.77 358.88 247.07 358.11 241.25 358.11 235.94 358.63 230.12 360.17 225.06 362.48 219.85 365.31 215.28 368.78 212.06 372.51 208.72 376.62 205.88 378.16 204.76 383.43 204.76"/><line class="cls-11" x1="378.03" y1="199.57" x2="378.16" y2="204.76"/><ellipse class="cls-12" cx="323.59" cy="241.19" rx="6.43" ry="6.19"/><ellipse class="cls-6" cx="323.59" cy="240.31" rx="1.49" ry="1.43"/><path class="cls-6" d="M325.23,360.17l0,.14a.75.75,0,0,0,0,.33l.27.94a.92.92,0,0,0,.16.31l.74.93a1,1,0,0,0,.25.22l.66.4a1,1,0,0,0,1.14-.1l.26-.23a.9.9,0,0,0,.28-.43l.16-.52a.91.91,0,0,0-.18-.84l-.7-.81a.83.83,0,0,0-.23-.19l-1.39-.84a1,1,0,0,0-.44-.14h0A1,1,0,0,0,325.23,360.17Z" transform="translate(-42.91 -74.89)"/><path class="cls-6" d="M289.73,366.43l.5,0a.77.77,0,0,0,.55-.32l1.25-1.69a.91.91,0,0,0,.17-.43l.33-2.29a1.13,1.13,0,0,0-.06-.52l-.5-1.37a.84.84,0,0,0-.84-.6l-.35,0a.8.8,0,0,0-.65.48l-.92,2a1.2,1.2,0,0,0-.08.27l-.36,2.54a1,1,0,0,0,0,.24l.07.83A.89.89,0,0,0,289.73,366.43Z" transform="translate(-42.91 -74.89)"/><path class="cls-11" d="M295.51,389.35l-2.12-1.23a5.66,5.66,0,0,1-1.61-1.39l-1-1.32a5.55,5.55,0,0,1-.92-1.73l-.8-2.51a6,6,0,0,1-.28-1.79v-5.46" transform="translate(-42.91 -74.89)"/><polyline class="cls-11" points="252.3 323.98 250.24 322.72 248.17 321.09 246.26 318.95 244.57 316.59 243.22 314.65 241.91 312.03"/><polyline class="cls-11" points="253.5 331.99 251.49 331.36 248.93 330.31 247.11 329.21 245.28 328.11 243.27 326.59"/><path class="cls-13" d="M368.72,220.92l1.93-.88,1.62-.39a1.59,1.59,0,0,1,.43-.06h4.54a1.39,1.39,0,0,1,.56.13l1.2.54.94.66-1,.66-1,.5a1.73,1.73,0,0,1-.44.14l-1.24.25a1.66,1.66,0,0,1-.32,0h-3.15a1.74,1.74,0,0,1-.45-.06l-1.89-.58Z" transform="translate(-42.91 -74.89)"/><path class="cls-13" d="M417.8,222.21l-1.56-.78-1.32-.34a1.27,1.27,0,0,0-.34,0h-3.67a1,1,0,0,0-.46.1l-1,.48-.76.58.81.57.84.44a1.4,1.4,0,0,0,.36.13l1,.21a1.15,1.15,0,0,0,.26,0h2.55a1.13,1.13,0,0,0,.36-.06l1.53-.51Z" transform="translate(-42.91 -74.89)"/><path d="M372.41,220.6l.12.4v0l.47.68h0l.46.39a.58.58,0,0,0,.26.13l.47.1h.83a.8.8,0,0,0,.34-.07L376,222a.57.57,0,0,0,.18-.12l.61-.53h0l.45-.47,0,0,.08-.23a.86.86,0,0,0,0-.81l0-.07s-.05-.14-.08-.14h-4.15a1.77,1.77,0,0,0-.17.12l-.25.19A.63.63,0,0,0,372.41,220.6Z" transform="translate(-42.91 -74.89)"/><path d="M410.36,221.88l.1.33v0l.39.56h0l.37.32a.65.65,0,0,0,.22.11l.39.08h.69a.92.92,0,0,0,.28-.05l.51-.22.16-.1.5-.44h0l.38-.4v0l.07-.19a.69.69,0,0,0,0-.67l0-.06s0-.11-.06-.11h-3.44l-.13.09-.21.16A.52.52,0,0,0,410.36,221.88Z" transform="translate(-42.91 -74.89)"/></g></svg>
