<svg xmlns="http://www.w3.org/2000/svg" viewBox="0 0 391.84 343.51"><defs><style>.cls-1{isolation:isolate;}.cls-2{fill:#db78ab;}.cls-3{fill:#3949fa;}.cls-4{fill:#ffdb54;}.cls-5{fill:#ffebb5;}.cls-6,.cls-7,.cls-8,.cls-9{fill:none;}.cls-6{stroke:#000;}.cls-6,.cls-7,.cls-9{stroke-miterlimit:10;}.cls-7{stroke:#ffdb54;}.cls-8,.cls-9{stroke:#3949fa;stroke-width:5px;}.cls-8{stroke-linecap:round;stroke-linejoin:round;}.cls-10{fill:#fff;}</style></defs><title>logowt</title><g id="Layer_1" data-name="Layer 1"><g id="_" data-name=" " class="cls-1"><g class="cls-1"><path class="cls-2" d="M313.65,170.43l-22.87-6.75,4.56-14.19,22.38,9.83L316,132.91h15l-1.82,26.94,21.74-9.61,4.56,14.34-23.15,6.75,15.36,19.91-12.13,8.86L322.69,178l-12.9,21.33-12.13-8.49Z" transform="translate(-239.99 -132.91)"/></g></g><g id="B_KE_OFF" data-name="B KE OFF" class="cls-1"><g class="cls-1"><path d="M240,209.23v-64h22q11.8,0,18,4.53t6.16,13.15a15.75,15.75,0,0,1-2.19,8.49,12.74,12.74,0,0,1-6.42,5.19,12.84,12.84,0,0,1,7.35,4.93,14.75,14.75,0,0,1,2.56,8.79q0,9.42-5.69,14.14t-16.87,4.82Zm14.75-37.34h7.69q4.83,0,6.89-1.85a6.72,6.72,0,0,0,2.06-5.34q0-4.06-2.22-5.85c-1.49-1.19-3.88-1.78-7.19-1.78h-7.23Zm0,10.11v15.35h9.67a8.88,8.88,0,0,0,6.13-1.91,6.84,6.84,0,0,0,2.15-5.39q0-8-7.61-8.05Z" transform="translate(-239.99 -132.91)"/><path d="M380.59,185.39l-6,7v16.89H359.79v-64h14.75v28.24l5.13-8.14,13.19-20.1H411.1l-20.67,28.33,20.67,35.71H393.62Z" transform="translate(-239.99 -132.91)"/><path d="M452.79,182.05h-23.2v15.3H457v11.88H414.84v-64h42.23v11.92H429.59v13.5h23.2Z" transform="translate(-239.99 -132.91)"/><path d="M536.24,178.53a39.33,39.33,0,0,1-3.32,16.58,24.8,24.8,0,0,1-23.37,15,25.67,25.67,0,0,1-13.86-3.76,25.23,25.23,0,0,1-9.44-10.76,38.11,38.11,0,0,1-3.55-16.05v-3.61a39.41,39.41,0,0,1,3.3-16.6,25.25,25.25,0,0,1,9.46-11.1,25.62,25.62,0,0,1,37.35,11,38.2,38.2,0,0,1,3.43,16.38Zm-15-2.68q0-9.56-3-14.5a9.69,9.69,0,0,0-8.72-4.94q-11.1,0-11.72,17.41l-.05,4.71q0,9.41,3,14.47a9.66,9.66,0,0,0,8.86,5.06,9.56,9.56,0,0,0,8.62-5q3-5,3.07-14.3Z" transform="translate(-239.99 -132.91)"/><path d="M582.38,183.72H558.59v25.51H543.84v-64h40.93v11.92H558.59v14.73h23.79Z" transform="translate(-239.99 -132.91)"/><path d="M629.44,183.72H605.65v25.51H590.91v-64h40.92v11.92H605.65v14.73h23.79Z" transform="translate(-239.99 -132.91)"/></g></g><path class="cls-3" d="M432.36,234.28c-23.17,35.57-12.31,85.26,21.51,105.67,27.18,16.39,64.46,19.59,87.77.91,5.69-4.56,8.27-12.46,11.57-20.06,4.14-9.55,8.11-28.1,10-37.67,2.87-14.29,3.17-26.77-2-39.56s-10.71-24.74-23.45-32.43C504,190.74,455.53,198.71,432.36,234.28Z" transform="translate(-239.99 -132.91)"/><path class="cls-3" d="M420.62,241.42c23.17,35.57,15.79,82.17-15.43,101s-69.47,14.22-92.64-21.35c-5.79-8.89-10.57-28.45-12.73-37.88-3.22-14.07-4-26.29.47-38.63s9.23-23.85,21-30.94C352.5,194.78,397.45,205.85,420.62,241.42Z" transform="translate(-239.99 -132.91)"/><polygon class="cls-4" points="253.08 185.82 222.62 145.29 227.95 144.03 232.05 143.18 236.95 142.83 242.66 142.83 246.68 142.83 251.58 143.25 254.72 143.82 260.14 145.58 269.13 148.67 275.06 151.7 281.2 155.15 288.44 159.37 293.71 163.46 298.68 168.95 302.19 173.66 304.02 177.89 305.12 181.12 306.22 186.19 306.58 189.78 306.58 193.3 306.58 198.02 306.58 199.14 303.07 206.82 299.12 215.54 295.68 222.62 291.21 229.78 284.44 240.12 277.66 250.3 269.4 262.23 261.63 273.52 252.37 287.52 246.75 297.22 238.16 309.79 230.22 320.76 222.13 328.56 214.69 334.76 207.91 339.53 202.79 342.4 198.33 343.51 193.7 343.51 187.42 342.71 182.46 340.81 177.17 336.99 172.54 333.33 167.59 328.56 163.62 324.26 161.63 322.04 150.56 321.24 142.46 320.76 134.2 319.97 126.48 319.33 114.7 318.22 107.92 317.11 103.29 316.79 100.98 317.9 97.34 319.01 94.53 319.65 91.24 319.97 88.09 319.81 83.95 319.49 81.31 318.86 79.33 319.01 76.35 318.86 73.38 318.22 70.51 316.95 67.92 315.51 65.01 313.13 62.14 309.59 60.48 307.72 59.81 305.8 60.07 304.7 60.44 303.1 58.27 300.15 57.27 297.89 57.27 295.61 57.27 294.06 57.27 292.67 58.09 291.62 59.35 291.62 59.08 288.41 57.91 285.27 58.09 282.57 58.81 280.49 59.81 279.01 61.17 277.62 62.6 276.93 66.28 274 67.13 269.01 69.56 267.12 79.19 301.58 253.08 185.82"/><polygon class="cls-4" points="222.62 145.29 217.37 146.63 197.42 153.41 147.38 145 141.78 144.47 136.17 144.47 129.93 144.47 123.33 144.47 117.58 145 110.58 146.15 103.24 147.71 96.25 149.75 91.02 151.79 87.15 154.29 83.66 157.79 80.79 161.37 79.29 163.92 77.54 168.12 75.92 171.57 74.8 175.2 73.93 179.04 73.18 183.48 72.56 188.16 119.17 274.96 262.85 182.37 222.62 145.29"/><path class="cls-3" d="M346.05,383.36c0,4.36-6.22,14-17.18,14-5.9,0-14-2.5-18.37-5.76a10.49,10.49,0,0,1-4.57-8.25c0-4.36,9.33-7.87,20.29-7.87S346.05,379,346.05,383.36Z" transform="translate(-239.99 -132.91)"/><path class="cls-5" d="M457.36,261.72c0,11.81-5.85,25.57-12.37,33.3s-13.72,9.46-23.68,9.46c-14.1,0-26.44-5.13-32-18.83-2.28-5.63-2.8-16-2.8-22.89,0-8.45-.94-16.79,1.51-24,1.32-3.91,4.63-7.81,7.34-10.56,6.3-6.39,17-9.19,25.95-9.19,9.35,0,18.23,2.82,24.63,9.74C453.18,236.53,457.36,249.2,457.36,261.72Z" transform="translate(-239.99 -132.91)"/><path class="cls-6" d="M402.48,297.89" transform="translate(-239.99 -132.91)"/><polygon points="66.39 253.15 67.85 258.02 69.08 261.22 70.26 264.16 71.5 266.9 72.89 269.84 74.12 272.78 75.79 273.76 77.72 274.64 79.54 274.96 81.63 275.41 83.88 275.72 86.4 275.72 89.03 275.31 90.85 274.96 92.89 274.43 94.93 273.71 97.29 272.93 99.97 266.95 102.43 261.53 103.51 259.1 104.2 257.4 104.9 254.51 105.38 253.15 104.2 255.7 103.45 256.27 102.59 256.42 101.74 256.16 101.09 255.6 100.88 256.63 100.2 257.25 99.32 257.5 98.41 257.45 97.55 257.19 96.8 256.42 96.32 257.19 95.73 257.81 94.93 258.18 94.28 258.38 93.16 258.28 92.41 257.66 91.71 256.78 91.23 257.71 90.69 258.18 90.05 258.69 89.14 259.05 88.17 258.95 87.47 258.59 86.69 257.97 86.24 257.14 85.89 257.92 85.22 258.49 84.42 258.9 83.67 259.16 82.81 258.95 81.95 258.59 81.15 257.81 80.67 256.83 80.08 257.61 79.33 258.02 78.63 258.28 77.45 258.23 76.81 257.81 76.16 257.14 75.63 256.06 74.71 256.52 73.86 256.63 72.94 256.47 72.09 256.01 71.55 255.13 71.34 254.46 70.64 255.03 69.83 255.29 68.71 255.23 67.53 254.82 66.99 254 66.39 253.15"/><polyline class="cls-4" points="112.12 280.49 110.58 278.51 110.58 274.78 108.01 268.53 103.3 263.13 101.33 262.06 99.19 262.06 97.89 262.77 97.89 263.76 99 266.71 99.93 269.44 101.05 273.33 101.79 277.08 101.61 279.5 101.23 282.57 100.31 285.14 99 287.19 97.89 288.45 96.22 290.24 92.23 291.62 88.98 291.62 84.89 291.62 81.31 290.24 77.21 288.02 75.84 285.39 73.13 279.9 72.26 276.15 72.26 273.4 72.26 270.12 72.26 267.12 72.26 264.17 71.4 262.06 70.2 260.59 66.28 260.59 65.01 262.06 64.28 264.68 63.75 268.53 63.75 276.19 79.19 301.58"/><path class="cls-5" d="M337.26,365.5a5.15,5.15,0,0,0-1.62-4.08,24.54,24.54,0,0,0-4-2.88c-1.17-.7-2.73-1.22-3.45-2-2.24-2.43-1.68-4.78-2.34-3-.54,1.46-2.05,3.54-3.59,3.54-8.14,0-14.75,3.94-14.75,8.8a8.89,8.89,0,0,0,5,8,16.11,16.11,0,0,0,6.23,1.22h3.31C330.23,375.12,337.26,370.36,337.26,365.5Z" transform="translate(-239.99 -132.91)"/><path class="cls-5" d="M345.38,371c.67,4.09.35,7.39-2.14,9.19a24.65,24.65,0,0,1-10.77,5.12,42.16,42.16,0,0,1-15,0c-4.88-.82-9.7-3.2-10.16-7a7.51,7.51,0,0,1,.85-5.1c3.21-4.8,11.65-8.11,20.61-8.11,7.4,0,11.34-.48,13.26.94A7.71,7.71,0,0,1,345.38,371Z" transform="translate(-239.99 -132.91)"/><polygon class="cls-3" points="79.03 228.41 80.97 225.12 81.28 223.85 80.74 222.88 79.57 222.88 79.03 223.85 78.72 224.9 78.02 223.85 77.47 223.18 76.77 222.88 76.15 223.55 76.15 224.67 76.69 225.64 79.03 228.41"/><polygon class="cls-3" points="88.75 234.1 92.03 232.01 92.9 231.01 92.87 229.91 91.83 229.4 90.89 230.03 90.12 230.83 89.99 229.59 89.82 228.76 89.33 228.19 88.46 228.52 87.94 229.52 87.97 230.62 88.75 234.1"/><polygon class="cls-3" points="74.55 239.05 75.66 235.42 75.66 234.12 74.89 233.29 73.76 233.55 73.46 234.61 73.41 235.7 72.48 234.84 71.79 234.3 71.04 234.16 70.59 234.96 70.86 236.05 71.62 236.88 74.55 239.05"/><polygon class="cls-3" points="74.06 249.07 74.09 245.29 73.72 244.03 72.76 243.44 71.74 243.98 71.75 245.09 72.01 246.15 70.87 245.56 70.06 245.23 69.3 245.29 69.09 246.17 69.66 247.15 70.63 247.75 74.06 249.07"/><polygon class="cls-3" points="90.39 248.94 93 246.11 93.58 244.93 93.26 243.87 92.12 243.63 91.38 244.47 90.85 245.44 90.39 244.27 90 243.5 89.39 243.07 88.63 243.6 88.39 244.7 88.71 245.76 90.39 248.94"/><polygon class="cls-3" points="101.24 243.89 102.05 240.18 101.94 238.88 101.12 238.12 100.01 238.46 99.8 239.54 99.83 240.63 98.84 239.84 98.1 239.36 97.34 239.28 96.97 240.1 97.32 241.17 98.15 241.94 101.24 243.89"/><path class="cls-7" d="M309.73,372l1.86,1.1,1.53.85,1.84.5,2.36.43h5.44l2.66-.43,2.16-.5,2.09-.51,2-1.06,1.89-1,1.22-1.1,1.14-1.18.76-1.44s.82-1.37.63-1.44" transform="translate(-239.99 -132.91)"/><path class="cls-4" d="M400.81,255.54l-.87-.63-2-1.21-2.51-1.21-3.26-1.08-2.76-.61h-5.15l-2.63.73-2.51,1-1.76,1.21-1.55,1.64-1.35,1.89,2.15,1.54,1.88,1.21,2,1.09,3.26,1,2.76.73h5.9l2.51-.61,2.38-.72,1.88-1.21,1.62-1a3.06,3.06,0,0,0,.65-.54l1.12-1.23-.9-1.11A5,5,0,0,0,400.81,255.54Z" transform="translate(-239.99 -132.91)"/><path class="cls-4" d="M439.6,256.93l-.75-.52-1.73-1-2.15-1-2.79-.89-2.35-.49-1.93,0-2.46,0-2.23.64-2.13.85-1.49,1-1.3,1.41-1.13,1.63,1.84,1.29,1.62,1,1.72.91,2.79.79,2.36.59,2.57,0,2.45,0,2.14-.54,2-.64,1.59-1.05,1.37-.87a2.69,2.69,0,0,0,.55-.46l.94-1.07-.78-.93A4.78,4.78,0,0,0,439.6,256.93Z" transform="translate(-239.99 -132.91)"/><polygon class="cls-4" points="208.53 120.1 208.53 139.2 208.53 140.36 210.48 140.36 212.79 140.36 215.3 139.97 217.65 139.56 219.48 139.02 221.24 138.37 223.29 137.61 225.12 136.67 226.49 135.79 227.48 134.55 228.51 133.21 228.84 131.57 228.84 128.39 227.94 125.97 226.63 123.87 225.33 122.69 223.62 121.63 221.62 120.76 220.31 120.1 218.81 119.6 215.9 119.12 212.69 119.12 210.08 119.12 208.53 119.12 208.53 120.1"/><polygon points="150.46 151.73 151.31 150.46 152.53 149.28 154.03 148.29 155.96 147.66 158.07 147.66 160.59 148.11 162.11 148.92 163.43 149.69 164.28 150.37 165.78 149.1 167.28 148.38 169.16 147.66 170.95 147.2 172.91 147.2 174.62 147.2 176.49 147.75 178.19 148.47 180.35 149.83 182.32 151.28 183.35 152.27 184.29 153.41 183.35 155.34 182.41 157.06 181.1 158.42 179.6 159.69 177.69 160.36 176.12 161.04 174.52 161.04 172.32 161.04 156.77 161.37 150.46 151.73"/><path class="cls-3" d="M412.39,254.83l-.59-1.29a1.37,1.37,0,0,0-.13-.2l-.92-1.11a1,1,0,0,0-.42-.29l-1.19-.43a1,1,0,0,0-.34-.06h-.72a1,1,0,0,0-.82.43l-.73,1.06a1.19,1.19,0,0,0-.09.15l-.85,1.89-1.06,2.36,0,.08-1.13,3.35,0,.1-.77,3.56-.73,3.43-.72,3.44-.51,2.57a.55.55,0,0,0,0,.18v1.71a1,1,0,0,0,.14.49l.43.69a1,1,0,0,0,.67.44l3.09.51a1.13,1.13,0,0,0,.26,0l4.23-.4a.89.89,0,0,0,.36-.11l.93-.47a.92.92,0,0,0,.38-.35l.71-1.16.08-.16.54-1.51a1.14,1.14,0,0,0,.06-.25l.43-6.28v-7.64l-.43-4.44A.84.84,0,0,0,412.39,254.83Z" transform="translate(-239.99 -132.91)"/><polygon class="cls-3" points="156.06 159.2 162.49 153.41 151.53 153.41 148.06 156.31 145.8 157.84 143.68 159.61 141.56 160.97 140.35 161.99 139.86 163.22 139.86 164.58 140.85 166.07 143.04 166.89 145.73 167.3 150.75 167.3 155.28 166.89 158.74 166.21 162.49 164.99 165.96 163.69 169.56 162.47 172.32 161.04 174.16 159.61 175.78 157.5 177.69 154.09 165.03 153.41 156.06 159.2"/><polyline class="cls-8" points="125.4 279.9 124.86 192.88 128.11 189.06"/><line class="cls-8" x1="121.79" y1="189.06" x2="124.86" y2="192.88"/><polyline class="cls-8" points="110.58 279.11 117.27 279.9 124.34 280.59 133.59 281.95 142.97 282.57 153.64 282.57 151.72 278.12 150.82 273.04 150.82 266.86 151.97 261.66 154.16 256.22 157.37 250.65 162.26 245.83 166.5 243.85 171.77 242.86 177.04 241.62 182.56 240.38 179.74 234.48 178.19 229.38 176.78 224.67 176.01 218.86 176.01 213.54 176.52 207.73 178.07 202.66 180.38 197.46 183.21 192.88 186.68 189.66 190.41 186.32 194.52 183.48 196.06 182.37 201.33 182.37"/><line class="cls-8" x1="195.93" y1="177.17" x2="196.06" y2="182.37"/><ellipse class="cls-9" cx="141.48" cy="218.8" rx="6.43" ry="6.19"/><ellipse class="cls-3" cx="141.48" cy="217.91" rx="1.49" ry="1.43"/><path class="cls-3" d="M340.21,395.79v.14a.93.93,0,0,0,0,.33l.28.94a.77.77,0,0,0,.16.31l.74.93a.88.88,0,0,0,.25.22l.66.4a1,1,0,0,0,1.13-.1l.27-.23a.92.92,0,0,0,.28-.42l.15-.53a.89.89,0,0,0-.18-.84l-.7-.81a.79.79,0,0,0-.22-.19l-1.39-.84a.87.87,0,0,0-.45-.13h0A.94.94,0,0,0,340.21,395.79Z" transform="translate(-239.99 -132.91)"/><path class="cls-3" d="M304.72,402.05l.49,0a.78.78,0,0,0,.56-.32L307,400a1.14,1.14,0,0,0,.18-.44l.32-2.29a1,1,0,0,0-.05-.52l-.51-1.37a.82.82,0,0,0-.83-.6l-.35,0a.78.78,0,0,0-.65.48l-.92,2a.84.84,0,0,0-.08.27l-.36,2.54a1,1,0,0,0,0,.24l.07.83A.9.9,0,0,0,304.72,402.05Z" transform="translate(-239.99 -132.91)"/><path class="cls-8" d="M310.5,425l-2.12-1.23a5.52,5.52,0,0,1-1.61-1.39l-1-1.32a5.62,5.62,0,0,1-.91-1.73l-.8-2.51a5.71,5.71,0,0,1-.28-1.78v-5.47" transform="translate(-239.99 -132.91)"/><polyline class="cls-8" points="70.2 301.58 68.14 300.32 66.07 298.7 64.16 296.55 62.48 294.19 61.11 292.26 59.81 289.64"/><polyline class="cls-8" points="71.4 309.59 69.39 308.96 66.83 307.92 65.01 306.82 63.18 305.72 61.17 304.2"/><path class="cls-10" d="M383.7,256.54l1.93-.88,1.63-.39a1.54,1.54,0,0,1,.43-.05h4.53a1.39,1.39,0,0,1,.57.12l1.2.54.94.66-1,.66-1,.5a1.57,1.57,0,0,1-.43.15l-1.24.24-.32,0h-3.16a1.61,1.61,0,0,1-.44-.06l-1.89-.58Z" transform="translate(-239.99 -132.91)"/><path class="cls-10" d="M432.79,257.83l-1.56-.77-1.32-.35a1.34,1.34,0,0,0-.35,0h-3.67a1.18,1.18,0,0,0-.45.1l-1,.48-.76.58.81.57.84.44a1.48,1.48,0,0,0,.35.13l1,.21a1.09,1.09,0,0,0,.26,0h2.55a1,1,0,0,0,.35-.06l1.53-.5Z" transform="translate(-239.99 -132.91)"/><path d="M387.4,256.23l.12.39s0,0,0,0l.47.68h0l.45.39a.68.68,0,0,0,.27.13l.47.1H390a.75.75,0,0,0,.33-.07l.62-.26a.76.76,0,0,0,.19-.12l.61-.53h0l.45-.48s0,0,0,0l.09-.23a.89.89,0,0,0,0-.81l0-.07s-.05-.13-.08-.13h-4.15l-.16.11-.25.19A.63.63,0,0,0,387.4,256.23Z" transform="translate(-239.99 -132.91)"/><path d="M425.35,257.5l.1.33s0,0,0,0l.39.56h0l.38.32a.46.46,0,0,0,.22.11l.39.08h.68a.82.82,0,0,0,.28-.05l.52-.22.15-.1.51-.44h0l.37-.4,0,0,.07-.19a.75.75,0,0,0,0-.67l0-.06s0-.11-.07-.11h-3.43a1.1,1.1,0,0,0-.14.09l-.21.16A.52.52,0,0,0,425.35,257.5Z" transform="translate(-239.99 -132.91)"/></g></svg>