<svg xmlns="http://www.w3.org/2000/svg" viewBox="0 0 285.9574 290.0426"><defs><style>.cls-1{fill:#3949fa;}.cls-2{fill:#ffdb54;}.cls-3{fill:#ffebb5;}.cls-4,.cls-6,.cls-7{fill:none;}.cls-4{stroke:#ffdb54;}.cls-4,.cls-7{stroke-miterlimit:10;}.cls-5{fill:#ff69b4;}.cls-6,.cls-7{stroke:#3949fa;stroke-width:5px;}.cls-6{stroke-linecap:round;stroke-linejoin:round;}.cls-8{fill:#fff;}</style></defs><title>logo</title><g id="Layer_1" data-name="Layer 1"><path class="cls-1" d="M146.0653,43.1579c-23.17,35.5686-12.3012,85.2624,21.5159,105.6654,27.18,16.3987,64.4554,19.5977,87.7676.9143,5.6923-4.562,8.27-12.4608,11.5695-20.0631,4.1444-9.5485,8.11-28.0933,10.03-37.6677,2.8665-14.2894,3.1736-26.77-2.01-39.5627-5.2361-12.9218-10.7067-24.7365-23.4519-32.4261C217.67-.385,169.2352,7.5893,146.0653,43.1579Z"/><path class="cls-1" d="M134.3284,50.2957c23.17,35.5686,15.7881,82.1694-15.4279,101.0031s-69.472,14.221-92.6419-21.3476c-5.7924-8.8921-10.5714-28.4486-12.7305-37.8793-3.2222-14.0748-3.9612-26.295.4761-38.6372,4.4822-12.467,9.2258-23.843,20.9907-30.9412C66.2109,3.66,111.1585,14.7271,134.3284,50.2957Z"/><polygon class="cls-2" points="206.779 127.605 176.319 87.08 181.658 85.813 185.754 84.968 190.655 84.616 196.36 84.616 200.383 84.616 205.283 85.039 208.428 85.602 213.841 87.362 222.837 90.459 228.762 93.486 234.906 96.935 242.147 101.158 247.413 105.241 252.387 110.732 255.898 115.448 257.726 119.671 258.823 122.909 259.92 127.977 260.286 131.567 260.286 135.087 260.286 139.803 260.286 140.929 256.775 148.602 252.826 157.331 249.378 164.41 244.916 171.568 238.14 181.907 231.363 192.086 223.099 204.016 215.331 215.309 206.076 229.307 200.456 239.009 191.862 251.575 183.929 262.55 175.83 270.344 168.393 276.548 161.616 281.319 156.493 284.183 152.03 285.296 147.403 285.296 141.122 284.501 136.164 282.592 130.875 278.774 126.247 275.116 121.289 270.344 117.322 266.05 115.339 263.823 104.265 263.027 96.167 262.55 87.903 261.755 80.189 261.119 68.4 260.005 61.624 258.892 56.996 258.574 54.682 259.687 51.046 260.801 48.236 261.437 44.942 261.755 41.791 261.596 37.659 261.278 35.014 260.642 33.031 260.801 30.056 260.642 27.081 260.005 24.21 258.733 21.627 257.301 18.709 254.915 15.842 251.38 14.189 249.507 13.512 247.582 13.776 246.486 14.139 244.89 11.97 241.933 10.976 239.672 10.976 237.394 10.976 235.845 10.976 234.454 11.789 233.405 13.055 233.405 12.784 230.192 11.609 227.061 11.789 224.354 12.512 222.278 13.512 220.799 14.872 219.408 16.308 218.712 19.988 215.786 20.834 210.798 23.266 208.905 32.891 243.365 206.779 127.605"/><polygon class="cls-2" points="176.319 87.08 171.075 88.415 151.122 95.2 101.08 86.782 95.488 86.254 89.875 86.254 83.638 86.254 77.031 86.254 71.289 86.782 64.286 87.935 56.944 89.495 49.959 91.536 44.72 93.577 40.853 96.073 37.36 99.579 34.491 103.156 32.995 105.702 31.248 109.903 29.627 113.36 28.504 116.986 27.631 120.828 26.882 125.269 26.259 129.951 72.874 216.748 216.549 124.152 176.319 87.08"/><path class="cls-1" d="M59.7628,192.2384c0,4.3612-6.2262,13.9825-17.181,13.9825-5.9054,0-14.0275-2.5009-18.3723-5.7615a10.5036,10.5036,0,0,1-4.5722-8.2506c0-4.3612,9.3353-7.867,20.29-7.867S59.7628,187.8772,59.7628,192.2384Z"/><path class="cls-3" d="M171.0746,70.6027c0,11.807-5.8508,25.56-12.3747,33.2976s-13.721,9.46-23.6762,9.46c-14.1077,0-26.4424-5.1276-31.9991-18.8276-2.2856-5.635-2.8047-16.0142-2.8047-22.8963,0-8.45-.9433-16.786,1.5058-24.0363,1.3224-3.9148,4.6371-7.8125,7.3485-10.5622,6.2995-6.3886,17.0112-9.1918,25.9495-9.1918,9.3488,0,18.2246,2.8207,24.6305,9.7429C166.891,45.4086,171.0746,58.0765,171.0746,70.6027Z"/><polygon points="20.092 194.937 21.555 199.807 22.788 203.006 23.968 205.947 25.201 208.682 26.595 211.623 27.828 214.564 29.49 215.544 31.42 216.422 33.243 216.748 35.334 217.196 37.586 217.505 40.106 217.505 42.733 217.092 44.556 216.748 46.594 216.215 48.631 215.493 50.99 214.719 53.671 208.733 56.137 203.315 57.21 200.89 57.901 199.187 58.604 196.298 59.086 194.937 57.901 197.485 57.156 198.052 56.298 198.207 55.44 197.949 54.797 197.381 54.582 198.413 53.907 199.033 53.027 199.291 52.116 199.239 51.258 198.981 50.508 198.207 50.025 198.981 49.435 199.6 48.631 199.961 47.988 200.168 46.862 200.065 46.111 199.445 45.414 198.568 44.931 199.497 44.395 199.961 43.752 200.477 42.84 200.839 41.875 200.735 41.178 200.374 40.397 199.755 39.945 198.929 39.589 199.703 38.927 200.271 38.122 200.684 37.372 200.942 36.514 200.735 35.656 200.374 34.852 199.6 34.369 198.62 33.779 199.394 33.029 199.807 32.332 200.065 31.152 200.013 30.509 199.6 29.865 198.929 29.329 197.846 28.418 198.31 27.56 198.413 26.648 198.259 25.791 197.794 25.254 196.917 25.04 196.246 24.343 196.814 23.539 197.072 22.413 197.02 21.235 196.607 20.697 195.782 20.092 194.937"/><polyline class="cls-2" points="65.826 222.278 64.286 220.293 64.286 216.568 61.717 210.314 57.008 204.916 55.032 203.842 52.894 203.842 51.593 204.557 51.593 205.541 52.708 208.494 53.638 211.225 54.753 215.114 55.497 218.871 55.311 221.286 54.939 224.354 54.01 226.922 52.708 228.98 51.593 230.233 49.921 232.028 45.934 233.405 42.681 233.405 38.594 233.405 35.01 232.028 30.914 229.807 29.548 227.179 26.836 221.684 25.964 217.935 25.964 215.187 25.964 211.902 25.964 208.905 25.964 205.958 25.105 203.842 23.907 202.375 19.988 202.375 18.709 203.842 17.985 206.462 17.458 210.314 17.458 217.976 32.891 243.365"/><path class="cls-3" d="M50.9713,174.3778a5.1842,5.1842,0,0,0-1.6184-4.0843,24.5411,24.5411,0,0,0-3.9923-2.873c-1.1743-.7033-2.7271-1.2232-3.4527-2.0075-2.2409-2.4221-1.6819-4.779-2.3378-3.0114-.5395,1.4538-2.0483,3.5361-3.5851,3.5361-8.1464,0-14.75,3.9412-14.75,8.8029a8.8785,8.8785,0,0,0,5.0239,8.0374,16.1941,16.1941,0,0,0,6.2277,1.2159c1.2875-.0064,2.0641,0,3.31,0C43.9431,183.9941,50.9713,179.24,50.9713,174.3778Z"/><path class="cls-3" d="M59.0861,179.9042c.6767,4.09.3509,7.3969-2.1378,9.1959a24.6535,24.6535,0,0,1-10.7648,5.1217,42.3387,42.3387,0,0,1-14.9981,0c-4.8792-.8239-9.6941-3.2019-10.15-7.0562a7.5086,7.5086,0,0,1,.8415-5.0934c3.2111-4.8028,11.653-8.1142,20.6128-8.1142,7.4055,0,11.3439-.4811,13.2563.9388A7.6667,7.6667,0,0,1,59.0861,179.9042Z"/><polygon class="cls-1" points="32.73 170.196 34.673 166.905 34.984 165.634 34.44 164.662 33.274 164.662 32.73 165.634 32.419 166.681 31.72 165.634 31.176 164.961 30.477 164.662 29.855 165.335 29.855 166.456 30.399 167.429 32.73 170.196"/><polygon class="cls-1" points="42.451 175.888 45.729 173.797 46.603 172.798 46.574 171.694 45.535 171.188 44.593 171.819 43.824 172.617 43.692 171.379 43.522 170.542 43.039 169.971 42.168 170.302 41.642 171.302 41.671 172.406 42.451 175.888"/><polygon class="cls-1" points="28.253 180.839 29.359 177.207 29.359 175.901 28.597 175.075 27.463 175.332 27.165 176.399 27.112 177.486 26.182 176.622 25.492 176.087 24.74 175.95 24.295 176.743 24.563 177.834 25.324 178.661 28.253 180.839"/><polygon class="cls-1" points="27.769 190.857 27.799 187.072 27.427 185.816 26.46 185.223 25.442 185.769 25.459 186.873 25.718 187.933 24.577 187.347 23.761 187.014 22.999 187.081 22.797 187.96 23.365 188.94 24.332 189.534 27.769 190.857"/><polygon class="cls-1" points="44.095 190.722 46.707 187.893 47.286 186.712 46.965 185.652 45.825 185.418 45.082 186.26 44.552 187.222 44.094 186.058 43.708 185.29 43.088 184.858 42.335 185.391 42.092 186.488 42.414 187.548 44.095 190.722"/><polygon class="cls-1" points="54.946 185.673 55.755 181.969 55.648 180.667 54.822 179.901 53.712 180.243 53.502 181.328 53.537 182.417 52.54 181.625 51.808 181.143 51.047 181.063 50.669 181.887 51.024 182.955 51.85 183.722 54.946 185.673"/><path class="cls-4" d="M23.44,180.839l1.8578,1.0962,1.5294.8519,1.8389.4975,2.3593.43h5.4471l2.66-.4267,2.1535-.5006,2.09-.51,2.0268-1.0615,1.883-.9753,1.2205-1.0972,1.14-1.1857.76-1.4354s.8234-1.3694.6334-1.4466"/><path class="cls-2" d="M114.5245,64.4135l-.8792-.6265L111.6378,62.58l-2.51-1.2075-3.2622-1.0868-2.76-.6038H97.9614l-2.6349.7245-2.5094.9661L91.0605,62.58l-1.5516,1.6366-1.351,1.8947,2.15,1.54,1.882,1.2075,2.0076,1.0867,3.2622.9661,2.76.7245h5.8971l2.5095-.6038,2.3839-.7245L112.8925,69.1l1.6212-1.0023a2.9983,2.9983,0,0,0,.6473-.5383l1.1192-1.2367-.8988-1.1061A5.2684,5.2684,0,0,0,114.5245,64.4135Z"/><path class="cls-2" d="M153.3124,65.8123l-.7554-.5254-1.7225-1.01-2.15-1.005-2.79-.895-2.3577-.4883-1.924.0213-2.4585.0272-2.2373.6421-2.1279.8466-1.4842,1.0453L132,65.88l-1.1316,1.6269,1.8471,1.2918,1.6156,1.011,1.7213.9068,2.789.7922L141.2,72.1l2.5653-.0285,2.4585-.0272,2.1316-.538,2.0235-.64L151.97,69.82l1.3708-.8691a2.5529,2.5529,0,0,0,.546-.4647l.9409-1.0642-.777-.9338A4.4948,4.4948,0,0,0,153.3124,65.8123Z"/><polygon class="cls-2" points="162.234 61.889 162.234 80.984 162.234 82.143 164.187 82.143 166.494 82.143 169.002 81.757 171.355 81.343 173.181 80.81 174.942 80.151 176.996 79.397 178.822 78.456 180.192 77.577 181.184 76.34 182.211 74.993 182.543 73.359 182.543 70.173 181.64 67.76 180.336 65.659 179.032 64.478 177.327 63.416 175.321 62.547 174.017 61.889 172.512 61.389 169.603 60.906 166.394 60.906 163.786 60.906 162.234 60.906 162.234 61.889"/><polygon points="104.164 93.513 105.01 92.246 106.232 91.07 107.735 90.075 109.661 89.442 111.777 89.442 114.297 89.895 115.818 90.709 117.134 91.477 117.98 92.156 119.484 90.89 120.987 90.166 122.867 89.442 124.653 88.99 126.615 88.99 128.318 88.99 130.198 89.533 131.89 90.256 134.052 91.613 136.025 93.06 137.059 94.055 137.999 95.2 137.059 97.131 136.119 98.849 134.803 100.206 133.3 101.472 131.398 102.142 129.822 102.829 128.224 102.829 126.024 102.823 110.474 103.156 104.164 93.513"/><path class="cls-1" d="M126.1032,63.7122l-.5976-1.294a.94.94,0,0,0-.1292-.2048l-.912-1.1019a.98.98,0,0,0-.4261-.297l-1.1855-.4234a1.0155,1.0155,0,0,0-.3414-.059h-.7248a.9918.9918,0,0,0-.8181.423l-.7332,1.0655a.935.935,0,0,0-.0809.1431l-.8586,1.89L118.2423,66.22c-.0117.0262-.0221.053-.0313.08l-1.13,3.3467a.9412.9412,0,0,0-.0273.0986l-.7733,3.5578-.7332,3.436-.714,3.4361-.5177,2.574a.9089.9089,0,0,0-.0179.1794v1.7095a.9178.9178,0,0,0,.14.4859l.4316.6922a.9824.9824,0,0,0,.6762.445l3.0855.507a1.0214,1.0214,0,0,0,.2608.0089l4.2271-.3988a1.0091,1.0091,0,0,0,.366-.1066l.923-.4737a.9654.9654,0,0,0,.384-.3545l.7038-1.1514a.9245.9245,0,0,0,.08-.1668l.549-1.51a.9081.9081,0,0,0,.0529-.2491l.4353-6.2832c.0014-.0209.0022-.0419.0022-.0628V68.5363q0-.0436-.0042-.087l-.4273-4.4407A.9168.9168,0,0,0,126.1032,63.7122Z"/><polygon class="cls-5" points="109.758 100.985 116.194 95.2 105.232 95.2 101.767 98.093 99.504 99.624 97.383 101.394 95.261 102.755 94.059 103.776 93.564 105.001 93.564 106.362 94.554 107.859 96.746 108.676 99.433 109.084 104.455 109.084 108.981 108.676 112.446 107.996 116.194 106.77 119.659 105.477 123.266 104.252 126.024 102.823 127.862 101.394 129.489 99.284 131.398 95.881 118.736 95.2 109.758 100.985"/><polyline class="cls-6" points="79.106 221.684 78.565 134.667 81.813 130.846"/><line class="cls-6" x1="75.4967" y1="130.8457" x2="78.5648" y2="134.6668"/><polyline class="cls-6" points="64.286 220.891 70.97 221.684 78.04 222.375 87.295 223.736 96.678 224.354 107.347 224.354 105.419 219.901 104.519 214.829 104.519 208.644 105.676 203.448 107.862 198.005 111.075 192.438 115.96 187.613 120.202 185.634 125.472 184.644 130.742 183.407 136.269 182.17 133.441 176.265 131.899 171.16 130.485 166.459 129.714 160.645 129.714 155.326 130.228 149.512 131.77 144.445 134.084 139.244 136.912 134.667 140.383 131.45 144.11 128.11 148.224 125.265 149.766 124.152 155.036 124.152"/><line class="cls-6" x1="149.6376" y1="118.9559" x2="149.7662" y2="124.1516"/><ellipse class="cls-7" cx="95.1882" cy="160.5812" rx="6.4269" ry="6.1852"/><ellipse class="cls-1" cx="95.1882" cy="159.6991" rx="1.4908" ry="1.4347"/><path class="cls-1" d="M53.925,204.6672l-.0139.14a.8791.8791,0,0,0,.0311.3336l.2745.9382a.8987.8987,0,0,0,.16.3074l.7435.9345a.9366.9366,0,0,0,.25.219l.6565.3949a.9768.9768,0,0,0,1.137-.0962l.2657-.2306a.9086.9086,0,0,0,.276-.425l.1584-.53a.8857.8857,0,0,0-.18-.8332l-.6987-.8139a.94.94,0,0,0-.2283-.1926l-1.386-.8337a.9745.9745,0,0,0-.4462-.137h0A.937.937,0,0,0,53.925,204.6672Z"/><path class="cls-1" d="M18.429,210.926l.4931-.039a.7664.7664,0,0,0,.5544-.319l1.2453-1.6851a.968.968,0,0,0,.1763-.4392l.3261-2.2892a1.0656,1.0656,0,0,0-.0544-.515l-.5049-1.3759a.8465.8465,0,0,0-.8357-.5931l-.35.0277a.7937.7937,0,0,0-.6495.48l-.9194,1.9964a1.0007,1.0007,0,0,0-.0811.2777l-.3613,2.5362a1.0657,1.0657,0,0,0-.0066.24l.0708.829A.8906.8906,0,0,0,18.429,210.926Z"/><path class="cls-6" d="M24.21,233.8464l-2.1216-1.2251a5.5708,5.5708,0,0,1-1.61-1.3977l-1.0261-1.3166a5.5583,5.5583,0,0,1-.9128-1.7259l-.8026-2.5135a5.8655,5.8655,0,0,1-.2785-1.7846v-5.4656"/><polyline class="cls-6" points="23.907 243.365 21.839 242.108 19.771 240.485 17.866 238.337 16.179 235.98 14.818 234.042 13.512 231.423"/><polyline class="cls-6" points="25.105 251.38 23.091 250.751 20.533 249.703 18.709 248.603 16.886 247.503 14.872 245.984"/><path class="cls-8" d="M97.4129,65.4189l1.9286-.8838,1.6255-.3911a1.835,1.835,0,0,1,.4287-.0508h4.5376a1.3717,1.3717,0,0,1,.5634.1208l1.2016.5421.9379.6628-1.0054.66-1.0366.4988a1.8239,1.8239,0,0,1-.4361.1453l-1.2405.2458a1.6566,1.6566,0,0,1-.322.0316H101.442A1.5122,1.5122,0,0,1,101,66.9345l-1.8906-.579Z"/><path class="cls-8" d="M146.496,66.7048l-1.56-.7719-1.3149-.3416a1.3773,1.3773,0,0,0-.3468-.0444h-3.6705a1.04,1.04,0,0,0-.4557.1055l-.972.4735-.7587.5789.8133.5766.8386.4357a1.3988,1.3988,0,0,0,.3527.127l1.0035.2147a1.2464,1.2464,0,0,0,.26.0275h2.551a1.1387,1.1387,0,0,0,.3579-.0577l1.5293-.5057Z"/><path d="M101.1064,65.1029l.1187.3948a.0837.0837,0,0,0,.0119.0244l.4735.6726a.0894.0894,0,0,0,.015.0164l.4576.3876a.6027.6027,0,0,0,.2633.1288l.4688.1.0194.0021h.8123a.8556.8556,0,0,0,.3381-.07l.6175-.2659a.7237.7237,0,0,0,.1884-.118l.609-.5274.0063-.0061.4495-.4758a.0837.0837,0,0,0,.0181-.0292l.0853-.2313a.8658.8658,0,0,0-.0086-.8044l-.0391-.0753c-.0163-.026-.0466-.1337-.0781-.1337h-4.15a1.3212,1.3212,0,0,0-.1654.1107l-.2511.1963A.626.626,0,0,0,101.1064,65.1029Z"/><path d="M139.0594,66.3825l.0983.3267a.07.07,0,0,0,.01.02l.3918.5566.0124.0136.3788.3207a.4977.4977,0,0,0,.2179.1066l.3879.0829.0161.0018h.6722a.708.708,0,0,0,.28-.0575l.511-.22a.6027.6027,0,0,0,.156-.0977L142.6953,67l.0053-.005.3719-.3938a.07.07,0,0,0,.015-.0241l.0706-.1915a.7165.7165,0,0,0-.0071-.6657l-.0324-.0623c-.0134-.0215-.0385-.1106-.0646-.1106H139.62a1.0962,1.0962,0,0,0-.1369.0916l-.2077.1625A.518.518,0,0,0,139.0594,66.3825Z"/></g></svg>
