<svg xmlns="http://www.w3.org/2000/svg" viewBox="0 0 475.9 340.47"><defs><style>.cls-1{isolation:isolate;}.cls-2{fill:#db78ab;}.cls-3{fill:#3949fa;}.cls-4{fill:#ffdb54;}.cls-5{fill:#ffebb5;}.cls-6,.cls-7,.cls-8,.cls-9{fill:none;}.cls-6{stroke:#000;}.cls-6,.cls-7,.cls-9{stroke-miterlimit:10;}.cls-7{stroke:#ffdb54;}.cls-8,.cls-9{stroke:#3949fa;stroke-width:5px;}.cls-8{stroke-linecap:round;stroke-linejoin:round;}.cls-10{fill:#fff;}</style></defs><title>logofixed</title><g id="Layer_1" data-name="Layer 1"><g id="_" data-name=" " class="cls-1"><g class="cls-1"><path class="cls-2" d="M287.62,137.4l-22-6.68,4.14-13.59,21.81,9.38-1.4-26.18H303.9L302.49,127l21.25-9.23,4.14,13.73-22.44,6.68,14.73,20L309,166.69l-12.77-21.93-12.62,21.18-11.16-8.11Z" transform="translate(-195.34 -100.33)"/></g></g><g id="B_KE_OFF" data-name="B KE OFF" class="cls-1"><g class="cls-1"><path d="M260.23,165.57c0,7.11-4.05,11.08-10.67,11.08H195.34V104.59h54.22c7.14,0,10.67,3.33,10.67,11.08v15.49c0,6.12-4.13,8.56-8.35,10v.18a10.35,10.35,0,0,1,8.35,10.45Zm-27.28-31V123.05H222.79v11.53Zm0,23.87V147.1H222.79v11.35Z" transform="translate(-195.34 -100.33)"/><path d="M402.31,176.65H374.94V161.42H364.61v15.23H337.25V104.59h27.36V119.9h10.33V104.59h27.37v25.94l-10.93,10.18,10.93,10.54Z" transform="translate(-195.34 -100.33)"/><path d="M461.08,176.65H407V104.59h54v22.34H449.81v7.92h11.27v11.62H449.81v7.84h11.27Z" transform="translate(-195.34 -100.33)"/><path d="M554.11,165.57c0,6.93-3.7,11.08-10.58,11.08H499.64c-7.84,0-10.59-3.7-10.59-11.08v-49.9c0-7.21,3.79-11.08,10.59-11.08h43.89c6.54,0,10.58,2.52,10.58,11.08Zm-27.36-9.1V124.85H516.42v31.62Z" transform="translate(-195.34 -100.33)"/><path d="M612.89,157.28H601.62v19.37H558.84V104.59h54v22.34H601.62v7.92h11.27Z" transform="translate(-195.34 -100.33)"/><path d="M671.24,157.28H660v19.37H617.19V104.59h54v22.34H660v7.92h11.28Z" transform="translate(-195.34 -100.33)"/></g></g><path class="cls-3" d="M417.37,198.66c-23.17,35.57-12.3,85.26,21.52,105.66,27.18,16.4,64.45,19.6,87.76.92,5.7-4.56,8.27-12.46,11.57-20.06,4.15-9.55,8.11-28.1,10-37.67,2.87-14.29,3.18-26.77-2-39.56s-10.7-24.74-23.45-32.43C489,155.12,440.54,163.09,417.37,198.66Z" transform="translate(-195.34 -100.33)"/><path class="cls-3" d="M405.63,205.8c23.17,35.57,15.79,82.17-15.43,101S320.73,321,297.56,285.45c-5.79-8.89-10.57-28.45-12.73-37.88-3.22-14.07-4-26.29.48-38.63s9.22-23.85,21-30.94C337.51,159.16,382.46,170.23,405.63,205.8Z" transform="translate(-195.34 -100.33)"/><polygon class="cls-4" points="282.74 182.78 252.28 142.26 257.62 140.99 261.72 140.15 266.62 139.79 272.32 139.79 276.35 139.79 281.25 140.22 284.39 140.78 289.81 142.54 298.8 145.63 304.73 148.66 310.87 152.11 318.11 156.34 323.38 160.42 328.35 165.91 331.86 170.62 333.69 174.85 334.79 178.09 335.88 183.15 336.25 186.74 336.25 190.26 336.25 194.98 336.25 196.11 332.74 203.78 328.79 212.51 325.34 219.59 320.88 226.74 314.1 237.08 307.33 247.26 299.06 259.19 291.3 270.49 282.04 284.48 276.42 294.19 267.83 306.75 259.89 317.73 251.79 325.52 244.36 331.72 237.58 336.5 232.46 339.36 228 340.47 223.37 340.47 217.09 339.68 212.13 337.77 206.84 333.95 202.21 330.29 197.25 325.52 193.29 321.23 191.3 319 180.23 318.2 172.13 317.73 163.87 316.93 156.15 316.3 144.36 315.18 137.59 314.07 132.96 313.75 130.65 314.86 127.01 315.98 124.2 316.61 120.91 316.93 117.75 316.77 113.62 316.45 110.98 315.82 109 315.98 106.02 315.82 103.05 315.18 100.17 313.91 97.59 312.48 94.67 310.09 91.81 306.56 90.15 304.68 89.48 302.76 89.74 301.66 90.1 300.07 87.94 297.11 86.94 294.85 86.94 292.57 86.94 291.02 86.94 289.63 87.75 288.58 89.02 288.58 88.75 285.37 87.57 282.24 87.75 279.53 88.48 277.45 89.48 275.98 90.84 274.58 92.27 273.89 95.95 270.96 96.8 265.97 99.23 264.08 108.86 298.54 282.74 182.78"/><polygon class="cls-4" points="252.28 142.26 247.04 143.59 227.09 150.38 177.04 141.96 171.45 141.43 165.84 141.43 159.6 141.43 153 141.43 147.25 141.96 140.25 143.11 132.91 144.67 125.92 146.71 120.68 148.75 116.82 151.25 113.33 154.76 110.46 158.33 108.96 160.88 107.21 165.08 105.59 168.54 104.47 172.16 103.59 176 102.85 180.45 102.22 185.13 148.84 271.92 292.51 179.33 252.28 142.26"/><path class="cls-3" d="M331.07,347.74c0,4.36-6.23,14-17.18,14-5.91,0-14-2.5-18.38-5.76a10.52,10.52,0,0,1-4.57-8.25c0-4.36,9.34-7.87,20.29-7.87S331.07,343.38,331.07,347.74Z" transform="translate(-195.34 -100.33)"/><path class="cls-5" d="M442.38,226.1c0,11.81-5.85,25.56-12.38,33.3s-13.72,9.46-23.67,9.46c-14.11,0-26.44-5.13-32-18.83-2.29-5.63-2.81-16-2.81-22.89,0-8.45-.94-16.79,1.51-24,1.32-3.91,4.64-7.81,7.35-10.56,6.3-6.39,17-9.19,25.95-9.19,9.35,0,18.22,2.82,24.63,9.74C438.19,200.91,442.38,213.58,442.38,226.1Z" transform="translate(-195.34 -100.33)"/><path class="cls-6" d="M387.5,262.27" transform="translate(-195.34 -100.33)"/><polygon points="96.06 250.11 97.52 254.98 98.75 258.18 99.93 261.12 101.17 263.86 102.56 266.8 103.79 269.74 105.45 270.72 107.39 271.6 109.21 271.92 111.3 272.37 113.55 272.68 116.07 272.68 118.7 272.27 120.52 271.92 122.56 271.39 124.59 270.67 126.95 269.89 129.63 263.91 132.1 258.49 133.17 256.07 133.87 254.36 134.57 251.47 135.05 250.11 133.87 252.66 133.12 253.23 132.26 253.38 131.41 253.13 130.76 252.56 130.55 253.59 129.87 254.21 128.99 254.47 128.08 254.41 127.22 254.16 126.47 253.38 125.99 254.16 125.4 254.78 124.59 255.14 123.95 255.34 122.83 255.24 122.08 254.62 121.38 253.75 120.9 254.67 120.36 255.14 119.72 255.65 118.81 256.01 117.84 255.91 117.14 255.55 116.36 254.93 115.91 254.11 115.55 254.88 114.89 255.45 114.09 255.86 113.34 256.12 112.48 255.91 111.62 255.55 110.82 254.78 110.33 253.8 109.74 254.57 108.99 254.98 108.3 255.24 107.12 255.19 106.47 254.78 105.83 254.11 105.29 253.02 104.38 253.49 103.52 253.59 102.61 253.44 101.75 252.97 101.22 252.09 101 251.42 100.31 251.99 99.5 252.25 98.38 252.2 97.2 251.78 96.66 250.96 96.06 250.11"/><polyline class="cls-4" points="141.79 277.45 140.25 275.47 140.25 271.74 137.68 265.49 132.97 260.09 131 259.02 128.86 259.02 127.56 259.73 127.56 260.72 128.67 263.67 129.6 266.4 130.72 270.29 131.46 274.05 131.28 276.46 130.9 279.53 129.97 282.1 128.67 284.16 127.56 285.41 125.89 287.2 121.9 288.58 118.65 288.58 114.56 288.58 110.97 287.2 106.88 284.98 105.51 282.36 102.8 276.86 101.93 273.11 101.93 270.36 101.93 267.08 101.93 264.08 101.93 261.13 101.07 259.02 99.87 257.55 95.95 257.55 94.67 259.02 93.95 261.64 93.42 265.49 93.42 273.15 108.86 298.54"/><path class="cls-5" d="M322.28,329.88a5.19,5.19,0,0,0-1.62-4.08,24.15,24.15,0,0,0-4-2.88c-1.17-.7-2.72-1.22-3.45-2-2.24-2.42-1.68-4.77-2.34-3-.54,1.46-2,3.54-3.58,3.54-8.15,0-14.75,3.94-14.75,8.8a8.88,8.88,0,0,0,5,8,16.15,16.15,0,0,0,6.23,1.22h3.31C315.25,339.5,322.28,334.74,322.28,329.88Z" transform="translate(-195.34 -100.33)"/><path class="cls-5" d="M330.39,335.41c.68,4.09.35,7.39-2.14,9.19a24.6,24.6,0,0,1-10.76,5.12,42.22,42.22,0,0,1-15,0c-4.88-.82-9.69-3.2-10.15-7.05a7.56,7.56,0,0,1,.84-5.1c3.21-4.8,11.65-8.11,20.61-8.11,7.41,0,11.35-.48,13.26.94A7.65,7.65,0,0,1,330.39,335.41Z" transform="translate(-195.34 -100.33)"/><polygon class="cls-3" points="108.69 225.37 110.64 222.08 110.95 220.81 110.4 219.84 109.24 219.84 108.69 220.81 108.38 221.86 107.68 220.81 107.14 220.14 106.44 219.84 105.82 220.51 105.82 221.63 106.36 222.6 108.69 225.37"/><polygon class="cls-3" points="118.42 231.06 121.69 228.97 122.57 227.97 122.54 226.87 121.5 226.36 120.56 227 119.79 227.79 119.66 226.56 119.49 225.72 119 225.15 118.13 225.48 117.61 226.48 117.64 227.58 118.42 231.06"/><polygon class="cls-3" points="104.22 236.01 105.32 232.38 105.32 231.08 104.56 230.25 103.43 230.51 103.13 231.57 103.08 232.66 102.15 231.8 101.46 231.26 100.7 231.13 100.26 231.92 100.53 233.01 101.29 233.84 104.22 236.01"/><polygon class="cls-3" points="103.73 246.03 103.76 242.25 103.39 240.99 102.42 240.4 101.41 240.95 101.42 242.05 101.68 243.11 100.54 242.52 99.72 242.19 98.96 242.26 98.76 243.14 99.33 244.12 100.3 244.71 103.73 246.03"/><polygon class="cls-3" points="120.06 245.9 122.67 243.07 123.25 241.89 122.93 240.83 121.79 240.59 121.05 241.44 120.52 242.4 120.06 241.23 119.67 240.47 119.05 240.03 118.3 240.57 118.06 241.66 118.38 242.72 120.06 245.9"/><polygon class="cls-3" points="130.91 240.85 131.72 237.15 131.61 235.84 130.79 235.08 129.68 235.42 129.47 236.5 129.5 237.59 128.5 236.8 127.77 236.32 127.01 236.24 126.63 237.06 126.99 238.13 127.81 238.9 130.91 240.85"/><path class="cls-7" d="M294.74,336.34l1.86,1.1,1.53.85,1.84.5,2.36.43h5.45l2.66-.43,2.15-.5,2.09-.51,2-1.06,1.88-1,1.22-1.1,1.14-1.18.76-1.44s.82-1.37.63-1.44" transform="translate(-195.34 -100.33)"/><path class="cls-4" d="M385.83,219.92l-.88-.63-2-1.21-2.51-1.21-3.26-1.08-2.76-.61h-5.14l-2.64.73-2.51,1-1.76,1.21-1.55,1.64-1.35,1.89,2.15,1.54,1.88,1.21,2,1.09,3.26,1,2.76.73h5.9l2.51-.61,2.38-.72,1.89-1.21,1.62-1a2.78,2.78,0,0,0,.64-.54l1.12-1.24-.89-1.1A5.44,5.44,0,0,0,385.83,219.92Z" transform="translate(-195.34 -100.33)"/><path class="cls-4" d="M424.62,221.31l-.76-.52-1.72-1-2.15-1-2.79-.89-2.36-.49-1.92,0-2.46,0-2.24.64-2.13.85-1.48,1-1.31,1.41L402.17,223,404,224.3l1.61,1,1.73.91,2.78.79,2.36.59,2.57,0,2.46,0,2.13-.54,2-.64,1.59-1.05,1.37-.87a2.45,2.45,0,0,0,.55-.46l.94-1.07-.78-.93A4.3,4.3,0,0,0,424.62,221.31Z" transform="translate(-195.34 -100.33)"/><polygon class="cls-4" points="238.2 117.06 238.2 136.16 238.2 137.32 240.15 137.32 242.46 137.32 244.97 136.93 247.32 136.52 249.15 135.99 250.91 135.33 252.96 134.57 254.79 133.63 256.16 132.75 257.15 131.52 258.18 130.17 258.51 128.53 258.51 125.35 257.6 122.94 256.3 120.83 255 119.65 253.29 118.59 251.28 117.72 249.98 117.06 248.48 116.56 245.57 116.08 242.36 116.08 239.75 116.08 238.2 116.08 238.2 117.06"/><polygon points="180.13 148.69 180.97 147.42 182.2 146.25 183.7 145.25 185.63 144.62 187.74 144.62 190.26 145.07 191.78 145.88 193.1 146.65 193.94 147.33 195.45 146.07 196.95 145.34 198.83 144.62 200.62 144.17 202.58 144.17 204.28 144.17 206.16 144.71 207.85 145.43 210.02 146.79 211.99 148.24 213.02 149.23 213.96 150.38 213.02 152.31 212.08 154.03 210.77 155.38 209.26 156.65 207.36 157.32 205.79 158 204.19 158 201.99 158 186.44 158.33 180.13 148.69"/><path class="cls-3" d="M397.41,219.21l-.6-1.29a.86.86,0,0,0-.13-.2l-.91-1.11a1,1,0,0,0-.43-.29l-1.18-.43a1,1,0,0,0-.34-.06h-.73a1,1,0,0,0-.82.43l-.73,1.06a1.09,1.09,0,0,0-.08.15l-.86,1.89-1.05,2.36a.3.3,0,0,0,0,.08l-1.13,3.35a.3.3,0,0,0,0,.1l-.78,3.55-.73,3.44-.71,3.44-.52,2.57a1.1,1.1,0,0,0,0,.18v1.71a1,1,0,0,0,.14.49l.43.69a1,1,0,0,0,.68.44l3.08.51a1.22,1.22,0,0,0,.27,0l4.22-.4a1,1,0,0,0,.37-.11l.92-.47a1,1,0,0,0,.39-.35l.7-1.16a1.19,1.19,0,0,0,.08-.16l.55-1.51a.74.74,0,0,0,.05-.25l.44-6.29V224a.28.28,0,0,0,0-.09l-.42-4.44A1.11,1.11,0,0,0,397.41,219.21Z" transform="translate(-195.34 -100.33)"/><polygon class="cls-3" points="185.72 156.16 192.16 150.38 181.2 150.38 177.73 153.27 175.47 154.8 173.35 156.57 171.22 157.93 170.02 158.95 169.53 160.18 169.53 161.54 170.52 163.04 172.71 163.85 175.4 164.26 180.42 164.26 184.94 163.85 188.41 163.17 192.16 161.95 195.62 160.65 199.23 159.43 201.99 158 203.83 156.57 205.45 154.46 207.36 151.06 194.7 150.38 185.72 156.16"/><polyline class="cls-8" points="155.07 276.86 154.53 189.84 157.78 186.02"/><line class="cls-8" x1="151.46" y1="186.02" x2="154.53" y2="189.84"/><polyline class="cls-8" points="140.25 276.07 146.93 276.86 154 277.55 163.26 278.91 172.64 279.53 183.31 279.53 181.38 275.08 180.48 270 180.48 263.82 181.64 258.62 183.83 253.18 187.04 247.61 191.92 242.79 196.17 240.81 201.44 239.82 206.71 238.58 212.23 237.35 209.41 231.44 207.86 226.34 206.45 221.64 205.68 215.82 205.68 210.5 206.19 204.69 207.74 199.62 210.05 194.42 212.88 189.84 216.35 186.63 220.07 183.29 224.19 180.44 225.73 179.33 231 179.33"/><line class="cls-8" x1="225.6" y1="174.13" x2="225.73" y2="179.33"/><ellipse class="cls-9" cx="171.15" cy="215.76" rx="6.43" ry="6.19"/><ellipse class="cls-3" cx="171.15" cy="214.88" rx="1.49" ry="1.43"/><path class="cls-3" d="M325.23,360.17l0,.14a.75.75,0,0,0,0,.33l.27.94a.92.92,0,0,0,.16.31l.74.93a1,1,0,0,0,.25.22l.66.4a1,1,0,0,0,1.14-.1l.26-.23a.9.9,0,0,0,.28-.43l.16-.52a.91.91,0,0,0-.18-.84l-.7-.81a.83.83,0,0,0-.23-.19l-1.39-.84a1,1,0,0,0-.44-.14h0A1,1,0,0,0,325.23,360.17Z" transform="translate(-195.34 -100.33)"/><path class="cls-3" d="M289.73,366.43l.5,0a.77.77,0,0,0,.55-.32l1.25-1.69a.91.91,0,0,0,.17-.43l.33-2.29a1.13,1.13,0,0,0-.06-.52l-.5-1.37a.84.84,0,0,0-.84-.6l-.35,0a.8.8,0,0,0-.65.48l-.92,2a1.2,1.2,0,0,0-.08.27l-.36,2.54a1,1,0,0,0,0,.24l.07.83A.89.89,0,0,0,289.73,366.43Z" transform="translate(-195.34 -100.33)"/><path class="cls-8" d="M295.51,389.35l-2.12-1.23a5.66,5.66,0,0,1-1.61-1.39l-1-1.32a5.55,5.55,0,0,1-.92-1.73l-.8-2.51a6,6,0,0,1-.28-1.79v-5.46" transform="translate(-195.34 -100.33)"/><polyline class="cls-8" points="99.87 298.54 97.8 297.29 95.73 295.66 93.83 293.51 92.14 291.16 90.78 289.22 89.48 286.6"/><polyline class="cls-8" points="101.07 306.56 99.06 305.93 96.5 304.88 94.67 303.78 92.85 302.68 90.84 301.16"/><path class="cls-10" d="M368.72,220.92l1.93-.88,1.62-.39a1.59,1.59,0,0,1,.43-.06h4.54a1.39,1.39,0,0,1,.56.13l1.2.54.94.66-1,.66-1,.5a1.73,1.73,0,0,1-.44.14l-1.24.25a1.66,1.66,0,0,1-.32,0h-3.15a1.74,1.74,0,0,1-.45-.06l-1.89-.58Z" transform="translate(-195.34 -100.33)"/><path class="cls-10" d="M417.8,222.21l-1.56-.78-1.32-.34a1.27,1.27,0,0,0-.34,0h-3.67a1,1,0,0,0-.46.1l-1,.48-.76.58.81.57.84.44a1.4,1.4,0,0,0,.36.13l1,.21a1.15,1.15,0,0,0,.26,0h2.55a1.13,1.13,0,0,0,.36-.06l1.53-.51Z" transform="translate(-195.34 -100.33)"/><path d="M372.41,220.6l.12.4v0l.47.68h0l.46.39a.58.58,0,0,0,.26.13l.47.1h.83a.8.8,0,0,0,.34-.07L376,222a.57.57,0,0,0,.18-.12l.61-.53h0l.45-.47,0,0,.08-.23a.86.86,0,0,0,0-.81l0-.07s-.05-.14-.08-.14h-4.15a1.77,1.77,0,0,0-.17.12l-.25.19A.63.63,0,0,0,372.41,220.6Z" transform="translate(-195.34 -100.33)"/><path d="M410.36,221.88l.1.33v0l.39.56h0l.37.32a.65.65,0,0,0,.22.11l.39.08h.69a.92.92,0,0,0,.28-.05l.51-.22.16-.1.5-.44h0l.38-.4v0l.07-.19a.69.69,0,0,0,0-.67l0-.06s0-.11-.06-.11h-3.44l-.13.09-.21.16A.52.52,0,0,0,410.36,221.88Z" transform="translate(-195.34 -100.33)"/></g></svg>
