<svg xmlns="http://www.w3.org/2000/svg" viewBox="0 0 453.68 337.4"><defs><style>.cls-1{isolation:isolate;}.cls-2{fill:#db78ab;}.cls-3{fill:#3949fa;}.cls-4{fill:#ffdb54;}.cls-5{fill:#ffebb5;}.cls-6,.cls-7,.cls-8,.cls-9{fill:none;}.cls-6{stroke:#000;}.cls-6,.cls-7,.cls-9{stroke-miterlimit:10;}.cls-7{stroke:#ffdb54;}.cls-8,.cls-9{stroke:#3949fa;stroke-width:5px;}.cls-8{stroke-linecap:round;stroke-linejoin:round;}.cls-10{fill:#fff;}</style></defs><title>logofixed</title><g id="Layer_1" data-name="Layer 1"><g id="_" data-name=" " class="cls-1"><g class="cls-1"><path class="cls-2" d="M266.1,134.05l-17.83-5.4,3.35-11,17.66,7.59L268.15,104h11.13l-1.14,21.63,17.2-7.47,3.35,11.11-18.16,5.41,11.92,16.18-9,6.87L273.09,140l-10.22,17.15-9-6.57Z" transform="translate(-181.88 -103.39)"/></g></g><g id="B_KE_OFF" data-name="B KE OFF" class="cls-1"><g class="cls-1"><path d="M246.77,164.42c0,7.11-4.05,11.08-10.67,11.08H181.88V103.44H236.1c7.14,0,10.67,3.33,10.67,11.08V130c0,6.13-4.13,8.56-8.35,10v.18a10.35,10.35,0,0,1,8.35,10.45Zm-27.28-31V121.9H209.33v11.53Zm0,23.87V146H209.33V157.3Z" transform="translate(-181.88 -103.39)"/><path d="M366.64,175.45H339.27V160.23H328.94v15.22H301.58V103.39h27.36v15.32h10.33V103.39h27.37v26l-10.93,10.17,10.93,10.54Z" transform="translate(-181.88 -103.39)"/><path d="M425.41,175.45h-54V103.39h54v22.34H414.14v7.93h11.27v11.62H414.14v7.84h11.27Z" transform="translate(-181.88 -103.39)"/><path d="M518.44,164.37c0,6.94-3.7,11.08-10.59,11.08H464c-7.83,0-10.58-3.69-10.58-11.08v-49.9c0-7.2,3.79-11.08,10.58-11.08h43.89c6.55,0,10.59,2.53,10.59,11.08Zm-27.37-9.09V123.66H480.75v31.62Z" transform="translate(-181.88 -103.39)"/><path d="M577.22,156.09H565.94v19.36H523.17V103.39h54.05v22.34H565.94v7.93h11.28Z" transform="translate(-181.88 -103.39)"/><path d="M635.56,156.09H624.29v19.36H581.52V103.39h54v22.34H624.29v7.93h11.27Z" transform="translate(-181.88 -103.39)"/></g></g><path class="cls-3" d="M417.37,198.66c-23.17,35.57-12.3,85.26,21.52,105.66,27.18,16.4,64.45,19.6,87.76.92,5.7-4.56,8.27-12.46,11.57-20.06,4.15-9.55,8.11-28.1,10-37.67,2.87-14.29,3.18-26.77-2-39.56s-10.7-24.74-23.45-32.43C489,155.12,440.54,163.09,417.37,198.66Z" transform="translate(-181.88 -103.39)"/><path class="cls-3" d="M405.63,205.8c23.17,35.57,15.79,82.17-15.43,101S320.73,321,297.56,285.45c-5.79-8.89-10.57-28.45-12.73-37.88-3.22-14.07-4-26.29.48-38.63s9.22-23.85,21-30.94C337.51,159.16,382.46,170.23,405.63,205.8Z" transform="translate(-181.88 -103.39)"/><path class="cls-4" d="M478.08,283.11l-30.46-40.53,5.34-1.27,4.1-.84,4.9-.35h9.73l4.9.42,3.14.56,5.41,1.76,9,3.1,5.93,3,6.14,3.45,7.24,4.22,5.27,4.08,5,5.49L527.2,271l1.83,4.22,1.1,3.24,1.09,5.07c.3,2.85.61,5.71.91,8.57q-.75,4.43-1.48,8.85l-2.71,5.33L524.71,313l-4,7-4.46,7.16-6.78,10.34-6.77,10.18-8.27,11.93-7.76,11.29-9.26,14-5.62,9.7-8.59,12.57-7.94,11-8.1,7.8-7.43,6.2-6.78,4.77-5.12,2.86-4.47,1.12h-4.62l-6.28-.8-5-1.91-5.29-3.81-4.63-3.66-5-4.77-4-4.3-2-2.23-11.07-.79-8.1-.48-8.26-.79-7.72-.64-11.79-1.11-6.77-1.12-4.63-.31L326,415.19l-3.64,1.11-2.81.64-3.29.32-3.16-.16-4.13-.32-2.64-.64-2,.16-3-.16-3-.63-2.87-1.28-2.58-1.43L290,410.42l-2.86-3.54L285.49,405l-.67-1.93.26-1.09.36-1.6-2.17-3-1-2.26V390l.81-1h1.27l-.27-3.22-1.18-3.13.18-2.7.73-2.08,1-1.48,1.36-1.39,1.43-.7,3.68-2.92.85-5,2.43-1.89,9.63,34.46Z" transform="translate(-181.88 -103.39)"/><polygon class="cls-4" points="265.74 139.19 260.5 140.52 240.55 147.31 190.5 138.89 184.91 138.36 179.3 138.36 173.06 138.36 166.46 138.36 160.71 138.89 153.71 140.04 146.37 141.6 139.38 143.64 134.14 145.68 130.28 148.18 126.78 151.69 123.92 155.26 122.42 157.81 120.67 162.01 119.05 165.47 117.93 169.09 117.06 172.93 116.31 177.38 115.68 182.06 162.3 268.86 305.97 176.26 265.74 139.19"/><path class="cls-5" d="M442.38,226.1c0,11.81-5.85,25.56-12.38,33.3s-13.72,9.46-23.67,9.46c-14.11,0-26.44-5.13-32-18.83-2.29-5.63-2.81-16-2.81-22.89,0-8.45-.94-16.79,1.51-24,1.32-3.91,4.64-7.81,7.35-10.56,6.3-6.39,17-9.19,25.95-9.19,9.35,0,18.22,2.82,24.63,9.74C438.19,200.91,442.38,213.58,442.38,226.1Z" transform="translate(-181.88 -103.39)"/><path class="cls-6" d="M387.5,262.27" transform="translate(-181.88 -103.39)"/><path class="cls-3" d="M333.6,343.84c0,5-7.18,16.14-19.83,16.14-6.81,0-16.19-2.88-21.2-6.65-4.29-3.22-5.28-7.2-5.28-9.52,0-5,10.77-9.08,23.42-9.08S333.6,338.81,333.6,343.84Z" transform="translate(-181.88 -103.39)"/><polygon points="105.93 243.56 107.62 249.18 109.05 252.88 110.41 256.27 111.83 259.43 113.44 262.82 114.86 266.22 116.78 267.35 119.01 268.36 121.11 268.74 123.53 269.25 126.13 269.61 129.03 269.61 132.07 269.13 134.17 268.74 136.52 268.12 138.87 267.29 141.6 266.4 144.69 259.49 147.54 253.23 148.78 250.43 149.57 248.47 150.38 245.13 150.94 243.56 149.57 246.5 148.71 247.16 147.72 247.34 146.73 247.04 145.99 246.38 145.74 247.58 144.96 248.29 143.95 248.59 142.9 248.53 141.91 248.23 141.04 247.34 140.48 248.23 139.8 248.94 138.87 249.36 138.13 249.6 136.83 249.48 135.97 248.77 135.16 247.75 134.6 248.83 133.99 249.36 133.24 249.96 132.19 250.38 131.08 250.26 130.27 249.84 129.37 249.12 128.85 248.17 128.44 249.06 127.67 249.72 126.74 250.2 125.88 250.49 124.89 250.26 123.9 249.84 122.97 248.94 122.41 247.81 121.73 248.71 120.86 249.18 120.06 249.48 118.7 249.42 117.96 248.94 117.21 248.17 116.59 246.92 115.54 247.46 114.55 247.58 113.5 247.4 112.51 246.86 111.89 245.85 111.64 245.07 110.84 245.73 109.91 246.03 108.61 245.97 107.25 245.49 106.63 244.54 105.93 243.56"/><path class="cls-5" d="M323.45,323.23a6,6,0,0,0-1.86-4.72A28.49,28.49,0,0,0,317,315.2c-1.36-.81-3.15-1.41-4-2.32-2.58-2.8-1.94-5.52-2.69-3.48-.63,1.68-2.37,4.09-4.14,4.09-9.41,0-17,4.54-17,10.16a10.23,10.23,0,0,0,5.8,9.27,18.67,18.67,0,0,0,7.19,1.41h3.82C315.34,334.33,323.45,328.84,323.45,323.23Z" transform="translate(-181.88 -103.39)"/><path class="cls-5" d="M332.82,329.61c.78,4.72.41,8.53-2.47,10.61-2.46,1.78-6.22,4.78-12.42,5.91a48.58,48.58,0,0,1-17.31,0c-5.63-.95-11.19-3.69-11.72-8.14a8.7,8.7,0,0,1,1-5.88c3.71-5.54,13.45-9.37,23.79-9.37,8.55,0,13.1-.55,15.31,1.09A8.83,8.83,0,0,1,332.82,329.61Z" transform="translate(-181.88 -103.39)"/><polygon class="cls-3" points="120.52 215.01 122.76 211.21 123.12 209.74 122.49 208.62 121.15 208.62 120.52 209.74 120.16 210.95 119.36 209.74 118.73 208.96 117.92 208.62 117.2 209.4 117.2 210.69 117.83 211.81 120.52 215.01"/><polygon class="cls-3" points="131.74 221.58 135.53 219.16 136.53 218.01 136.5 216.74 135.3 216.15 134.21 216.88 133.33 217.8 133.17 216.37 132.98 215.41 132.42 214.75 131.41 215.13 130.81 216.28 130.84 217.56 131.74 221.58"/><polygon class="cls-3" points="115.35 227.29 116.63 223.1 116.63 221.59 115.75 220.64 114.44 220.94 114.1 222.17 114.04 223.42 112.96 222.42 112.17 221.81 111.3 221.65 110.78 222.56 111.09 223.82 111.97 224.78 115.35 227.29"/><polygon class="cls-3" points="114.79 238.85 114.83 234.49 114.4 233.04 113.28 232.35 112.11 232.98 112.13 234.25 112.43 235.48 111.11 234.8 110.17 234.42 109.29 234.5 109.06 235.51 109.71 236.64 110.83 237.33 114.79 238.85"/><polygon class="cls-3" points="133.64 238.7 136.65 235.43 137.32 234.07 136.95 232.85 135.63 232.58 134.78 233.55 134.16 234.66 133.64 233.31 133.19 232.43 132.48 231.93 131.61 232.54 131.33 233.81 131.7 235.03 133.64 238.7"/><polygon class="cls-3" points="146.16 232.87 147.1 228.59 146.97 227.09 146.02 226.21 144.74 226.6 144.5 227.85 144.54 229.11 143.38 228.2 142.54 227.64 141.66 227.55 141.23 228.5 141.64 229.73 142.59 230.62 146.16 232.87"/><path class="cls-7" d="M291.68,330.69l2.14,1.26,1.77,1,2.12.58,2.72.49h6.29l3.07-.49,2.49-.58,2.41-.59,2.34-1.22L319.2,330l1.41-1.26,1.32-1.37.87-1.66s.95-1.58.73-1.67" transform="translate(-181.88 -103.39)"/><polyline class="cls-4" points="155.25 274.38 153.71 272.4 153.71 268.68 151.14 262.42 146.43 257.02 144.46 255.95 142.32 255.95 141.02 256.66 141.02 257.65 142.13 260.6 143.06 263.33 144.18 267.22 144.92 270.98 144.74 273.39 144.36 276.46 143.43 279.03 142.13 281.09 141.02 282.34 139.34 284.13 135.36 285.51 132.1 285.51 128.02 285.51 124.43 284.13 120.34 281.91 118.97 279.29 116.26 273.79 115.39 270.04 115.39 267.29 115.39 264.01 115.39 261.01 115.39 258.06 114.53 255.95 113.33 254.48 109.41 254.48 108.13 255.95 107.41 258.57 106.88 262.42 106.88 270.08 122.31 295.47"/><path class="cls-4" d="M387.38,219.49l-.93-.66-2.13-1.28-2.66-1.28-3.45-1.15-2.92-.64h-5.45l-2.79.77-2.66,1-1.85,1.28-1.65,1.73-1.43,2,2.28,1.63,2,1.28,2.13,1.15,3.45,1,2.92.77h6.25l2.65-.64,2.53-.77,2-1.28,1.72-1.06a3.37,3.37,0,0,0,.68-.57l1.19-1.31-.95-1.17A5.63,5.63,0,0,0,387.38,219.49Z" transform="translate(-181.88 -103.39)"/><path class="cls-4" d="M426.55,220.76l-.82-.57-1.87-1.1L421.52,218l-3-1-2.56-.53-2.09,0-2.67,0-2.43.7-2.31.92-1.62,1.13-1.41,1.53-1.23,1.77,2,1.4,1.76,1.1,1.87,1,3,.86,2.56.64,2.79,0,2.67,0,2.32-.58,2.19-.7,1.73-1.14,1.49-.94a2.84,2.84,0,0,0,.59-.5l1-1.16-.85-1A4.63,4.63,0,0,0,426.55,220.76Z" transform="translate(-181.88 -103.39)"/><polygon class="cls-4" points="251.66 114 251.66 133.09 251.66 134.25 253.61 134.25 255.92 134.25 258.43 133.86 260.78 133.45 262.61 132.92 264.37 132.26 266.42 131.5 268.25 130.56 269.62 129.68 270.61 128.45 271.63 127.1 271.97 125.47 271.97 122.28 271.06 119.87 269.76 117.77 268.46 116.58 266.75 115.52 264.75 114.65 263.44 114 261.94 113.5 259.03 113.01 255.82 113.01 253.21 113.01 251.66 113.01 251.66 114"/><polygon points="193.59 145.62 194.43 144.35 195.66 143.18 197.16 142.18 199.09 141.55 201.2 141.55 203.72 142 205.24 142.81 206.56 143.58 207.4 144.26 208.91 143 210.41 142.27 212.29 141.55 214.08 141.1 216.04 141.1 217.74 141.1 219.62 141.64 221.31 142.36 223.48 143.72 225.45 145.17 226.48 146.16 227.42 147.31 226.48 149.24 225.54 150.96 224.23 152.31 222.72 153.58 220.82 154.25 219.25 154.94 217.65 154.94 215.45 154.93 199.9 155.26 193.59 145.62"/><path class="cls-3" d="M397.41,219.21l-.6-1.29a.86.86,0,0,0-.13-.2l-.91-1.11a1,1,0,0,0-.43-.29l-1.18-.43a1,1,0,0,0-.34-.06h-.73a1,1,0,0,0-.82.43l-.73,1.06a1.09,1.09,0,0,0-.08.15l-.86,1.89-1.05,2.36a.3.3,0,0,0,0,.08l-1.13,3.35a.3.3,0,0,0,0,.1l-.78,3.55-.73,3.44-.71,3.44-.52,2.57a1.1,1.1,0,0,0,0,.18v1.71a1,1,0,0,0,.14.49l.43.69a1,1,0,0,0,.68.44l3.08.51a1.22,1.22,0,0,0,.27,0l4.22-.4a1,1,0,0,0,.37-.11l.92-.47a1,1,0,0,0,.39-.35l.7-1.16a1.19,1.19,0,0,0,.08-.16l.55-1.51a.74.74,0,0,0,.05-.25l.44-6.29V224a.28.28,0,0,0,0-.09l-.42-4.44A1.11,1.11,0,0,0,397.41,219.21Z" transform="translate(-181.88 -103.39)"/><path class="cls-2" d="M381.06,256.49c.88-.94,1.86-1.9,2.94-2.89s2.38-2,3.5-2.9h-11l-3.47,2.89-2.26,1.54-2.12,1.77-2.12,1.36-1.21,1-.49,1.22v1.36l1,1.5,2.19.82,2.69.41h5l4.52-.41,3.47-.68,3.75-1.23L391,261l3.61-1.23,2.76-1.43,1.84-1.42,1.62-2.11,1.91-3.41L390,250.7a25,25,0,0,1-3,2.5c-.95.67-1.72,1.11-2.3,1.45A35.86,35.86,0,0,1,381.06,256.49Z" transform="translate(-181.88 -103.39)"/><polyline class="cls-8" points="168.53 273.79 167.99 186.77 171.24 182.95"/><line class="cls-8" x1="164.92" y1="182.95" x2="167.99" y2="186.77"/><polyline class="cls-8" points="153.71 273 160.39 273.79 167.46 274.48 176.72 275.84 186.1 276.46 196.77 276.46 194.84 272.01 193.94 266.94 193.94 260.75 195.1 255.56 197.29 250.11 200.5 244.54 205.38 239.72 209.63 237.74 214.9 236.75 220.17 235.51 225.69 234.28 222.87 228.37 221.32 223.27 219.91 218.57 219.14 212.75 219.14 207.43 219.65 201.62 221.19 196.55 223.51 191.35 226.34 186.77 229.81 183.56 233.53 180.22 237.65 177.37 239.19 176.26 244.46 176.26"/><line class="cls-8" x1="239.06" y1="171.06" x2="239.19" y2="176.26"/><ellipse class="cls-9" cx="184.61" cy="212.69" rx="6.43" ry="6.19"/><circle class="cls-3" cx="184.34" cy="212.13" r="1.76"/><path class="cls-3" d="M325.23,360.17l0,.14a.75.75,0,0,0,0,.33l.27.94a.92.92,0,0,0,.16.31l.74.93a1,1,0,0,0,.25.22l.66.4a1,1,0,0,0,1.14-.1l.26-.23a.9.9,0,0,0,.28-.43l.16-.52a.91.91,0,0,0-.18-.84l-.7-.81a.83.83,0,0,0-.23-.19l-1.39-.84a1,1,0,0,0-.44-.14h0A1,1,0,0,0,325.23,360.17Z" transform="translate(-181.88 -103.39)"/><path class="cls-3" d="M289.73,366.43l.5,0a.77.77,0,0,0,.55-.32l1.25-1.69a.91.91,0,0,0,.17-.43l.33-2.29a1.13,1.13,0,0,0-.06-.52l-.5-1.37a.84.84,0,0,0-.84-.6l-.35,0a.8.8,0,0,0-.65.48l-.92,2a1.2,1.2,0,0,0-.08.27l-.36,2.54a1,1,0,0,0,0,.24l.07.83A.89.89,0,0,0,289.73,366.43Z" transform="translate(-181.88 -103.39)"/><path class="cls-8" d="M295.51,389.35l-2.12-1.23a5.66,5.66,0,0,1-1.61-1.39l-1-1.32a5.55,5.55,0,0,1-.92-1.73l-.8-2.51a6,6,0,0,1-.28-1.79v-5.46" transform="translate(-181.88 -103.39)"/><polyline class="cls-8" points="113.33 295.47 111.26 294.21 109.19 292.59 107.29 290.44 105.6 288.09 104.24 286.15 102.94 283.53"/><polyline class="cls-8" points="114.53 303.49 112.52 302.86 109.96 301.81 108.13 300.71 106.31 299.61 104.3 298.09"/><path class="cls-10" d="M365.43,220.46l2.49-1.14,2.11-.51a2.51,2.51,0,0,1,.55-.07h5.87a1.76,1.76,0,0,1,.72.16l1.56.7,1.21.86-1.3.85-1.34.65a2.81,2.81,0,0,1-.56.18l-1.61.32a1.84,1.84,0,0,1-.41,0h-4.08a2.18,2.18,0,0,1-.57-.08l-2.45-.75Z" transform="translate(-181.88 -103.39)"/><path class="cls-10" d="M422.5,221.49l-2.37-1.17-2-.52a2.31,2.31,0,0,0-.52-.06H412a1.49,1.49,0,0,0-.69.16l-1.48.71-1.15.88,1.24.88,1.27.66a2.1,2.1,0,0,0,.53.19l1.53.33a2.58,2.58,0,0,0,.39,0h3.87a1.65,1.65,0,0,0,.54-.09l2.32-.77Z" transform="translate(-181.88 -103.39)"/><path d="M369.61,219.69l.14.47,0,0,.56.8v0l.55.46a.69.69,0,0,0,.31.15l.56.12h1a1.06,1.06,0,0,0,.4-.08l.74-.32a.74.74,0,0,0,.22-.14l.72-.62h0l.53-.56,0,0,.1-.27a1,1,0,0,0,0-1l-.05-.09s-.05-.15-.09-.15h-4.93a.8.8,0,0,0-.19.13l-.3.23A.74.74,0,0,0,369.61,219.69Z" transform="translate(-181.88 -103.39)"/><path d="M411.75,221l.14.48,0,0,.57.8a0,0,0,0,0,0,0l.55.47a.63.63,0,0,0,.32.15l.56.13h1a1,1,0,0,0,.41-.09l.74-.32a.79.79,0,0,0,.23-.14l.73-.63h0l.54-.57,0,0,.1-.28a1,1,0,0,0,0-1l-.05-.09s-.05-.16-.09-.16h-5a1.27,1.27,0,0,0-.19.13l-.31.24A.76.76,0,0,0,411.75,221Z" transform="translate(-181.88 -103.39)"/></g></svg>