<?xml version="1.0" encoding="utf-8"?>
<!-- Generator: Adobe Illustrator 23.1.0, SVG Export Plug-In . SVG Version: 6.00 Build 0)  -->
<svg version="1.1" id="Layer_1" xmlns="http://www.w3.org/2000/svg" xmlns:xlink="http://www.w3.org/1999/xlink" x="0px" y="0px"
	 viewBox="0 0 453.7 337.4" style="enable-background:new 0 0 453.7 337.4;" xml:space="preserve">
<style type="text/css">
	.st0{fill:#FF69B4;}
	.st1{fill:#3949FA;}
	.st2{fill:#FFDB54;}
	.st3{fill:#FFEBB5;}
	.st4{fill:none;stroke:#000000;stroke-miterlimit:10;}
	.st5{fill:none;stroke:#FFDB54;stroke-miterlimit:10;}
	.st6{fill:none;stroke:#3949FA;stroke-width:5;stroke-linecap:round;stroke-linejoin:round;}
	.st7{fill:none;stroke:#3949FA;stroke-width:5;stroke-miterlimit:10;}
	.st8{fill:#FFFFFF;}
</style>
<title>logofixed</title>
<g>
	<g id="_">
		<g>
			<path class="st0" d="M84.2,30.7l-17.8-5.4l3.4-11l17.7,7.6L86.3,0.6h11.1l-1.1,21.6l17.2-7.5l3.4,11.1l-18.2,5.4l11.9,16.2
				l-9,6.9L91.2,36.6L81,53.8l-9-6.6L84.2,30.7z"/>
		</g>
	</g>
	<g id="B_KE_OFF">
		<g>
			<path d="M64.9,61c0,7.1-4.1,11.1-10.7,11.1H0V0.1h54.2c7.1,0,10.7,3.3,10.7,11.1v15.5c0,6.1-4.1,8.6-8.4,10v0.2
				c5,1,8.5,5.4,8.4,10.4V61z M37.6,30V18.5H27.4V30L37.6,30z M37.6,53.9V42.6H27.4v11.3L37.6,53.9z"/>
			<path d="M184.8,72.1h-27.4V56.8h-10.3v15.2h-27.4V0h27.4v15.3h10.3V0h27.4v26l-10.9,10.2l10.9,10.5L184.8,72.1z"/>
			<path d="M243.5,72.1h-54V0h54v22.3h-11.3v7.9h11.3v11.6h-11.3v7.8h11.3V72.1z"/>
			<path d="M336.6,61c0,6.9-3.7,11.1-10.6,11.1h-43.9c-7.8,0-10.6-3.7-10.6-11.1V11.1c0-7.2,3.8-11.1,10.6-11.1H326
				c6.5,0,10.6,2.5,10.6,11.1L336.6,61z M309.2,51.9V20.3h-10.3v31.6H309.2z"/>
			<path d="M395.3,52.7h-11.3v19.4h-42.8V0h54v22.3h-11.3v7.9h11.3L395.3,52.7z"/>
			<path d="M453.7,52.7h-11.3v19.4h-42.8V0h54v22.3h-11.2v7.9h11.3V52.7z"/>
		</g>
	</g>
	<path class="st1" d="M235.5,95.3c-23.2,35.6-12.3,85.3,21.5,105.7c27.2,16.4,64.4,19.6,87.8,0.9c5.7-4.6,8.3-12.5,11.6-20.1
		c4.2-9.5,8.1-28.1,10-37.7c2.9-14.3,3.2-26.8-2-39.6s-10.7-24.7-23.5-32.4C307.1,51.7,258.7,59.7,235.5,95.3z"/>
	<path class="st1" d="M223.8,102.4c23.2,35.6,15.8,82.2-15.4,101s-69.5,14.2-92.6-21.3c-5.8-8.9-10.6-28.5-12.7-37.9
		c-3.2-14.1-4-26.3,0.5-38.6s9.2-23.9,21-30.9C155.6,55.8,200.6,66.8,223.8,102.4z"/>
	<path class="st2" d="M296.2,179.7l-30.5-40.5l5.3-1.3l4.1-0.8l4.9-0.4h9.7l4.9,0.4l3.1,0.6l5.4,1.8l9,3.1l5.9,3l6.1,3.4l7.2,4.2
		l5.3,4.1l5,5.5l3.5,4.8l1.8,4.2l1.1,3.2l1.1,5.1c0.3,2.9,0.6,5.7,0.9,8.6c-0.5,3-1,5.9-1.5,8.9l-2.7,5.3l-3.2,6.7l-4,7l-4.5,7.2
		l-6.8,10.3l-6.8,10.2l-8.3,11.9l-7.8,11.3l-9.3,14l-5.6,9.7l-8.6,12.6l-7.9,11l-8.1,7.8l-7.4,6.2l-6.8,4.8l-5.1,2.9l-4.5,1.1h-4.6
		l-6.3-0.8l-5-1.9l-5.3-3.8l-4.6-3.7l-5-4.8l-4-4.3l-2-2.2l-11.1-0.8l-8.1-0.5l-8.3-0.8l-7.7-0.6l-11.8-1.1l-6.8-1.1l-4.6-0.3
		l-2.2,1l-3.6,1.1l-2.8,0.6l-3.3,0.3l-3.2-0.2l-4.1-0.3l-2.6-0.6l-2,0.2l-3-0.2l-3-0.6l-2.9-1.3l-2.6-1.4l-2.9-2.4l-2.9-3.5
		l-1.7-1.9l-0.7-1.9l0.3-1.1l0.4-1.6l-2.2-3l-1-2.3v-5.1l0.8-1h1.3l-0.3-3.2l-1.2-3.1l0.2-2.7l0.7-2.1l1-1.5l1.4-1.4l1.4-0.7
		l3.7-2.9l0.9-5l2.4-1.9l9.6,34.5L296.2,179.7z"/>
	<polygon class="st2" points="265.7,139.2 260.5,140.5 240.6,147.3 190.5,138.9 184.9,138.4 179.3,138.4 173.1,138.4 166.5,138.4 
		160.7,138.9 153.7,140 146.4,141.6 139.4,143.6 134.1,145.7 130.3,148.2 126.8,151.7 123.9,155.3 122.4,157.8 120.7,162 
		119.1,165.5 117.9,169.1 117.1,172.9 116.3,177.4 115.7,182.1 162.3,268.9 306,176.3 	"/>
	<path class="st3" d="M260.5,122.7c0,11.8-5.9,25.6-12.4,33.3s-13.7,9.5-23.7,9.5c-14.1,0-26.4-5.1-32-18.8
		c-2.3-5.6-2.8-16-2.8-22.9c0-8.4-0.9-16.8,1.5-24c1.3-3.9,4.6-7.8,7.4-10.6c6.3-6.4,17-9.2,26-9.2c9.4,0,18.2,2.8,24.6,9.7
		C256.3,97.5,260.5,110.2,260.5,122.7z"/>
	<path class="st4" d="M205.6,158.9"/>
	<path class="st1" d="M151.7,240.4c0,5-7.2,16.1-19.8,16.1c-6.8,0-16.2-2.9-21.2-6.6c-4.3-3.2-5.3-7.2-5.3-9.5
		c0-5,10.8-9.1,23.4-9.1S151.7,235.4,151.7,240.4z"/>
	<polygon points="105.9,243.6 107.6,249.2 109.1,252.9 110.4,256.3 111.8,259.4 113.4,262.8 114.9,266.2 116.8,267.4 119,268.4 
		121.1,268.7 123.5,269.3 126.1,269.6 129,269.6 132.1,269.1 134.2,268.7 136.5,268.1 138.9,267.3 141.6,266.4 144.7,259.5 
		147.5,253.2 148.8,250.4 149.6,248.5 150.4,245.1 150.9,243.6 149.6,246.5 148.7,247.2 147.7,247.3 146.7,247 146,246.4 
		145.7,247.6 145,248.3 143.9,248.6 142.9,248.5 141.9,248.2 141,247.3 140.5,248.2 139.8,248.9 138.9,249.4 138.1,249.6 
		136.8,249.5 136,248.8 135.2,247.8 134.6,248.8 134,249.4 133.2,250 132.2,250.4 131.1,250.3 130.3,249.8 129.4,249.1 128.9,248.2 
		128.4,249.1 127.7,249.7 126.7,250.2 125.9,250.5 124.9,250.3 123.9,249.8 123,248.9 122.4,247.8 121.7,248.7 120.9,249.2 
		120.1,249.5 118.7,249.4 118,248.9 117.2,248.2 116.6,246.9 115.5,247.5 114.6,247.6 113.5,247.4 112.5,246.9 111.9,245.9 
		111.6,245.1 110.8,245.7 109.9,246 108.6,246 107.3,245.5 106.6,244.5 	"/>
	<path class="st3" d="M141.6,219.8c0.1-1.8-0.6-3.5-1.9-4.7c-1.4-1.3-3-2.4-4.6-3.3c-1.4-0.8-3.1-1.4-4-2.3
		c-2.6-2.8-1.9-5.5-2.7-3.5c-0.6,1.7-2.4,4.1-4.1,4.1c-9.4,0-17,4.5-17,10.2c0,4,2.2,7.6,5.8,9.3c2.3,0.9,4.7,1.4,7.2,1.4h3.8
		C133.5,230.9,141.6,225.4,141.6,219.8z"/>
	<path class="st3" d="M150.9,226.2c0.8,4.7,0.4,8.5-2.5,10.6c-2.5,1.8-6.2,4.8-12.4,5.9c-5.7,1-11.6,1-17.3,0
		c-5.6-1-11.2-3.7-11.7-8.1c-0.4-2,0-4.1,1-5.9c3.7-5.5,13.5-9.4,23.8-9.4c8.5,0,13.1-0.5,15.3,1.1
		C149.1,221.8,150.5,223.9,150.9,226.2z"/>
	<polygon class="st1" points="120.5,215 122.8,211.2 123.1,209.7 122.5,208.6 121.2,208.6 120.5,209.7 120.2,210.9 119.4,209.7 
		118.7,209 117.9,208.6 117.2,209.4 117.2,210.7 117.8,211.8 	"/>
	<polygon class="st1" points="131.7,221.6 135.5,219.2 136.5,218 136.5,216.7 135.3,216.1 134.2,216.9 133.3,217.8 133.2,216.4 
		133,215.4 132.4,214.8 131.4,215.1 130.8,216.3 130.8,217.6 	"/>
	<polygon class="st1" points="115.3,227.3 116.6,223.1 116.6,221.6 115.8,220.6 114.4,220.9 114.1,222.2 114,223.4 113,222.4 
		112.2,221.8 111.3,221.6 110.8,222.6 111.1,223.8 112,224.8 	"/>
	<polygon class="st1" points="114.8,238.9 114.8,234.5 114.4,233 113.3,232.4 112.1,233 112.1,234.3 112.4,235.5 111.1,234.8 
		110.2,234.4 109.3,234.5 109.1,235.5 109.7,236.6 110.8,237.3 	"/>
	<polygon class="st1" points="133.6,238.7 136.6,235.4 137.3,234.1 136.9,232.9 135.6,232.6 134.8,233.6 134.2,234.7 133.6,233.3 
		133.2,232.4 132.5,231.9 131.6,232.5 131.3,233.8 131.7,235 	"/>
	<polygon class="st1" points="146.2,232.9 147.1,228.6 147,227.1 146,226.2 144.7,226.6 144.5,227.9 144.5,229.1 143.4,228.2 
		142.5,227.6 141.7,227.6 141.2,228.5 141.6,229.7 142.6,230.6 	"/>
	<path class="st5" d="M109.8,227.3l2.1,1.3l1.8,1l2.1,0.6l2.7,0.5h6.3l3.1-0.5l2.5-0.6l2.4-0.6l2.3-1.2l2.2-1.1l1.4-1.3l1.3-1.4
		l0.9-1.7c0,0,1-1.6,0.7-1.7"/>
	<polyline class="st2" points="155.3,274.4 153.7,272.4 153.7,268.7 151.1,262.4 146.4,257 144.5,255.9 142.3,255.9 141,256.7 
		141,257.6 142.1,260.6 143.1,263.3 144.2,267.2 144.9,271 144.7,273.4 144.4,276.5 143.4,279 142.1,281.1 141,282.3 139.3,284.1 
		135.4,285.5 132.1,285.5 128,285.5 124.4,284.1 120.3,281.9 119,279.3 116.3,273.8 115.4,270 115.4,267.3 115.4,264 115.4,261 
		115.4,258.1 114.5,255.9 113.3,254.5 109.4,254.5 108.1,255.9 107.4,258.6 106.9,262.4 106.9,270.1 122.3,295.5 	"/>
	<path class="st2" d="M205.5,116.1l-0.9-0.7l-2.1-1.3l-2.7-1.3l-3.5-1.1l-2.9-0.6H188l-2.8,0.8l-2.7,1l-1.9,1.3l-1.6,1.7l-1.4,2
		l2.3,1.6l2,1.3l2.1,1.1l3.5,1l2.9,0.8h6.3l2.6-0.6l2.5-0.8l2-1.3l1.7-1.1c0.3-0.2,0.5-0.4,0.7-0.6l1.2-1.3l-1-1.2
		C206.2,116.6,205.8,116.3,205.5,116.1z"/>
	<path class="st2" d="M244.7,117.4l-0.8-0.6l-1.9-1.1l-2.3-1.1l-3-1l-2.6-0.5H232h-2.7l-2.4,0.7l-2.3,0.9l-1.6,1.1l-1.4,1.5
		l-1.2,1.8l2,1.4l1.8,1.1l1.9,1l3,0.9l2.6,0.6h2.8h2.7l2.3-0.6l2.2-0.7l1.7-1.1l1.5-0.9c0.2-0.1,0.4-0.3,0.6-0.5l1-1.2l-0.9-1
		C245.2,117.8,245,117.6,244.7,117.4z"/>
	<polygon class="st2" points="251.7,114 251.7,133.1 251.7,134.3 253.6,134.3 255.9,134.3 258.4,133.9 260.8,133.4 262.6,132.9 
		264.4,132.3 266.4,131.5 268.3,130.6 269.6,129.7 270.6,128.4 271.6,127.1 272,125.5 272,122.3 271.1,119.9 269.8,117.8 
		268.5,116.6 266.8,115.5 264.8,114.7 263.4,114 261.9,113.5 259,113 255.8,113 253.2,113 251.7,113 	"/>
	<polygon points="193.6,145.6 194.4,144.4 195.7,143.2 197.2,142.2 199.1,141.6 201.2,141.6 203.7,142 205.2,142.8 206.6,143.6 
		207.4,144.3 208.9,143 210.4,142.3 212.3,141.6 214.1,141.1 216,141.1 217.7,141.1 219.6,141.6 221.3,142.4 223.5,143.7 
		225.4,145.2 226.5,146.2 227.4,147.3 226.5,149.2 225.5,151 224.2,152.3 222.7,153.6 220.8,154.3 219.3,154.9 217.6,154.9 
		215.4,154.9 199.9,155.3 	"/>
	<path class="st1" d="M215.5,115.8l-0.6-1.3c0-0.1-0.1-0.1-0.1-0.2l-0.9-1.1c-0.1-0.1-0.3-0.2-0.4-0.3l-1.2-0.4
		c-0.1,0-0.2-0.1-0.3-0.1h-0.7c-0.3,0-0.6,0.2-0.8,0.4l-0.7,1.1c0,0-0.1,0.1-0.1,0.1l-0.9,1.9l-1,2.4c0,0,0,0.1,0,0.1l-1.1,3.4
		c0,0,0,0.1,0,0.1l-0.8,3.6l-0.7,3.4l-0.7,3.4l-0.5,2.6c0,0.1,0,0.1,0,0.2v1.7c0,0.2,0.1,0.3,0.1,0.5l0.4,0.7
		c0.2,0.2,0.4,0.4,0.7,0.4l3.1,0.5c0.1,0,0.2,0,0.3,0l4.2-0.4c0.1,0,0.3,0,0.4-0.1l0.9-0.5c0.2-0.1,0.3-0.2,0.4-0.4l0.7-1.2
		c0-0.1,0.1-0.1,0.1-0.2l0.5-1.5c0-0.1,0-0.2,0-0.3l0.4-6.3v-7.6c0,0,0-0.1,0-0.1l-0.4-4.4C215.7,116,215.6,115.9,215.5,115.8z"/>
	<path class="st0" d="M199.2,153.1c0.9-0.9,1.9-1.9,2.9-2.9s2.4-2,3.5-2.9h-11l-3.5,2.9l-2.3,1.5l-2.1,1.8l-2.1,1.4l-1.2,1l-0.5,1.2
		v1.4l1,1.5l2.2,0.8l2.7,0.4h5l4.5-0.4l3.5-0.7l3.8-1.2l3.5-1.2l3.6-1.2l2.8-1.4l1.8-1.4l1.6-2.1l1.9-3.4l-12.7-0.7
		c-0.9,0.9-1.9,1.7-3,2.5c-1,0.7-1.7,1.1-2.3,1.4C201.6,151.9,200.4,152.6,199.2,153.1z"/>
	<polyline class="st6" points="168.5,273.8 168,186.8 171.2,182.9 	"/>
	<line class="st6" x1="164.9" y1="182.9" x2="168" y2="186.8"/>
	<polyline class="st6" points="153.7,273 160.4,273.8 167.5,274.5 176.7,275.8 186.1,276.5 196.8,276.5 194.8,272 193.9,266.9 
		193.9,260.8 195.1,255.6 197.3,250.1 200.5,244.5 205.4,239.7 209.6,237.7 214.9,236.8 220.2,235.5 225.7,234.3 222.9,228.4 
		221.3,223.3 219.9,218.6 219.1,212.8 219.1,207.4 219.6,201.6 221.2,196.6 223.5,191.4 226.3,186.8 229.8,183.6 233.5,180.2 
		237.6,177.4 239.2,176.3 244.5,176.3 	"/>
	<line class="st6" x1="239.1" y1="171.1" x2="239.2" y2="176.3"/>
	<ellipse class="st7" cx="184.6" cy="212.7" rx="6.4" ry="6.2"/>
	<circle class="st1" cx="184.3" cy="212.1" r="1.8"/>
	<path class="st1" d="M143.4,256.8v0.1c0,0.1,0,0.2,0,0.3l0.3,0.9c0,0.1,0.1,0.2,0.2,0.3l0.7,0.9c0.1,0.1,0.2,0.2,0.3,0.2l0.7,0.4
		c0.4,0.2,0.8,0.2,1.1-0.1l0.3-0.2c0.1-0.1,0.2-0.3,0.3-0.4l0.2-0.5c0.1-0.3,0-0.6-0.2-0.8l-0.7-0.8c-0.1-0.1-0.1-0.1-0.2-0.2
		l-1.4-0.8c-0.1-0.1-0.3-0.1-0.4-0.1l0,0C143.8,256,143.4,256.3,143.4,256.8z"/>
	<path class="st1" d="M107.9,263h0.5c0.2,0,0.4-0.1,0.5-0.3l1.3-1.7c0.1-0.1,0.2-0.3,0.2-0.4l0.3-2.3c0-0.2,0-0.4-0.1-0.5l-0.5-1.4
		c-0.1-0.4-0.5-0.6-0.8-0.6h-0.4c-0.3,0-0.5,0.2-0.6,0.5l-0.9,2c0,0.1-0.1,0.2-0.1,0.3l-0.4,2.5c0,0.1,0,0.2,0,0.2l0.1,0.8
		C107,262.7,107.4,263,107.9,263z"/>
	<path class="st6" d="M113.6,286l-2.1-1.2c-0.6-0.4-1.2-0.8-1.6-1.4l-1-1.3c-0.4-0.5-0.7-1.1-0.9-1.7l-0.8-2.5
		c-0.2-0.6-0.3-1.2-0.3-1.8v-5.5"/>
	<polyline class="st6" points="113.3,295.5 111.3,294.2 109.2,292.6 107.3,290.4 105.6,288.1 104.2,286.1 102.9,283.5 	"/>
	<polyline class="st6" points="114.5,303.5 112.5,302.9 110,301.8 108.1,300.7 106.3,299.6 104.3,298.1 	"/>
	<path class="st8" d="M183.5,117.1l2.5-1.1l2.1-0.5c0.2,0,0.4-0.1,0.5-0.1h5.9c0.2,0,0.5,0.1,0.7,0.2l1.6,0.7l1.2,0.9l-1.3,0.9
		l-1.3,0.6c-0.2,0.1-0.4,0.1-0.6,0.2l-1.6,0.3c-0.1,0-0.3,0-0.4,0h-4.1c-0.2,0-0.4,0-0.6-0.1l-2.5-0.8L183.5,117.1z"/>
	<path class="st8" d="M240.6,118.1l-2.4-1.2l-2-0.5c-0.2,0-0.3-0.1-0.5-0.1h-5.6c-0.2,0-0.5,0.1-0.7,0.2l-1.5,0.7l-1.1,0.9l1.2,0.9
		l1.3,0.7c0.2,0.1,0.3,0.2,0.5,0.2l1.5,0.3c0.1,0,0.3,0,0.4,0h3.9c0.2,0,0.4,0,0.5-0.1l2.3-0.8L240.6,118.1z"/>
	<path d="M187.7,116.3l0.1,0.5l0,0l0.6,0.8l0,0l0.5,0.5c0.1,0.1,0.2,0.1,0.3,0.1l0.6,0.1h1c0.1,0,0.3,0,0.4-0.1l0.7-0.3
		c0.1,0,0.2-0.1,0.2-0.1l0.7-0.6l0,0l0.5-0.6l0,0l0.1-0.3c0.2-0.3,0.2-0.7,0-1l0-0.1c0,0,0-0.1-0.1-0.1h-4.9c-0.1,0-0.1,0.1-0.2,0.1
		l-0.3,0.2C187.7,115.6,187.6,116,187.7,116.3z"/>
	<path d="M229.9,117.6l0.1,0.5l0,0l0.6,0.8l0,0l0.5,0.5c0.1,0.1,0.2,0.1,0.3,0.1l0.6,0.1h1c0.1,0,0.3,0,0.4-0.1l0.7-0.3
		c0.1,0,0.2-0.1,0.2-0.1l0.7-0.6l0,0l0.5-0.6l0,0l0.1-0.3c0.2-0.3,0.2-0.7,0-1l0-0.1c0,0,0-0.2-0.1-0.2h-5c-0.1,0-0.1,0.1-0.2,0.1
		l-0.3,0.2C229.8,116.9,229.7,117.3,229.9,117.6z"/>
</g>
</svg>
