<?xml version="1.0" encoding="utf-8"?>
<!-- Generator: Adobe Illustrator 23.1.0, SVG Export Plug-In . SVG Version: 6.00 Build 0)  -->
<svg version="1.1" id="Layer_1" xmlns="http://www.w3.org/2000/svg" xmlns:xlink="http://www.w3.org/1999/xlink" x="0px" y="0px"
	 viewBox="0 0 489.9 476.9" style="enable-background:new 0 0 489.9 476.9;" xml:space="preserve">
<style>
			.cls-1 {
			stroke: white;
			}
			#lines {
			animation: lines 2s ease-in-out alternate infinite;
			transform-origin: center;
			animation-delay: 1s;
			}
			@keyframes lines {
			from {
			transform: translate(0px, -5px) scale(0.8);
			}
			to {
			transform: translate(0px, -10px) scale(1.2);
			}
			}
		</style><style type="text/css">
	.st0{fill:none;stroke:#FFFFFF;stroke-width:4;stroke-linecap:round;stroke-miterlimit:10;}
	.st1{fill:#FFDA53;}
	.st2{fill:#F4C634;}
	.st3{fill:#FCEEC3;}
	.st4{enable-background:new    ;}
	.st5{fill:#FFFFFF;}
</style>
<title>tips</title>
<g id="Layer_8">
	<g id="lines">
		<line class="st0" x1="142.8" y1="211.7" x2="169.9" y2="223.8"/>
		<line class="st0" x1="366.8" y1="211.7" x2="339.8" y2="223.8"/>
		<line class="st0" x1="321.4" y1="166.8" x2="307.5" y2="193"/>
		<line class="st0" x1="184.5" y1="167.4" x2="198.3" y2="193.5"/>
		<line class="st0" x1="252.9" y1="181.7" x2="252.9" y2="149.8"/>
	</g>
	<g id="bulb">
		<path class="st1" d="M322.1,247.2c-7.1-27.9-35.2-48.7-68.8-48.7c-34.5,0-63.2,21.9-69.4,50.9l0,0v0.1c-0.4,1.9-0.7,3.8-0.9,5.7
			c0,0-0.3,2.8-0.3,5.8c-0.1,15.3,3.4,25.5,3.4,25.5c2.7,7.7,6.8,14.8,12.3,20.8c0,0,9.3,6.7,18.1,26.1c5.3,11.6,7.9,25.5,8.3,46.7
			c0,0,27.9,14,56.6,0c1.5-35.5,12.3-55.3,22-66.9c5.6-6.7,12.6-12.6,17.2-24.2C327,273.4,324.9,257.8,322.1,247.2z"/>
		<g id="part">
			<path class="st2" d="M286.6,390c0-1.3-3.7-2.5-9.7-3.4c6-0.9,9.7-2.1,9.7-3.4c0-2.6-14.8-4.8-33.1-4.8s-33.1,2.1-33.1,4.8
				c0,1.3,3.7,2.5,9.7,3.4c-6,0.9-9.7,2.1-9.7,3.4s3.6,2.5,9.6,3.4l-0.1,0.1c-5.9,0.9-9.5,2-9.5,3.3c0,1,2.3,2,6.1,2.8
				c0.2,6.6,12,12,26.5,12c14.5,0,26.1-5.2,26.5-11.8c4.4-0.8,7.1-1.8,7.1-2.9c0-1.3-3.7-2.5-9.7-3.4
				C282.9,392.5,286.6,391.3,286.6,390z"/>
		</g>
		<path class="st3" d="M260.9,205.7c-1-2.8-40.5-0.5-59.3,25.3c-5.8,8.7-9.3,18.6-10.2,29c-0.6,6.4,1.1,15.5,3.4,15.7
			c3.3,0.3,4-17.4,12.8-33C224.7,212.7,261.9,208.4,260.9,205.7z"/>
		<g class="st4">
			<path class="st5" d="M175.5,107.9V59.2h-17.4v-9.9h46.6v9.9h-17.4v48.7H175.5z"/>
			<path class="st5" d="M212,107.9V49.3h11.8v58.7H212z"/>
			<path class="st5" d="M235.1,107.9V49.3h19c7.2,0,11.9,0.3,14.1,0.9c3.4,0.9,6.2,2.8,8.4,5.7s3.4,6.8,3.4,11.4
				c0,3.6-0.7,6.6-2,9.1c-1.3,2.5-3,4.4-5,5.8c-2,1.4-4.1,2.3-6.1,2.8c-2.8,0.6-6.9,0.8-12.3,0.8H247v22.1H235.1z M247,59.2v16.6
				h6.5c4.7,0,7.8-0.3,9.4-0.9c1.6-0.6,2.8-1.6,3.7-2.9c0.9-1.3,1.3-2.8,1.3-4.6c0-2.1-0.6-3.9-1.9-5.3c-1.3-1.4-2.8-2.3-4.8-2.6
				c-1.4-0.3-4.3-0.4-8.5-0.4H247z"/>
			<path class="st5" d="M286.8,88.9l11.5-1.1c0.7,3.9,2.1,6.7,4.2,8.5s5,2.7,8.6,2.7c3.8,0,6.7-0.8,8.6-2.4c1.9-1.6,2.9-3.5,2.9-5.7
				c0-1.4-0.4-2.6-1.2-3.5c-0.8-1-2.2-1.8-4.3-2.5c-1.4-0.5-4.5-1.3-9.5-2.6c-6.4-1.6-10.8-3.5-13.4-5.8c-3.6-3.2-5.4-7.2-5.4-11.8
				c0-3,0.8-5.8,2.5-8.4c1.7-2.6,4.1-4.6,7.3-5.9c3.2-1.4,7-2,11.5-2c7.4,0,12.9,1.6,16.6,4.8c3.7,3.2,5.7,7.5,5.9,12.9L321,66.6
				c-0.5-3-1.6-5.2-3.3-6.5c-1.7-1.3-4.2-2-7.5-2c-3.4,0-6.1,0.7-8.1,2.1c-1.3,0.9-1.9,2.1-1.9,3.6c0,1.4,0.6,2.6,1.8,3.6
				c1.5,1.3,5.1,2.6,10.9,3.9c5.8,1.4,10,2.8,12.8,4.2c2.8,1.5,4.9,3.4,6.5,6c1.6,2.5,2.3,5.6,2.3,9.3c0,3.4-0.9,6.5-2.8,9.4
				c-1.9,2.9-4.5,5.1-7.9,6.5c-3.4,1.4-7.7,2.1-12.8,2.1c-7.4,0-13.1-1.7-17.1-5.1C290,100.4,287.6,95.4,286.8,88.9z"/>
		</g>
	</g>
</g>
</svg>
