<svg xmlns="http://www.w3.org/2000/svg" viewBox="0 0 489.86 476.93">
	<defs>
		<style>
			.cls-1{fill:none;stroke:#1d1d1b;stroke-linecap:round;stroke-miterlimit:10;stroke-width:4px;}.cls-2{fill:#ffda53;}.cls-3{fill:#f4c634;}.cls-4{fill:#fceec3;}.cls-5{font-size:81.96px;font-family:Roboto-Black, Roboto;font-weight:800;}
		</style>
		<style>
			.cls-1 {
			stroke: white;
			}
			#lines {
			animation: lines 2s ease-in-out alternate infinite;
			transform-origin: center;
			animation-delay: 1s;
			}
			@keyframes lines {
			from {
			transform: translate(0px, -5px) scale(0.8);
			}
			to {
			transform: translate(0px, -10px) scale(1.2);
			}
			}
		</style>
	</defs>
	<title>
		tips
	</title>
	<g id="Layer_8" data-name="Layer 8">
		<g id="lines">
			453
			<line class="cls-1" x1="142.84" y1="211.66" x2="169.85" y2="223.79" />
			<line class="cls-1" x1="366.82" y1="211.66" x2="339.8" y2="223.79" />
			<line class="cls-1" x1="321.38" y1="166.84" x2="307.55" y2="193.03" />
			<line class="cls-1" x1="184.5" y1="167.35" x2="198.32" y2="193.54" />
			<line class="cls-1" x1="252.94" y1="181.73" x2="252.94" y2="149.75" />
		</g>
		<g id="bulb">
			<path class="cls-2" d="M322.13,247.17c-7.11-27.85-35.22-48.65-68.82-48.65-34.5,0-63.2,21.92-69.35,50.89h0v.07a56.18,56.18,0,0,0-.9,5.69s-.3,2.78-.32,5.83c-.08,15.29,3.43,25.5,3.43,25.5a61.85,61.85,0,0,0,12.26,20.82s9.32,6.71,18.13,26.11c5.27,11.6,7.92,25.54,8.33,46.67,0,0,27.94,14,56.61,0,1.48-35.52,12.26-55.32,22.05-66.9,5.65-6.68,12.61-12.56,17.24-24.19C327,273.39,324.86,257.82,322.13,247.17Z" />
			<g id="part">
				<path class="cls-3" d="M286.62,390c0-1.32-3.72-2.52-9.73-3.38,6-.87,9.73-2.06,9.73-3.38,0-2.63-14.81-4.77-33.09-4.77s-33.08,2.14-33.08,4.77c0,1.32,3.72,2.51,9.73,3.38-6,.86-9.73,2.06-9.73,3.38s3.65,2.49,9.56,3.35l-.09.06c-5.85.86-9.47,2-9.47,3.34,0,1,2.25,2,6.06,2.75.16,6.62,12,12,26.53,12s26.12-5.24,26.51-11.77c4.42-.81,7.07-1.83,7.07-2.94,0-1.32-3.72-2.51-9.73-3.38C282.9,392.46,286.62,391.27,286.62,390Z" />
			</g>
			<path class="cls-4" d="M260.94,205.67c-1-2.81-40.53-.48-59.32,25.33a61.82,61.82,0,0,0-10.21,29c-.56,6.4,1.06,15.46,3.38,15.69,3.27.33,4-17.42,12.83-33C224.66,212.74,261.88,208.43,260.94,205.67Z" />
			<text class="cls-5" transform="translate(156.35 107.94)" fill="#fff">
				TIPS
			</text>
		</g>
	</g>
</svg>
