<svg id="Layer_1" data-name="Layer 1" xmlns="http://www.w3.org/2000/svg" viewBox="0 0 412.18 422.8"><defs><style>.cls-1,.cls-2{fill:none;}.cls-1,.cls-2,.cls-3{stroke:#000;stroke-linecap:round;stroke-miterlimit:10;}.cls-1{stroke-width:11px;}.cls-2{stroke-width:10px;}.cls-3{stroke-width:7.95px;}</style></defs><title>vegan-icon</title><path d="M119.3,413q8.19-14.67,15.79-29.63c3.28,1,6.61,1.93,10,2.79q-10.73,20-22.76,39.28-5-1.56-10-3.32-3.65-24.63-5.47-49.53,4.55,2.11,9.23,4Q117.27,394.81,119.3,413Z" transform="translate(-5.81 -15.49)"/><path d="M174.57,416.83Q165,415.75,155.63,414q-.65,5.88-1.3,11.77c7.52,1.38,15.15,2.46,22.84,3.22l-.45,7.29A281.31,281.31,0,0,1,143.44,431q2.87-21.93,5.75-43.87a241.86,241.86,0,0,0,30.18,5.11c-.15,2.45-.31,4.9-.46,7.35q-10.78-1.12-21.35-3.15-.59,5.24-1.15,10.47c6.15,1.16,12.38,2.1,18.65,2.82Q174.82,413.28,174.57,416.83Z" transform="translate(-5.81 -15.49)"/><path d="M222.91,431.6a18,18,0,0,1-7.83,4.91,34.09,34.09,0,0,1-11.47,1.77,23.72,23.72,0,0,1-11.53-2.8,17.45,17.45,0,0,1-7.32-7.7,23.34,23.34,0,0,1-2.14-11.37c.06-1,.11-2,.16-3a25.35,25.35,0,0,1,3-11.23,16.93,16.93,0,0,1,7.08-6.95A21.73,21.73,0,0,1,203.19,393c5.49.06,9.78,1.18,12.95,3.54s5.15,5.87,5.91,10.6c-3.18.19-6.38.33-9.57.41a8.6,8.6,0,0,0-2.95-5.48,9.91,9.91,0,0,0-6.1-1.74,9,9,0,0,0-7.6,3.31c-1.78,2.26-2.77,5.66-2.93,10.24,0,.94-.06,1.88-.08,2.82-.14,4.62.73,8.16,2.67,10.59s4.84,3.7,8.71,3.72,6.67-.77,8.29-2.26c0-2.53-.06-5.07-.1-7.6-3.07.07-6.15.1-9.23.07,0-2.23,0-4.46.05-6.69q9.54.09,19.08-.5Q222.61,422.82,222.91,431.6Z" transform="translate(-5.81 -15.49)"/><path d="M258.85,423.59q-8.76,1.68-17.69,2.8-1.35,4.74-2.78,9.47-5.53.61-11.09,1,8.47-22.72,15.14-46,4.35-.65,8.66-1.44,10.7,20.4,22.89,40.11-5.31,1.29-10.7,2.38Q261,427.8,258.85,423.59Zm-15.53-4.9q6.06-.82,12.05-1.92-3.88-7.68-7.57-15.42Q245.68,410,243.32,418.69Z" transform="translate(-5.81 -15.49)"/><path d="M316.09,415.4q-4.54,2-9.21,3.82-12.12-10.74-23.52-22.29,2.47,14.35,5,28.73-4.87,1.48-9.83,2.79-3.3-21.9-6.63-43.77,4.5-1.26,8.92-2.69,11.09,11.61,23,22.42-3-14.32-6.12-28.65,4.22-1.75,8.32-3.68Q311,393.73,316.09,415.4Z" transform="translate(-5.81 -15.49)"/><path class="cls-1" d="M93.34,383.39a200.3,200.3,0,0,1-82-161.82C11.31,110.79,101.11,21,211.89,21s200.59,89.8,200.59,200.58a200.34,200.34,0,0,1-84.8,163.82" transform="translate(-5.81 -15.49)"/><path class="cls-1" d="M93.34,383.39" transform="translate(-5.81 -15.49)"/><path class="cls-2" d="M129.32,104.63c38.4,56.58,82.17,150,81.18,231.1" transform="translate(-5.81 -15.49)"/><path class="cls-2" d="M259.55,195.12c-22.2,43.68-49.05,87-49.05,142.87" transform="translate(-5.81 -15.49)"/><path class="cls-2" d="M259.55,195.12" transform="translate(-5.81 -15.49)"/><path class="cls-3" d="M257.71,196.27l.78,1a1.51,1.51,0,0,0,1.32.55l13.49-1.73a15.36,15.36,0,0,0,3.28-.78c2.73-1,7.81-2.87,10.65-3.93a26.58,26.58,0,0,0,4.17-2l5.74-3.43a18.13,18.13,0,0,0,4.48-3.8c2.77-3.26,6.78-8.78,9.17-12.32a23.11,23.11,0,0,0,2.7-5.37c1.3-3.71,3.63-10.52,4.56-13.29a20.89,20.89,0,0,0,.64-2.35l4.25-20.26,2.32-11,1.88-9a.4.4,0,0,0-.67-.37l-17.62,17.35-.09.09-9.3,10.93a1.1,1.1,0,0,0-.14.21c-12.47,21.32-26.77,40.76-41.61,59.52" transform="translate(-5.81 -15.49)"/><path class="cls-3" d="M265,157.79l6.82-12c1-1.27,1.93-2.84,3.18-4.41a10.31,10.31,0,0,1,3.31-2.7l5.62-2.91,23.52-10.44,16.91-16.66c.4-.39,3.57-2.37,3-2.48,0,0-14.2-1-21-.89a15.23,15.23,0,0,0-5.93.9l-6,2.56-6.19,2.66a15.07,15.07,0,0,0-3.77,2.37c-1.08,1-2.07,2-3.18,2.92l-1.64,1.36a43.58,43.58,0,0,0-7.76,9.15c-.25.39-.44.68-.54.8a18.87,18.87,0,0,0-4.16,8.42l-1.67,8.42a26.5,26.5,0,0,0-.52,5.26Z" transform="translate(-5.81 -15.49)"/></svg>
